<?xml version="1.0" encoding="UTF-8" standalone="no"?>
<!DOCTYPE svg PUBLIC "-//W3C//DTD SVG 1.1//EN"
 "http://www.w3.org/Graphics/SVG/1.1/DTD/svg11.dtd">
<!-- Generated by graphviz version 2.40.1 (0)
 -->
<!-- Title: handy::HttpConnPtr::sendFile Pages: 1 -->
<svg width="757pt" height="468pt"
 viewBox="0.00 0.00 757.00 468.00" xmlns="http://www.w3.org/2000/svg" xmlns:xlink="http://www.w3.org/1999/xlink">
<g id="graph0" class="graph" transform="scale(1 1) rotate(0) translate(4 464)">
<title>handy::HttpConnPtr::sendFile</title>
<polygon fill="#ffffff" stroke="transparent" points="-4,4 -4,-464 753,-464 753,4 -4,4"/>
<!-- Node1 -->
<g id="node1" class="node">
<title>Node1</title>
<polygon fill="#bfbfbf" stroke="#000000" points="0,-191 0,-221 104,-221 104,-191 0,-191"/>
<text text-anchor="start" x="8" y="-209" font-family="Helvetica,sans-Serif" font-size="10.00" fill="#000000">handy::HttpConnPtr</text>
<text text-anchor="middle" x="52" y="-198" font-family="Helvetica,sans-Serif" font-size="10.00" fill="#000000">::sendFile</text>
</g>
<!-- Node2 -->
<g id="node2" class="node">
<title>Node2</title>
<g id="a_node2"><a xlink:href="classhandy_1_1File.html#a5b778189e38180b3a7888d01d85292ac" target="_top" xlink:title="读取文件内容到字符串 ">
<polygon fill="#ffffff" stroke="#000000" points="152,-421.5 152,-440.5 271,-440.5 271,-421.5 152,-421.5"/>
<text text-anchor="middle" x="211.5" y="-428.5" font-family="Helvetica,sans-Serif" font-size="10.00" fill="#000000">handy::File::getContent</text>
</a>
</g>
</g>
<!-- Node1&#45;&gt;Node2 -->
<g id="edge1" class="edge">
<title>Node1&#45;&gt;Node2</title>
<path fill="none" stroke="#191970" d="M53.9085,-221.0578C59.5508,-259.1146 79.7166,-359.8268 140,-412 141.9545,-413.6916 144.0436,-415.2346 146.234,-416.642"/>
<polygon fill="#191970" stroke="#191970" points="144.6508,-419.7646 155.1147,-421.4252 147.9702,-413.6017 144.6508,-419.7646"/>
</g>
<!-- Node7 -->
<g id="node7" class="node">
<title>Node7</title>
<g id="a_node7"><a xlink:href="classhandy_1_1HttpConnPtr.html#ab597d0d1b14f246d0f30dc6f0b411b44" target="_top" xlink:title="获取当前响应对象 ">
<polygon fill="#ffffff" stroke="#000000" points="323,-150 323,-180 427,-180 427,-150 323,-150"/>
<text text-anchor="start" x="331" y="-168" font-family="Helvetica,sans-Serif" font-size="10.00" fill="#000000">handy::HttpConnPtr</text>
<text text-anchor="middle" x="375" y="-157" font-family="Helvetica,sans-Serif" font-size="10.00" fill="#000000">::getResponse</text>
</a>
</g>
</g>
<!-- Node1&#45;&gt;Node7 -->
<g id="edge6" class="edge">
<title>Node1&#45;&gt;Node7</title>
<path fill="none" stroke="#191970" d="M66.8577,-190.8046C83.1369,-175.3431 110.8394,-152.3622 140,-143 198.9488,-124.074 270.1732,-135.1516 318.6492,-147.4091"/>
<polygon fill="#191970" stroke="#191970" points="317.772,-150.7974 328.3329,-149.9499 319.5485,-144.0266 317.772,-150.7974"/>
</g>
<!-- Node8 -->
<g id="node8" class="node">
<title>Node8</title>
<g id="a_node8"><a xlink:href="classhandy_1_1Status.html#abac5c65c266afdd5d0da7b1194c49e52" target="_top" xlink:title="获取状态码 ">
<polygon fill="#ffffff" stroke="#000000" points="323,-364.5 323,-383.5 427,-383.5 427,-364.5 323,-364.5"/>
<text text-anchor="middle" x="375" y="-371.5" font-family="Helvetica,sans-Serif" font-size="10.00" fill="#000000">handy::Status::code</text>
</a>
</g>
</g>
<!-- Node1&#45;&gt;Node8 -->
<g id="edge7" class="edge">
<title>Node1&#45;&gt;Node8</title>
<path fill="none" stroke="#191970" d="M59.3565,-221.2836C72.1291,-246.104 100.8387,-294.9189 140,-320 192.1079,-353.3728 262.3897,-366.2098 312.4852,-371.0995"/>
<polygon fill="#191970" stroke="#191970" points="312.2663,-374.5938 322.539,-372.0011 312.8916,-367.6218 312.2663,-374.5938"/>
</g>
<!-- Node9 -->
<g id="node9" class="node">
<title>Node9</title>
<g id="a_node9"><a xlink:href="classhandy_1_1HttpResponse.html#a9910f0c1d366043c3bd7cff5901121ac" target="_top" xlink:title="设置404 Not Found状态 ">
<polygon fill="#ffffff" stroke="#000000" points="155.5,-258 155.5,-288 267.5,-288 267.5,-258 155.5,-258"/>
<text text-anchor="start" x="163.5" y="-276" font-family="Helvetica,sans-Serif" font-size="10.00" fill="#000000">handy::HttpResponse</text>
<text text-anchor="middle" x="211.5" y="-265" font-family="Helvetica,sans-Serif" font-size="10.00" fill="#000000">::setNotFound</text>
</a>
</g>
</g>
<!-- Node1&#45;&gt;Node9 -->
<g id="edge8" class="edge">
<title>Node1&#45;&gt;Node9</title>
<path fill="none" stroke="#191970" d="M80.5,-221.103C97.5184,-229.8234 119.705,-240.6771 140,-249 144.6509,-250.9073 149.5148,-252.7823 154.4233,-254.5918"/>
<polygon fill="#191970" stroke="#191970" points="153.2787,-257.8995 163.8732,-257.9821 155.6426,-251.3107 153.2787,-257.8995"/>
</g>
<!-- Node10 -->
<g id="node10" class="node">
<title>Node10</title>
<g id="a_node10"><a xlink:href="classhandy_1_1HttpResponse.html#a8e64d809b653c3af1045eff6969bacbf" target="_top" xlink:title="设置响应码和状态 ">
<polygon fill="#ffffff" stroke="#000000" points="319,-280 319,-310 431,-310 431,-280 319,-280"/>
<text text-anchor="start" x="327" y="-298" font-family="Helvetica,sans-Serif" font-size="10.00" fill="#000000">handy::HttpResponse</text>
<text text-anchor="middle" x="375" y="-287" font-family="Helvetica,sans-Serif" font-size="10.00" fill="#000000">::setStatus</text>
</a>
</g>
</g>
<!-- Node1&#45;&gt;Node10 -->
<g id="edge13" class="edge">
<title>Node1&#45;&gt;Node10</title>
<path fill="none" stroke="#191970" d="M60.761,-221.0149C74.4539,-242.7994 103.212,-282.2809 140,-298 193.4188,-320.8253 260.1052,-317.3344 308.7795,-309.7387"/>
<polygon fill="#191970" stroke="#191970" points="309.5888,-313.1524 318.8815,-308.0635 308.4436,-306.2467 309.5888,-313.1524"/>
</g>
<!-- Node12 -->
<g id="node12" class="node">
<title>Node12</title>
<g id="a_node12"><a xlink:href="classhandy_1_1Status.html#a2054a08a6b1608df26b630f6bc27f9b8" target="_top" xlink:title="检查操作是否成功 ">
<polygon fill="#ffffff" stroke="#000000" points="164.5,-383.5 164.5,-402.5 258.5,-402.5 258.5,-383.5 164.5,-383.5"/>
<text text-anchor="middle" x="211.5" y="-390.5" font-family="Helvetica,sans-Serif" font-size="10.00" fill="#000000">handy::Status::ok</text>
</a>
</g>
</g>
<!-- Node1&#45;&gt;Node12 -->
<g id="edge11" class="edge">
<title>Node1&#45;&gt;Node12</title>
<path fill="none" stroke="#191970" d="M56.1455,-221.4809C65.5495,-253.6668 91.5362,-328.1959 140,-369 144.9299,-373.1508 150.6071,-376.5926 156.5621,-379.4447"/>
<polygon fill="#191970" stroke="#191970" points="155.5066,-382.798 166.0809,-383.4583 158.2263,-376.348 155.5066,-382.798"/>
</g>
<!-- Node13 -->
<g id="node13" class="node">
<title>Node13</title>
<g id="a_node13"><a xlink:href="classhandy_1_1Status.html#a357d7e675bc0f19620f70a2e15b41e2a" target="_top" xlink:title="获取错误信息字符串 ">
<polygon fill="#ffffff" stroke="#000000" points="160.5,-152.5 160.5,-171.5 262.5,-171.5 262.5,-152.5 160.5,-152.5"/>
<text text-anchor="middle" x="211.5" y="-159.5" font-family="Helvetica,sans-Serif" font-size="10.00" fill="#000000">handy::Status::msg</text>
</a>
</g>
</g>
<!-- Node1&#45;&gt;Node13 -->
<g id="edge14" class="edge">
<title>Node1&#45;&gt;Node13</title>
<path fill="none" stroke="#191970" d="M104.2263,-191.5928C124.4965,-186.001 147.4707,-179.6633 166.9433,-174.2915"/>
<polygon fill="#191970" stroke="#191970" points="168.065,-177.6129 176.7741,-171.5796 166.2034,-170.8649 168.065,-177.6129"/>
</g>
<!-- Node14 -->
<g id="node14" class="node">
<title>Node14</title>
<g id="a_node14"><a xlink:href="classhandy_1_1HttpMsg.html#a4b4df56bce592a87f451101af3a3b46f" target="_top" xlink:title="获取消息体内容 ">
<polygon fill="#ffffff" stroke="#000000" points="147.5,-.5 147.5,-19.5 275.5,-19.5 275.5,-.5 147.5,-.5"/>
<text text-anchor="middle" x="211.5" y="-7.5" font-family="Helvetica,sans-Serif" font-size="10.00" fill="#000000">handy::HttpMsg::getBody</text>
</a>
</g>
</g>
<!-- Node1&#45;&gt;Node14 -->
<g id="edge15" class="edge">
<title>Node1&#45;&gt;Node14</title>
<path fill="none" stroke="#191970" d="M55.0989,-190.7846C62.908,-156.4384 86.6962,-72.5093 140,-29 142.1642,-27.2335 144.4767,-25.63 146.8967,-24.1746"/>
<polygon fill="#191970" stroke="#191970" points="148.7237,-27.1724 156.0572,-19.5258 145.5559,-20.9302 148.7237,-27.1724"/>
</g>
<!-- Node16 -->
<g id="node16" class="node">
<title>Node16</title>
<g id="a_node16"><a xlink:href="classhandy_1_1HttpMsg.html#a376e3ffcc918d995c0c0847e76d931b9" target="_top" xlink:title="获取头部字段 ">
<polygon fill="#ffffff" stroke="#000000" points="140,-76.5 140,-95.5 283,-95.5 283,-76.5 140,-76.5"/>
<text text-anchor="middle" x="211.5" y="-83.5" font-family="Helvetica,sans-Serif" font-size="10.00" fill="#000000">handy::HttpMsg::getHeaders</text>
</a>
</g>
</g>
<!-- Node1&#45;&gt;Node16 -->
<g id="edge17" class="edge">
<title>Node1&#45;&gt;Node16</title>
<path fill="none" stroke="#191970" d="M62.1323,-190.8026C76.893,-169.777 106.2564,-131.9321 140,-110 146.6386,-105.6851 154.1303,-102.0696 161.7017,-99.0638"/>
<polygon fill="#191970" stroke="#191970" points="163.0785,-102.2873 171.2765,-95.5758 160.6825,-95.7102 163.0785,-102.2873"/>
</g>
<!-- Node17 -->
<g id="node17" class="node">
<title>Node17</title>
<g id="a_node17"><a xlink:href="structhandy_1_1Utils.html#ab80c9b341b5efdf19668e34c0dfcdbc6" target="_top" xlink:title="根据文件名获取对应的MIME类型 ">
<polygon fill="#ffffff" stroke="#000000" points="144.5,-38.5 144.5,-57.5 278.5,-57.5 278.5,-38.5 144.5,-38.5"/>
<text text-anchor="middle" x="211.5" y="-45.5" font-family="Helvetica,sans-Serif" font-size="10.00" fill="#000000">handy::Utils::getMimeType</text>
</a>
</g>
</g>
<!-- Node1&#45;&gt;Node17 -->
<g id="edge18" class="edge">
<title>Node1&#45;&gt;Node17</title>
<path fill="none" stroke="#191970" d="M57.2908,-190.8141C68.1093,-162.0554 95.5582,-99.6122 140,-67 142.6405,-65.0623 145.4645,-63.3221 148.409,-61.7593"/>
<polygon fill="#191970" stroke="#191970" points="149.9032,-64.9247 157.5419,-57.583 146.9921,-58.5587 149.9032,-64.9247"/>
</g>
<!-- Node18 -->
<g id="node18" class="node">
<title>Node18</title>
<g id="a_node18"><a xlink:href="classhandy_1_1HttpConnPtr.html#accd5d2ca0dd2dc047f89698ce500099f" target="_top" xlink:title="发送当前响应对象 ">
<polygon fill="#ffffff" stroke="#000000" points="159.5,-191 159.5,-221 263.5,-221 263.5,-191 159.5,-191"/>
<text text-anchor="start" x="167.5" y="-209" font-family="Helvetica,sans-Serif" font-size="10.00" fill="#000000">handy::HttpConnPtr</text>
<text text-anchor="middle" x="211.5" y="-198" font-family="Helvetica,sans-Serif" font-size="10.00" fill="#000000">::sendResponse</text>
</a>
</g>
</g>
<!-- Node1&#45;&gt;Node18 -->
<g id="edge19" class="edge">
<title>Node1&#45;&gt;Node18</title>
<path fill="none" stroke="#191970" d="M104.2263,-206C118.6208,-206 134.379,-206 149.2784,-206"/>
<polygon fill="#191970" stroke="#191970" points="149.429,-209.5001 159.4289,-206 149.4289,-202.5001 149.429,-209.5001"/>
</g>
<!-- Node3 -->
<g id="node3" class="node">
<title>Node3</title>
<g id="a_node3"><a xlink:href="classhandy_1_1Status.html#a4f98c279b3cd768dcad0e83e38f37616" target="_top" xlink:title="创建I/O操作错误的Status对象 ">
<polygon fill="#ffffff" stroke="#000000" points="319,-421.5 319,-440.5 431,-440.5 431,-421.5 319,-421.5"/>
<text text-anchor="middle" x="375" y="-428.5" font-family="Helvetica,sans-Serif" font-size="10.00" fill="#000000">handy::Status::ioError</text>
</a>
</g>
</g>
<!-- Node2&#45;&gt;Node3 -->
<g id="edge2" class="edge">
<title>Node2&#45;&gt;Node3</title>
<path fill="none" stroke="#191970" d="M271.453,-431C283.5573,-431 296.3494,-431 308.6579,-431"/>
<polygon fill="#191970" stroke="#191970" points="308.8577,-434.5001 318.8577,-431 308.8577,-427.5001 308.8577,-434.5001"/>
</g>
<!-- Node4 -->
<g id="node4" class="node">
<title>Node4</title>
<g id="a_node4"><a xlink:href="classhandy_1_1Status.html#a20ee42a38aebe4d18b36d5bc2ef1bf6b" target="_top" xlink:title="根据格式化字符串创建Status对象 ">
<polygon fill="#ffffff" stroke="#000000" points="467,-402.5 467,-421.5 601,-421.5 601,-402.5 467,-402.5"/>
<text text-anchor="middle" x="534" y="-409.5" font-family="Helvetica,sans-Serif" font-size="10.00" fill="#000000">handy::Status::fromFormat</text>
</a>
</g>
</g>
<!-- Node3&#45;&gt;Node4 -->
<g id="edge3" class="edge">
<title>Node3&#45;&gt;Node4</title>
<path fill="none" stroke="#191970" d="M431.0575,-424.3013C439.3473,-423.3107 448.0106,-422.2755 456.6402,-421.2442"/>
<polygon fill="#191970" stroke="#191970" points="457.2168,-424.7003 466.7308,-420.0385 456.3862,-417.7498 457.2168,-424.7003"/>
</g>
<!-- Node6 -->
<g id="node6" class="node">
<title>Node6</title>
<g id="a_node6"><a xlink:href="namespacehandy.html#a957dcc461a7df87ab6338b1da38e4fba" target="_top" xlink:title="获取当前线程的系统错误信息字符串 ">
<polygon fill="#ffffff" stroke="#000000" points="498.5,-440.5 498.5,-459.5 569.5,-459.5 569.5,-440.5 498.5,-440.5"/>
<text text-anchor="middle" x="534" y="-447.5" font-family="Helvetica,sans-Serif" font-size="10.00" fill="#000000">handy::errstr</text>
</a>
</g>
</g>
<!-- Node3&#45;&gt;Node6 -->
<g id="edge5" class="edge">
<title>Node3&#45;&gt;Node6</title>
<path fill="none" stroke="#191970" d="M431.0575,-437.6987C449.7424,-439.9315 470.3247,-442.391 488.1425,-444.5202"/>
<polygon fill="#191970" stroke="#191970" points="487.9339,-448.0201 498.2786,-445.7314 488.7646,-441.0695 487.9339,-448.0201"/>
</g>
<!-- Node5 -->
<g id="node5" class="node">
<title>Node5</title>
<g id="a_node5"><a xlink:href="classhandy_1_1Status.html#a928f8d212a443ec48bf09b53d58eed93" target="_top" xlink:title="构造函数，创建一个表示“成功”的Status对象 ">
<polygon fill="#ffffff" stroke="#000000" points="637,-402.5 637,-421.5 749,-421.5 749,-402.5 637,-402.5"/>
<text text-anchor="middle" x="693" y="-409.5" font-family="Helvetica,sans-Serif" font-size="10.00" fill="#000000">handy::Status::Status</text>
</a>
</g>
</g>
<!-- Node4&#45;&gt;Node5 -->
<g id="edge4" class="edge">
<title>Node4&#45;&gt;Node5</title>
<path fill="none" stroke="#191970" d="M601.4303,-412C609.8546,-412 618.464,-412 626.8682,-412"/>
<polygon fill="#191970" stroke="#191970" points="626.9915,-415.5001 636.9915,-412 626.9914,-408.5001 626.9915,-415.5001"/>
</g>
<!-- Node9&#45;&gt;Node10 -->
<g id="edge9" class="edge">
<title>Node9&#45;&gt;Node10</title>
<path fill="none" stroke="#191970" d="M267.7674,-280.5712C280.9435,-282.3441 295.1009,-284.249 308.6701,-286.0749"/>
<polygon fill="#191970" stroke="#191970" points="308.5285,-289.5873 318.9059,-287.4522 309.462,-282.6498 308.5285,-289.5873"/>
</g>
<!-- Node11 -->
<g id="node11" class="node">
<title>Node11</title>
<g id="a_node11"><a xlink:href="classhandy_1_1HttpResponse.html#aa0f5da9cddecdb321286d69f5a84ea96" target="_top" xlink:title="状态描述 ">
<polygon fill="#ffffff" stroke="#000000" points="474,-280 474,-310 594,-310 594,-280 474,-280"/>
<text text-anchor="start" x="482" y="-298" font-family="Helvetica,sans-Serif" font-size="10.00" fill="#000000">handy::HttpResponse</text>
<text text-anchor="middle" x="534" y="-287" font-family="Helvetica,sans-Serif" font-size="10.00" fill="#000000">::_getDefaultStatusMsg</text>
</a>
</g>
</g>
<!-- Node10&#45;&gt;Node11 -->
<g id="edge10" class="edge">
<title>Node10&#45;&gt;Node11</title>
<path fill="none" stroke="#191970" d="M431.0575,-295C441.5594,-295 452.6608,-295 463.5338,-295"/>
<polygon fill="#191970" stroke="#191970" points="463.8615,-298.5001 473.8615,-295 463.8614,-291.5001 463.8615,-298.5001"/>
</g>
<!-- Node12&#45;&gt;Node8 -->
<g id="edge12" class="edge">
<title>Node12&#45;&gt;Node8</title>
<path fill="none" stroke="#191970" d="M258.791,-387.5044C275.6621,-385.5438 294.93,-383.3048 312.8603,-381.2211"/>
<polygon fill="#191970" stroke="#191970" points="313.4172,-384.6801 322.9463,-380.0491 312.6091,-377.7268 313.4172,-384.6801"/>
</g>
<!-- Node15 -->
<g id="node15" class="node">
<title>Node15</title>
<g id="a_node15"><a xlink:href="classhandy_1_1Slice.html#a357b22a45d5ee301fe4cec8ab34233fe" target="_top" xlink:title="判断视图是否为空 ">
<polygon fill="#ffffff" stroke="#000000" points="323,-.5 323,-19.5 427,-19.5 427,-.5 323,-.5"/>
<text text-anchor="middle" x="375" y="-7.5" font-family="Helvetica,sans-Serif" font-size="10.00" fill="#000000">handy::Slice::empty</text>
</a>
</g>
</g>
<!-- Node14&#45;&gt;Node15 -->
<g id="edge16" class="edge">
<title>Node14&#45;&gt;Node15</title>
<path fill="none" stroke="#191970" d="M275.6503,-10C287.8816,-10 300.6648,-10 312.833,-10"/>
<polygon fill="#191970" stroke="#191970" points="312.884,-13.5001 322.884,-10 312.8839,-6.5001 312.884,-13.5001"/>
</g>
<!-- Node18&#45;&gt;Node7 -->
<g id="edge21" class="edge">
<title>Node18&#45;&gt;Node7</title>
<path fill="none" stroke="#191970" d="M263.682,-192.9146C279.3154,-188.9943 296.6161,-184.6559 312.8258,-180.5911"/>
<polygon fill="#191970" stroke="#191970" points="313.9047,-183.929 322.753,-178.1017 312.202,-177.1392 313.9047,-183.929"/>
</g>
<!-- Node18&#45;&gt;Node18 -->
<g id="edge20" class="edge">
<title>Node18&#45;&gt;Node18</title>
<path fill="none" stroke="#191970" d="M183.9652,-221.159C177.3257,-230.5566 186.5039,-239.5 211.5,-239.5 226.732,-239.5 236.0902,-236.179 239.5747,-231.4579"/>
<polygon fill="#191970" stroke="#191970" points="243.0536,-230.962 239.0348,-221.159 236.0632,-231.3286 243.0536,-230.962"/>
</g>
</g>
</svg>
