<?xml version="1.0" encoding="UTF-8" standalone="no"?>
<!DOCTYPE svg PUBLIC "-//W3C//DTD SVG 1.1//EN"
 "http://www.w3.org/Graphics/SVG/1.1/DTD/svg11.dtd">
<!-- Generated by graphviz version 2.40.1 (0)
 -->
<!-- Title: handy::Status::ok Pages: 1 -->
<svg width="263pt" height="127pt"
 viewBox="0.00 0.00 263.00 126.50" xmlns="http://www.w3.org/2000/svg" xmlns:xlink="http://www.w3.org/1999/xlink">
<g id="graph0" class="graph" transform="scale(1 1) rotate(0) translate(4 122.5)">
<title>handy::Status::ok</title>
<polygon fill="#ffffff" stroke="transparent" points="-4,4 -4,-122.5 259,-122.5 259,4 -4,4"/>
<!-- Node1 -->
<g id="node1" class="node">
<title>Node1</title>
<polygon fill="#bfbfbf" stroke="#000000" points="0,-55 0,-74 94,-74 94,-55 0,-55"/>
<text text-anchor="middle" x="47" y="-62" font-family="Helvetica,sans-Serif" font-size="10.00" fill="#000000">handy::Status::ok</text>
</g>
<!-- Node2 -->
<g id="node2" class="node">
<title>Node2</title>
<g id="a_node2"><a xlink:href="classhandy_1_1File.html#a25c291a825fafe32feeeea8e1322a804" target="_top" xlink:title="安全写入文件（先写临时文件，再原子重命名） ">
<polygon fill="#ffffff" stroke="#000000" points="130,-99 130,-118 255,-118 255,-99 130,-99"/>
<text text-anchor="middle" x="192.5" y="-106" font-family="Helvetica,sans-Serif" font-size="10.00" fill="#000000">handy::File::renameSave</text>
</a>
</g>
</g>
<!-- Node1&#45;&gt;Node2 -->
<g id="edge1" class="edge">
<title>Node1&#45;&gt;Node2</title>
<path fill="none" stroke="#191970" d="M88.4293,-77.0285C111.4918,-84.0027 139.7446,-92.5465 160.9903,-98.9713"/>
<polygon fill="#191970" stroke="#191970" points="89.1564,-73.5918 78.5713,-74.0473 87.1301,-80.2922 89.1564,-73.5918"/>
</g>
<!-- Node3 -->
<g id="node3" class="node">
<title>Node3</title>
<g id="a_node3"><a xlink:href="classhandy_1_1HttpConnPtr.html#a5baa91c7b32051095038b4c9d4e9f30f" target="_top" xlink:title="发送文件作为响应 ">
<polygon fill="#ffffff" stroke="#000000" points="140.5,-49.5 140.5,-79.5 244.5,-79.5 244.5,-49.5 140.5,-49.5"/>
<text text-anchor="start" x="148.5" y="-67.5" font-family="Helvetica,sans-Serif" font-size="10.00" fill="#000000">handy::HttpConnPtr</text>
<text text-anchor="middle" x="192.5" y="-56.5" font-family="Helvetica,sans-Serif" font-size="10.00" fill="#000000">::sendFile</text>
</a>
</g>
</g>
<!-- Node1&#45;&gt;Node3 -->
<g id="edge2" class="edge">
<title>Node1&#45;&gt;Node3</title>
<path fill="none" stroke="#191970" d="M104.4924,-64.5C116.364,-64.5 128.8031,-64.5 140.4671,-64.5"/>
<polygon fill="#191970" stroke="#191970" points="104.2397,-61.0001 94.2397,-64.5 104.2396,-68.0001 104.2397,-61.0001"/>
</g>
<!-- Node4 -->
<g id="node4" class="node">
<title>Node4</title>
<g id="a_node4"><a xlink:href="classhandy_1_1StatServer.html#a0abb3f277002ee8dbb00bbc78e2abb99" target="_top" xlink:title="注册页面文件（将文件内容作为页面响应） ">
<polygon fill="#ffffff" stroke="#000000" points="142,-.5 142,-30.5 243,-30.5 243,-.5 142,-.5"/>
<text text-anchor="start" x="150" y="-18.5" font-family="Helvetica,sans-Serif" font-size="10.00" fill="#000000">handy::StatServer::</text>
<text text-anchor="middle" x="192.5" y="-7.5" font-family="Helvetica,sans-Serif" font-size="10.00" fill="#000000">onPageFile</text>
</a>
</g>
</g>
<!-- Node1&#45;&gt;Node4 -->
<g id="edge3" class="edge">
<title>Node1&#45;&gt;Node4</title>
<path fill="none" stroke="#191970" d="M85.0359,-51.6907C104.2787,-45.2103 127.754,-37.3045 147.8494,-30.537"/>
<polygon fill="#191970" stroke="#191970" points="83.7592,-48.4274 75.3993,-54.936 85.9934,-55.0613 83.7592,-48.4274"/>
</g>
</g>
</svg>
