<?xml version="1.0" encoding="UTF-8" standalone="no"?>
<!DOCTYPE svg PUBLIC "-//W3C//DTD SVG 1.1//EN"
 "http://www.w3.org/Graphics/SVG/1.1/DTD/svg11.dtd">
<!-- Generated by graphviz version 2.40.1 (0)
 -->
<!-- Title: handy::HttpResponse::encode Pages: 1 -->
<svg width="625pt" height="142pt"
 viewBox="0.00 0.00 625.00 142.00" xmlns="http://www.w3.org/2000/svg" xmlns:xlink="http://www.w3.org/1999/xlink">
<g id="graph0" class="graph" transform="scale(1 1) rotate(0) translate(4 138)">
<title>handy::HttpResponse::encode</title>
<polygon fill="#ffffff" stroke="transparent" points="-4,4 -4,-138 621,-138 621,4 -4,4"/>
<!-- Node1 -->
<g id="node1" class="node">
<title>Node1</title>
<polygon fill="#bfbfbf" stroke="#000000" points="0,-52 0,-82 112,-82 112,-52 0,-52"/>
<text text-anchor="start" x="8" y="-70" font-family="Helvetica,sans-Serif" font-size="10.00" fill="#000000">handy::HttpResponse</text>
<text text-anchor="middle" x="56" y="-59" font-family="Helvetica,sans-Serif" font-size="10.00" fill="#000000">::encode</text>
</g>
<!-- Node2 -->
<g id="node2" class="node">
<title>Node2</title>
<g id="a_node2"><a xlink:href="classhandy_1_1Buffer.html#aa759a33b7e3748d79cff07430f8a7b16" target="_top" xlink:title="获取当前缓冲区中的数据长度 ">
<polygon fill="#ffffff" stroke="#000000" points="163,-114.5 163,-133.5 261,-133.5 261,-114.5 163,-114.5"/>
<text text-anchor="middle" x="212" y="-121.5" font-family="Helvetica,sans-Serif" font-size="10.00" fill="#000000">handy::Buffer::size</text>
</a>
</g>
</g>
<!-- Node1&#45;&gt;Node2 -->
<g id="edge1" class="edge">
<title>Node1&#45;&gt;Node2</title>
<path fill="none" stroke="#191970" d="M90.1873,-82.106C107.3713,-89.4458 128.6137,-98.1392 148,-105 154.3868,-107.2603 161.1937,-109.4789 167.8958,-111.5572"/>
<polygon fill="#191970" stroke="#191970" points="166.9938,-114.9409 177.5791,-114.49 169.023,-108.2415 166.9938,-114.9409"/>
</g>
<!-- Node3 -->
<g id="node3" class="node">
<title>Node3</title>
<g id="a_node3"><a xlink:href="classhandy_1_1Buffer.html#a3fb7183f49ac1a86d1d35dd44943ef60" target="_top" xlink:title="将指定长度的数据追加到缓冲区 ">
<polygon fill="#ffffff" stroke="#000000" points="156,-76.5 156,-95.5 268,-95.5 268,-76.5 156,-76.5"/>
<text text-anchor="middle" x="212" y="-83.5" font-family="Helvetica,sans-Serif" font-size="10.00" fill="#000000">handy::Buffer::append</text>
</a>
</g>
</g>
<!-- Node1&#45;&gt;Node3 -->
<g id="edge2" class="edge">
<title>Node1&#45;&gt;Node3</title>
<path fill="none" stroke="#191970" d="M112.3196,-73.8594C123.1443,-75.1778 134.5741,-76.5699 145.6807,-77.9227"/>
<polygon fill="#191970" stroke="#191970" points="145.4133,-81.4159 155.7631,-79.1506 146.2596,-74.4672 145.4133,-81.4159"/>
</g>
<!-- Node7 -->
<g id="node7" class="node">
<title>Node7</title>
<g id="a_node7"><a xlink:href="structhandy_1_1Utils.html#ad70f51fc39095ca32dce7f045adc026b" target="_top" xlink:title="格式化字符串 ">
<polygon fill="#ffffff" stroke="#000000" points="160.5,-38.5 160.5,-57.5 263.5,-57.5 263.5,-38.5 160.5,-38.5"/>
<text text-anchor="middle" x="212" y="-45.5" font-family="Helvetica,sans-Serif" font-size="10.00" fill="#000000">handy::Utils::format</text>
</a>
</g>
</g>
<!-- Node1&#45;&gt;Node7 -->
<g id="edge6" class="edge">
<title>Node1&#45;&gt;Node7</title>
<path fill="none" stroke="#191970" d="M112.3196,-60.1406C124.7152,-58.6308 137.9044,-57.0245 150.493,-55.4912"/>
<polygon fill="#191970" stroke="#191970" points="150.9299,-58.964 160.4333,-54.2806 150.0835,-52.0153 150.9299,-58.964"/>
</g>
<!-- Node8 -->
<g id="node8" class="node">
<title>Node8</title>
<g id="a_node8"><a xlink:href="classhandy_1_1HttpMsg.html#a4b4df56bce592a87f451101af3a3b46f" target="_top" xlink:title="获取消息体内容 ">
<polygon fill="#ffffff" stroke="#000000" points="148,-.5 148,-19.5 276,-19.5 276,-.5 148,-.5"/>
<text text-anchor="middle" x="212" y="-7.5" font-family="Helvetica,sans-Serif" font-size="10.00" fill="#000000">handy::HttpMsg::getBody</text>
</a>
</g>
</g>
<!-- Node1&#45;&gt;Node8 -->
<g id="edge7" class="edge">
<title>Node1&#45;&gt;Node8</title>
<path fill="none" stroke="#191970" d="M90.1873,-51.894C107.3713,-44.5542 128.6137,-35.8608 148,-29 154.3868,-26.7397 161.1937,-24.5211 167.8958,-22.4428"/>
<polygon fill="#191970" stroke="#191970" points="169.023,-25.7585 177.5791,-19.51 166.9938,-19.0591 169.023,-25.7585"/>
</g>
<!-- Node4 -->
<g id="node4" class="node">
<title>Node4</title>
<g id="a_node4"><a xlink:href="classhandy_1_1Buffer.html#afbd50b666a4e1576b2e19bdb047e7a53" target="_top" xlink:title="确保缓冲区有足够空间容纳指定长度的数据 ">
<polygon fill="#ffffff" stroke="#000000" points="312,-76.5 312,-95.5 448,-95.5 448,-76.5 312,-76.5"/>
<text text-anchor="middle" x="380" y="-83.5" font-family="Helvetica,sans-Serif" font-size="10.00" fill="#000000">handy::Buffer::_makeRoom</text>
</a>
</g>
</g>
<!-- Node3&#45;&gt;Node4 -->
<g id="edge3" class="edge">
<title>Node3&#45;&gt;Node4</title>
<path fill="none" stroke="#191970" d="M268.4089,-86C279.0643,-86 290.3861,-86 301.5753,-86"/>
<polygon fill="#191970" stroke="#191970" points="301.791,-89.5001 311.791,-86 301.7909,-82.5001 301.791,-89.5001"/>
</g>
<!-- Node5 -->
<g id="node5" class="node">
<title>Node5</title>
<g id="a_node5"><a xlink:href="classhandy_1_1Buffer.html#a152b8546af1c0bca407455a6b174e05b" target="_top" xlink:title="将数据移动到缓冲区头部，减少内存碎片 ">
<polygon fill="#ffffff" stroke="#000000" points="484,-95.5 484,-114.5 617,-114.5 617,-95.5 484,-95.5"/>
<text text-anchor="middle" x="550.5" y="-102.5" font-family="Helvetica,sans-Serif" font-size="10.00" fill="#000000">handy::Buffer::_moveHead</text>
</a>
</g>
</g>
<!-- Node4&#45;&gt;Node5 -->
<g id="edge4" class="edge">
<title>Node4&#45;&gt;Node5</title>
<path fill="none" stroke="#191970" d="M448.3665,-93.6185C456.6655,-94.5434 465.1868,-95.493 473.5987,-96.4304"/>
<polygon fill="#191970" stroke="#191970" points="473.4566,-99.9361 483.7828,-97.5652 474.232,-92.9792 473.4566,-99.9361"/>
</g>
<!-- Node6 -->
<g id="node6" class="node">
<title>Node6</title>
<g id="a_node6"><a xlink:href="classhandy_1_1Buffer.html#a0ca99339d31c25d203875bf57f75fc67" target="_top" xlink:title="扩展缓冲区容量 ">
<polygon fill="#ffffff" stroke="#000000" points="492,-57.5 492,-76.5 609,-76.5 609,-57.5 492,-57.5"/>
<text text-anchor="middle" x="550.5" y="-64.5" font-family="Helvetica,sans-Serif" font-size="10.00" fill="#000000">handy::Buffer::_expand</text>
</a>
</g>
</g>
<!-- Node4&#45;&gt;Node6 -->
<g id="edge5" class="edge">
<title>Node4&#45;&gt;Node6</title>
<path fill="none" stroke="#191970" d="M448.3665,-78.3815C459.4318,-77.1484 470.8924,-75.8712 481.9618,-74.6377"/>
<polygon fill="#191970" stroke="#191970" points="482.4442,-78.1057 491.995,-73.5196 481.6689,-71.1487 482.4442,-78.1057"/>
</g>
<!-- Node9 -->
<g id="node9" class="node">
<title>Node9</title>
<g id="a_node9"><a xlink:href="classhandy_1_1Slice.html#a357b22a45d5ee301fe4cec8ab34233fe" target="_top" xlink:title="判断视图是否为空 ">
<polygon fill="#ffffff" stroke="#000000" points="328,-.5 328,-19.5 432,-19.5 432,-.5 328,-.5"/>
<text text-anchor="middle" x="380" y="-7.5" font-family="Helvetica,sans-Serif" font-size="10.00" fill="#000000">handy::Slice::empty</text>
</a>
</g>
</g>
<!-- Node8&#45;&gt;Node9 -->
<g id="edge8" class="edge">
<title>Node8&#45;&gt;Node9</title>
<path fill="none" stroke="#191970" d="M276.4727,-10C290.0404,-10 304.3275,-10 317.8094,-10"/>
<polygon fill="#191970" stroke="#191970" points="317.9369,-13.5001 327.9369,-10 317.9369,-6.5001 317.9369,-13.5001"/>
</g>
</g>
</svg>
