<?xml version="1.0" encoding="UTF-8" standalone="no"?>
<!DOCTYPE svg PUBLIC "-//W3C//DTD SVG 1.1//EN"
 "http://www.w3.org/Graphics/SVG/1.1/DTD/svg11.dtd">
<!-- Generated by graphviz version 2.40.1 (0)
 -->
<!-- Title: handy::ThreadPool::exit Pages: 1 -->
<svg width="560pt" height="313pt"
 viewBox="0.00 0.00 560.00 312.50" xmlns="http://www.w3.org/2000/svg" xmlns:xlink="http://www.w3.org/1999/xlink">
<g id="graph0" class="graph" transform="scale(1 1) rotate(0) translate(4 308.5)">
<title>handy::ThreadPool::exit</title>
<polygon fill="#ffffff" stroke="transparent" points="-4,4 -4,-308.5 556,-308.5 556,4 -4,4"/>
<!-- Node1 -->
<g id="node1" class="node">
<title>Node1</title>
<polygon fill="#bfbfbf" stroke="#000000" points="0,-153 0,-172 120,-172 120,-153 0,-153"/>
<text text-anchor="middle" x="60" y="-160" font-family="Helvetica,sans-Serif" font-size="10.00" fill="#000000">handy::ThreadPool::exit</text>
</g>
<!-- Node2 -->
<g id="node2" class="node">
<title>Node2</title>
<g id="a_node2"><a xlink:href="classhandy_1_1HSHA.html#aad61ed7ed000d983922ce2b2f3de045a" target="_top" xlink:title="退出服务器 ">
<polygon fill="#ffffff" stroke="#000000" points="183,-285 183,-304 282,-304 282,-285 183,-285"/>
<text text-anchor="middle" x="232.5" y="-292" font-family="Helvetica,sans-Serif" font-size="10.00" fill="#000000">handy::HSHA::exit</text>
</a>
</g>
</g>
<!-- Node1&#45;&gt;Node2 -->
<g id="edge1" class="edge">
<title>Node1&#45;&gt;Node2</title>
<path fill="none" stroke="#191970" d="M70.4,-180.7558C85.7762,-206.0387 117.0066,-251.3239 156,-275.5 164.1415,-280.5478 173.5503,-284.2556 182.9248,-286.9789"/>
<polygon fill="#191970" stroke="#191970" points="73.4027,-178.9572 65.3001,-172.1309 67.3772,-182.5201 73.4027,-178.9572"/>
</g>
<!-- Node3 -->
<g id="node3" class="node">
<title>Node3</title>
<g id="a_node3"><a xlink:href="classhandy_1_1ThreadPool.html#ac6679e58f1edc7df60289577b0475100" target="_top" xlink:title="析构函数(优雅释放资源) ">
<polygon fill="#ffffff" stroke="#000000" points="180.5,-235.5 180.5,-265.5 284.5,-265.5 284.5,-235.5 180.5,-235.5"/>
<text text-anchor="start" x="188.5" y="-253.5" font-family="Helvetica,sans-Serif" font-size="10.00" fill="#000000">handy::ThreadPool::</text>
<text text-anchor="middle" x="232.5" y="-242.5" font-family="Helvetica,sans-Serif" font-size="10.00" fill="#000000">~ThreadPool</text>
</a>
</g>
</g>
<!-- Node1&#45;&gt;Node3 -->
<g id="edge2" class="edge">
<title>Node1&#45;&gt;Node3</title>
<path fill="none" stroke="#191970" d="M80.5231,-178.288C99.3402,-192.1857 128.3941,-212.2224 156,-225.5 163.681,-229.1943 172.045,-232.5475 180.3304,-235.5124"/>
<polygon fill="#191970" stroke="#191970" points="82.5003,-175.396 72.3995,-172.1983 78.3016,-180.997 82.5003,-175.396"/>
</g>
<!-- Node4 -->
<g id="node4" class="node">
<title>Node4</title>
<g id="a_node4"><a xlink:href="classhandy_1_1HSHAU.html#a9611a03558463948b5e6b3ee3b497111" target="_top" xlink:title="停止服务器并释放资源 ">
<polygon fill="#ffffff" stroke="#000000" points="179,-197 179,-216 286,-216 286,-197 179,-197"/>
<text text-anchor="middle" x="232.5" y="-204" font-family="Helvetica,sans-Serif" font-size="10.00" fill="#000000">handy::HSHAU::exit</text>
</a>
</g>
</g>
<!-- Node1&#45;&gt;Node4 -->
<g id="edge3" class="edge">
<title>Node1&#45;&gt;Node4</title>
<path fill="none" stroke="#191970" d="M106.459,-174.7118C122.1801,-178.814 139.8437,-183.3901 156,-187.5 168.2014,-190.6038 181.513,-193.9306 193.5611,-196.9193"/>
<polygon fill="#191970" stroke="#191970" points="107.0039,-171.2367 96.4438,-172.0942 105.2338,-178.0092 107.0039,-171.2367"/>
</g>
<!-- Node6 -->
<g id="node6" class="node">
<title>Node6</title>
<g id="a_node6"><a xlink:href="namespacehandy_1_1threadsTest.html#abbd019f23df358dfd350a694bd0f8755" target="_top" xlink:title="测试 ThreadPool 基础功能（构造/start/addTask/exit/join） ">
<polygon fill="#ffffff" stroke="#000000" points="176,-147.5 176,-177.5 289,-177.5 289,-147.5 176,-147.5"/>
<text text-anchor="start" x="184" y="-165.5" font-family="Helvetica,sans-Serif" font-size="10.00" fill="#000000">handy::threadsTest</text>
<text text-anchor="middle" x="232.5" y="-154.5" font-family="Helvetica,sans-Serif" font-size="10.00" fill="#000000">::testThreadPoolBasic</text>
</a>
</g>
</g>
<!-- Node1&#45;&gt;Node6 -->
<g id="edge5" class="edge">
<title>Node1&#45;&gt;Node6</title>
<path fill="none" stroke="#191970" d="M130.6499,-162.5C145.7396,-162.5 161.4884,-162.5 175.9648,-162.5"/>
<polygon fill="#191970" stroke="#191970" points="130.3322,-159.0001 120.3321,-162.5 130.3321,-166.0001 130.3322,-159.0001"/>
</g>
<!-- Node9 -->
<g id="node9" class="node">
<title>Node9</title>
<g id="a_node9"><a xlink:href="namespacehandy_1_1threadsTest.html#a27d7989806fd80711ca64fef1a1bb772" target="_top" xlink:title="测试 ThreadPool 异常处理（非法参数、状态错误） ">
<polygon fill="#ffffff" stroke="#000000" points="164,-98.5 164,-128.5 301,-128.5 301,-98.5 164,-98.5"/>
<text text-anchor="start" x="172" y="-116.5" font-family="Helvetica,sans-Serif" font-size="10.00" fill="#000000">handy::threadsTest</text>
<text text-anchor="middle" x="232.5" y="-105.5" font-family="Helvetica,sans-Serif" font-size="10.00" fill="#000000">::testThreadPoolExceptions</text>
</a>
</g>
</g>
<!-- Node1&#45;&gt;Node9 -->
<g id="edge8" class="edge">
<title>Node1&#45;&gt;Node9</title>
<path fill="none" stroke="#191970" d="M103.5324,-150.1343C126.6289,-143.5735 155.1928,-135.4597 179.5637,-128.537"/>
<polygon fill="#191970" stroke="#191970" points="102.3323,-146.8366 93.6692,-152.936 104.2451,-153.5702 102.3323,-146.8366"/>
</g>
<!-- Node10 -->
<g id="node10" class="node">
<title>Node10</title>
<g id="a_node10"><a xlink:href="namespacehandy_1_1threadsTest.html#a9c4cfb5b26d89f823390fc8e7a6dacfc" target="_top" xlink:title="测试 ThreadPool 多线程任务执行与容量控制 ">
<polygon fill="#ffffff" stroke="#000000" points="167,-49.5 167,-79.5 298,-79.5 298,-49.5 167,-49.5"/>
<text text-anchor="start" x="175" y="-67.5" font-family="Helvetica,sans-Serif" font-size="10.00" fill="#000000">handy::threadsTest</text>
<text text-anchor="middle" x="232.5" y="-56.5" font-family="Helvetica,sans-Serif" font-size="10.00" fill="#000000">::testThreadPoolMultiTask</text>
</a>
</g>
</g>
<!-- Node1&#45;&gt;Node10 -->
<g id="edge10" class="edge">
<title>Node1&#45;&gt;Node10</title>
<path fill="none" stroke="#191970" d="M77.7107,-146.0972C96.087,-129.8171 126.2518,-105.1007 156,-89.5 163.0532,-85.8011 170.7581,-82.51 178.4748,-79.6284"/>
<polygon fill="#191970" stroke="#191970" points="75.2253,-143.6255 70.1409,-152.9206 79.9121,-148.825 75.2253,-143.6255"/>
</g>
<!-- Node11 -->
<g id="node11" class="node">
<title>Node11</title>
<g id="a_node11"><a xlink:href="namespacehandy_1_1threadsTest.html#a7397324a575b5a9cfae3f63bd26a91cb" target="_top" xlink:title="测试 ThreadPool 任务异常处理（任务抛出异常不影响线程池） ">
<polygon fill="#ffffff" stroke="#000000" points="156,-.5 156,-30.5 309,-30.5 309,-.5 156,-.5"/>
<text text-anchor="start" x="164" y="-18.5" font-family="Helvetica,sans-Serif" font-size="10.00" fill="#000000">handy::threadsTest</text>
<text text-anchor="middle" x="232.5" y="-7.5" font-family="Helvetica,sans-Serif" font-size="10.00" fill="#000000">::testThreadPoolTaskException</text>
</a>
</g>
</g>
<!-- Node1&#45;&gt;Node11 -->
<g id="edge12" class="edge">
<title>Node1&#45;&gt;Node11</title>
<path fill="none" stroke="#191970" d="M69.762,-143.7601C84.7428,-116.8021 115.9234,-67.2743 156,-39.5 160.9195,-36.0906 166.3446,-33.1495 171.9668,-30.6155"/>
<polygon fill="#191970" stroke="#191970" points="66.5012,-142.4325 64.8288,-152.8945 72.6604,-145.7589 66.5012,-142.4325"/>
</g>
<!-- Node5 -->
<g id="node5" class="node">
<title>Node5</title>
<g id="a_node5"><a xlink:href="classhandy_1_1HSHAU.html#add75bf71d827efb6fcb02ced26d44a07" target="_top" xlink:title="析构函数，停止线程池 ">
<polygon fill="#ffffff" stroke="#000000" points="345,-197 345,-216 478,-216 478,-197 345,-197"/>
<text text-anchor="middle" x="411.5" y="-204" font-family="Helvetica,sans-Serif" font-size="10.00" fill="#000000">handy::HSHAU::~HSHAU</text>
</a>
</g>
</g>
<!-- Node4&#45;&gt;Node5 -->
<g id="edge4" class="edge">
<title>Node4&#45;&gt;Node5</title>
<path fill="none" stroke="#191970" d="M296.3546,-206.5C312.0862,-206.5 328.9722,-206.5 344.8331,-206.5"/>
<polygon fill="#191970" stroke="#191970" points="296.2059,-203.0001 286.2059,-206.5 296.2059,-210.0001 296.2059,-203.0001"/>
</g>
<!-- Node7 -->
<g id="node7" class="node">
<title>Node7</title>
<g id="a_node7"><a xlink:href="namespacehandy_1_1threadsTest.html#af3efd1ba4edce828298b3cc7e46be9d0" target="_top" xlink:title="handy::threadsTest\l::runAllTests">
<polygon fill="#ffffff" stroke="#000000" points="361.5,-74.5 361.5,-104.5 461.5,-104.5 461.5,-74.5 361.5,-74.5"/>
<text text-anchor="start" x="369.5" y="-92.5" font-family="Helvetica,sans-Serif" font-size="10.00" fill="#000000">handy::threadsTest</text>
<text text-anchor="middle" x="411.5" y="-81.5" font-family="Helvetica,sans-Serif" font-size="10.00" fill="#000000">::runAllTests</text>
</a>
</g>
</g>
<!-- Node6&#45;&gt;Node7 -->
<g id="edge6" class="edge">
<title>Node6&#45;&gt;Node7</title>
<path fill="none" stroke="#191970" d="M293.4285,-144.2512C298.7286,-142.4027 303.981,-140.4754 309,-138.5 334.5114,-128.459 362.5376,-114.876 382.8265,-104.5576"/>
<polygon fill="#191970" stroke="#191970" points="292.2254,-140.9633 283.8769,-147.4867 294.4712,-147.5933 292.2254,-140.9633"/>
</g>
<!-- Node8 -->
<g id="node8" class="node">
<title>Node8</title>
<g id="a_node8"><a xlink:href="thread__pool__test_8cpp.html#ae66f6b31b5ad750f1fe042a706a4e3d4" target="_top" xlink:title="main">
<polygon fill="#ffffff" stroke="#000000" points="514,-80 514,-99 552,-99 552,-80 514,-80"/>
<text text-anchor="middle" x="533" y="-87" font-family="Helvetica,sans-Serif" font-size="10.00" fill="#000000">main</text>
</a>
</g>
</g>
<!-- Node7&#45;&gt;Node8 -->
<g id="edge7" class="edge">
<title>Node7&#45;&gt;Node8</title>
<path fill="none" stroke="#191970" d="M471.6467,-89.5C486.9781,-89.5 502.3607,-89.5 513.8882,-89.5"/>
<polygon fill="#191970" stroke="#191970" points="471.6202,-86.0001 461.6202,-89.5 471.6201,-93.0001 471.6202,-86.0001"/>
</g>
<!-- Node9&#45;&gt;Node7 -->
<g id="edge9" class="edge">
<title>Node9&#45;&gt;Node7</title>
<path fill="none" stroke="#191970" d="M311.1445,-102.9555C328.1811,-100.6713 345.7503,-98.3156 361.3335,-96.2262"/>
<polygon fill="#191970" stroke="#191970" points="310.6403,-99.4917 301.1941,-104.2896 311.5706,-106.4296 310.6403,-99.4917"/>
</g>
<!-- Node10&#45;&gt;Node7 -->
<g id="edge11" class="edge">
<title>Node10&#45;&gt;Node7</title>
<path fill="none" stroke="#191970" d="M308.2791,-75.0837C326.1869,-77.5848 344.8454,-80.1907 361.2944,-82.488"/>
<polygon fill="#191970" stroke="#191970" points="308.5246,-71.5841 298.1366,-73.6671 307.5563,-78.5168 308.5246,-71.5841"/>
</g>
<!-- Node11&#45;&gt;Node7 -->
<g id="edge13" class="edge">
<title>Node11&#45;&gt;Node7</title>
<path fill="none" stroke="#191970" d="M294.0923,-33.9333C299.1689,-35.7218 304.1929,-37.586 309,-39.5 334.753,-49.7539 362.9935,-63.7462 383.2989,-74.3214"/>
<polygon fill="#191970" stroke="#191970" points="294.9027,-30.5117 284.3082,-30.5941 292.6417,-37.1365 294.9027,-30.5117"/>
</g>
</g>
</svg>
