<?xml version="1.0" encoding="UTF-8" standalone="no"?>
<!DOCTYPE svg PUBLIC "-//W3C//DTD SVG 1.1//EN"
 "http://www.w3.org/Graphics/SVG/1.1/DTD/svg11.dtd">
<!-- Generated by graphviz version 2.40.1 (0)
 -->
<!-- Title: handy::Slice::Slice Pages: 1 -->
<svg width="1011pt" height="162pt"
 viewBox="0.00 0.00 1011.00 161.87" xmlns="http://www.w3.org/2000/svg" xmlns:xlink="http://www.w3.org/1999/xlink">
<g id="graph0" class="graph" transform="scale(1 1) rotate(0) translate(4 157.874)">
<title>handy::Slice::Slice</title>
<polygon fill="#ffffff" stroke="transparent" points="-4,4 -4,-157.874 1007,-157.874 1007,4 -4,4"/>
<!-- Node1 -->
<g id="node1" class="node">
<title>Node1</title>
<polygon fill="#bfbfbf" stroke="#000000" points="0,-76.5 0,-95.5 98,-95.5 98,-76.5 0,-76.5"/>
<text text-anchor="middle" x="49" y="-83.5" font-family="Helvetica,sans-Serif" font-size="10.00" fill="#000000">handy::Slice::Slice</text>
</g>
<!-- Node2 -->
<g id="node2" class="node">
<title>Node2</title>
<g id="a_node2"><a xlink:href="classhandy_1_1Slice.html#a0570587beb57c84ab21c74015c299443" target="_top" xlink:title="吞噬一个单词（跳过前导空白，直到下一个空白) ">
<polygon fill="#ffffff" stroke="#000000" points="309,-119.5 309,-138.5 422,-138.5 422,-119.5 309,-119.5"/>
<text text-anchor="middle" x="365.5" y="-126.5" font-family="Helvetica,sans-Serif" font-size="10.00" fill="#000000">handy::Slice::eatWord</text>
</a>
</g>
</g>
<!-- Node1&#45;&gt;Node2 -->
<g id="edge1" class="edge">
<title>Node1&#45;&gt;Node2</title>
<path fill="none" stroke="#191970" d="M66.4879,-102.3373C82.6177,-116.2033 107.9446,-135.0725 134,-143 201.219,-163.4517 284.3623,-149.5171 330.4884,-138.5719"/>
<polygon fill="#191970" stroke="#191970" points="68.7363,-99.6531 58.9363,-95.6268 64.0865,-104.8856 68.7363,-99.6531"/>
</g>
<!-- Node8 -->
<g id="node8" class="node">
<title>Node8</title>
<g id="a_node8"><a xlink:href="classhandy_1_1Slice.html#a8d8fabf867b1d5c94f33dd1d1481da7f" target="_top" xlink:title="吞噬一行（直到 或 ，兼容 Windows/Linux 换行） ">
<polygon fill="#ffffff" stroke="#000000" points="142,-76.5 142,-95.5 250,-95.5 250,-76.5 142,-76.5"/>
<text text-anchor="middle" x="196" y="-83.5" font-family="Helvetica,sans-Serif" font-size="10.00" fill="#000000">handy::Slice::eatLine</text>
</a>
</g>
</g>
<!-- Node1&#45;&gt;Node8 -->
<g id="edge8" class="edge">
<title>Node1&#45;&gt;Node8</title>
<path fill="none" stroke="#191970" d="M108.3969,-86C119.4981,-86 131.0454,-86 141.9736,-86"/>
<polygon fill="#191970" stroke="#191970" points="108.3578,-82.5001 98.3578,-86 108.3578,-89.5001 108.3578,-82.5001"/>
</g>
<!-- Node10 -->
<g id="node10" class="node">
<title>Node10</title>
<g id="a_node10"><a xlink:href="classhandy_1_1Slice.html#acab150e3649842deedd9bdd86592ba51" target="_top" xlink:title="吞噬直到终止符号出现(终止符号也会被吞噬) ">
<polygon fill="#ffffff" stroke="#000000" points="141,-114.5 141,-133.5 251,-133.5 251,-114.5 141,-114.5"/>
<text text-anchor="middle" x="196" y="-121.5" font-family="Helvetica,sans-Serif" font-size="10.00" fill="#000000">handy::Slice::eatUntil</text>
</a>
</g>
</g>
<!-- Node1&#45;&gt;Node10 -->
<g id="edge12" class="edge">
<title>Node1&#45;&gt;Node10</title>
<path fill="none" stroke="#191970" d="M95.8548,-98.1121C116.3276,-103.4044 139.9903,-109.5213 159.1724,-114.4799"/>
<polygon fill="#191970" stroke="#191970" points="96.652,-94.7032 86.0943,-95.589 94.9001,-101.4805 96.652,-94.7032"/>
</g>
<!-- Node11 -->
<g id="node11" class="node">
<title>Node11</title>
<g id="a_node11"><a xlink:href="classhandy_1_1Slice.html#a026c61a30fbf8675933fb9a6bfb56530" target="_top" xlink:title="获取子视图（支持负偏移） ">
<polygon fill="#ffffff" stroke="#000000" points="150,-38.5 150,-57.5 242,-57.5 242,-38.5 150,-38.5"/>
<text text-anchor="middle" x="196" y="-45.5" font-family="Helvetica,sans-Serif" font-size="10.00" fill="#000000">handy::Slice::sub</text>
</a>
</g>
</g>
<!-- Node1&#45;&gt;Node11 -->
<g id="edge14" class="edge">
<title>Node1&#45;&gt;Node11</title>
<path fill="none" stroke="#191970" d="M95.8548,-73.8879C116.3276,-68.5956 139.9903,-62.4787 159.1724,-57.5201"/>
<polygon fill="#191970" stroke="#191970" points="94.9001,-70.5195 86.0943,-76.411 96.652,-77.2968 94.9001,-70.5195"/>
</g>
<!-- Node12 -->
<g id="node12" class="node">
<title>Node12</title>
<g id="a_node12"><a xlink:href="classhandy_1_1Slice.html#af45f20d3303966c98501cbbc7f17eeef" target="_top" xlink:title="线程安全的Slice构造（多线程创建时避免空指针竞争） ">
<polygon fill="#ffffff" stroke="#000000" points="134,-.5 134,-19.5 258,-19.5 258,-.5 134,-.5"/>
<text text-anchor="middle" x="196" y="-7.5" font-family="Helvetica,sans-Serif" font-size="10.00" fill="#000000">handy::Slice::createSafe</text>
</a>
</g>
</g>
<!-- Node1&#45;&gt;Node12 -->
<g id="edge17" class="edge">
<title>Node1&#45;&gt;Node12</title>
<path fill="none" stroke="#191970" d="M69.3426,-69.8534C85.951,-57.3056 110.4443,-40.206 134,-29 141.7263,-25.3244 150.3295,-22.1566 158.6079,-19.5191"/>
<polygon fill="#191970" stroke="#191970" points="66.7713,-67.4159 60.983,-76.2898 71.0418,-72.9624 66.7713,-67.4159"/>
</g>
<!-- Node3 -->
<g id="node3" class="node">
<title>Node3</title>
<g id="a_node3"><a xlink:href="classhandy_1_1HttpRequest.html#a8c651a6b85e5bb2846a241a451f76add" target="_top" xlink:title="从缓冲区解码请求 ">
<polygon fill="#ffffff" stroke="#000000" points="477,-65 477,-95 581,-95 581,-65 477,-65"/>
<text text-anchor="start" x="485" y="-83" font-family="Helvetica,sans-Serif" font-size="10.00" fill="#000000">handy::HttpRequest</text>
<text text-anchor="middle" x="529" y="-72" font-family="Helvetica,sans-Serif" font-size="10.00" fill="#000000">::tryDecode</text>
</a>
</g>
</g>
<!-- Node2&#45;&gt;Node3 -->
<g id="edge2" class="edge">
<title>Node2&#45;&gt;Node3</title>
<path fill="none" stroke="#191970" d="M407.0559,-116.5459C428.8954,-110.0008 455.8298,-101.9287 478.8256,-95.037"/>
<polygon fill="#191970" stroke="#191970" points="405.9869,-113.2124 397.4126,-119.436 407.9965,-119.9178 405.9869,-113.2124"/>
</g>
<!-- Node7 -->
<g id="node7" class="node">
<title>Node7</title>
<g id="a_node7"><a xlink:href="classhandy_1_1HttpResponse.html#aff04a28503872c7f918d17fcc36835fe" target="_top" xlink:title="从缓冲区解码响应 ">
<polygon fill="#ffffff" stroke="#000000" points="473,-114 473,-144 585,-144 585,-114 473,-114"/>
<text text-anchor="start" x="481" y="-132" font-family="Helvetica,sans-Serif" font-size="10.00" fill="#000000">handy::HttpResponse</text>
<text text-anchor="middle" x="529" y="-121" font-family="Helvetica,sans-Serif" font-size="10.00" fill="#000000">::tryDecode</text>
</a>
</g>
</g>
<!-- Node2&#45;&gt;Node7 -->
<g id="edge6" class="edge">
<title>Node2&#45;&gt;Node7</title>
<path fill="none" stroke="#191970" d="M432.3889,-129C445.8545,-129 459.8768,-129 472.9274,-129"/>
<polygon fill="#191970" stroke="#191970" points="432.2255,-125.5001 422.2255,-129 432.2255,-132.5001 432.2255,-125.5001"/>
</g>
<!-- Node4 -->
<g id="node4" class="node">
<title>Node4</title>
<g id="a_node4"><a xlink:href="classhandy_1_1HttpConnPtr.html#a1c2c0b1fbe5a35f94ae9d898ac57551b" target="_top" xlink:title="底层TCP连接 ">
<polygon fill="#ffffff" stroke="#000000" points="621,-89 621,-119 725,-119 725,-89 621,-89"/>
<text text-anchor="start" x="629" y="-107" font-family="Helvetica,sans-Serif" font-size="10.00" fill="#000000">handy::HttpConnPtr</text>
<text text-anchor="middle" x="673" y="-96" font-family="Helvetica,sans-Serif" font-size="10.00" fill="#000000">::handleRead</text>
</a>
</g>
</g>
<!-- Node3&#45;&gt;Node4 -->
<g id="edge3" class="edge">
<title>Node3&#45;&gt;Node4</title>
<path fill="none" stroke="#191970" d="M591.4953,-90.4159C601.3009,-92.0501 611.3458,-93.7243 620.8855,-95.3142"/>
<polygon fill="#191970" stroke="#191970" points="591.834,-86.9241 581.3947,-88.7324 590.6832,-93.8289 591.834,-86.9241"/>
</g>
<!-- Node5 -->
<g id="node5" class="node">
<title>Node5</title>
<g id="a_node5"><a xlink:href="classhandy_1_1HttpConnPtr.html#a0b2ff11dafbd36c86ce8e6a035a95d4b" target="_top" xlink:title="注册HTTP消息处理回调 ">
<polygon fill="#ffffff" stroke="#000000" points="761,-89 761,-119 865,-119 865,-89 761,-89"/>
<text text-anchor="start" x="769" y="-107" font-family="Helvetica,sans-Serif" font-size="10.00" fill="#000000">handy::HttpConnPtr</text>
<text text-anchor="middle" x="813" y="-96" font-family="Helvetica,sans-Serif" font-size="10.00" fill="#000000">::onHttpMsg</text>
</a>
</g>
</g>
<!-- Node4&#45;&gt;Node5 -->
<g id="edge4" class="edge">
<title>Node4&#45;&gt;Node5</title>
<path fill="none" stroke="#191970" d="M735.3869,-104C743.8847,-104 752.5339,-104 760.8256,-104"/>
<polygon fill="#191970" stroke="#191970" points="735.1309,-100.5001 725.1308,-104 735.1308,-107.5001 735.1309,-100.5001"/>
</g>
<!-- Node6 -->
<g id="node6" class="node">
<title>Node6</title>
<g id="a_node6"><a xlink:href="classhandy_1_1HttpServer.html#af36412871ad23228ad2ba124b4526690" target="_top" xlink:title="构造函数 ">
<polygon fill="#ffffff" stroke="#000000" points="901,-89 901,-119 1003,-119 1003,-89 901,-89"/>
<text text-anchor="start" x="909" y="-107" font-family="Helvetica,sans-Serif" font-size="10.00" fill="#000000">handy::HttpServer::</text>
<text text-anchor="middle" x="952" y="-96" font-family="Helvetica,sans-Serif" font-size="10.00" fill="#000000">HttpServer</text>
</a>
</g>
</g>
<!-- Node5&#45;&gt;Node6 -->
<g id="edge5" class="edge">
<title>Node5&#45;&gt;Node6</title>
<path fill="none" stroke="#191970" d="M875.168,-104C883.7854,-104 892.5548,-104 900.9384,-104"/>
<polygon fill="#191970" stroke="#191970" points="875.154,-100.5001 865.1539,-104 875.1539,-107.5001 875.154,-100.5001"/>
</g>
<!-- Node7&#45;&gt;Node4 -->
<g id="edge7" class="edge">
<title>Node7&#45;&gt;Node4</title>
<path fill="none" stroke="#191970" d="M595.0584,-117.5315C603.622,-116.0448 612.2986,-114.5384 620.599,-113.0974"/>
<polygon fill="#191970" stroke="#191970" points="594.3404,-114.1037 585.0865,-119.2628 595.5378,-121.0006 594.3404,-114.1037"/>
</g>
<!-- Node9 -->
<g id="node9" class="node">
<title>Node9</title>
<g id="a_node9"><a xlink:href="classhandy_1_1HttpMsg.html#a035dca54b0b58b34ba00876b3db36f59" target="_top" xlink:title="已解析的字节数 ">
<polygon fill="#ffffff" stroke="#000000" points="294,-76.5 294,-95.5 437,-95.5 437,-76.5 294,-76.5"/>
<text text-anchor="middle" x="365.5" y="-83.5" font-family="Helvetica,sans-Serif" font-size="10.00" fill="#000000">handy::HttpMsg::_tryDecode</text>
</a>
</g>
</g>
<!-- Node8&#45;&gt;Node9 -->
<g id="edge9" class="edge">
<title>Node8&#45;&gt;Node9</title>
<path fill="none" stroke="#191970" d="M260.433,-86C271.3947,-86 282.8383,-86 293.9699,-86"/>
<polygon fill="#191970" stroke="#191970" points="260.0969,-82.5001 250.0969,-86 260.0969,-89.5001 260.0969,-82.5001"/>
</g>
<!-- Node9&#45;&gt;Node3 -->
<g id="edge10" class="edge">
<title>Node9&#45;&gt;Node3</title>
<path fill="none" stroke="#191970" d="M447.2977,-82.9982C457.4045,-82.6274 467.5103,-82.2565 476.9973,-81.9084"/>
<polygon fill="#191970" stroke="#191970" points="447.0784,-79.5038 437.2135,-83.3683 447.3351,-86.4991 447.0784,-79.5038"/>
</g>
<!-- Node9&#45;&gt;Node7 -->
<g id="edge11" class="edge">
<title>Node9&#45;&gt;Node7</title>
<path fill="none" stroke="#191970" d="M411.7038,-98.1515C430.7305,-103.1554 452.9474,-108.9984 472.897,-114.2451"/>
<polygon fill="#191970" stroke="#191970" points="412.3473,-94.7017 401.7859,-95.5431 410.5668,-101.4715 412.3473,-94.7017"/>
</g>
<!-- Node10&#45;&gt;Node9 -->
<g id="edge13" class="edge">
<title>Node10&#45;&gt;Node9</title>
<path fill="none" stroke="#191970" d="M248.7425,-112.1757C272.639,-106.8184 300.5152,-100.5689 323.0356,-95.5201"/>
<polygon fill="#191970" stroke="#191970" points="247.7641,-108.8081 238.772,-114.411 249.2955,-115.6386 247.7641,-108.8081"/>
</g>
<!-- Node11&#45;&gt;Node3 -->
<g id="edge16" class="edge">
<title>Node11&#45;&gt;Node3</title>
<path fill="none" stroke="#191970" d="M252.3433,-51.4554C301.244,-54.6899 373.9038,-60.0616 437,-67 449.8274,-68.4106 463.622,-70.2091 476.5267,-72.0153"/>
<polygon fill="#191970" stroke="#191970" points="252.488,-47.9575 242.281,-50.7978 252.0315,-54.9426 252.488,-47.9575"/>
</g>
<!-- Node11&#45;&gt;Node9 -->
<g id="edge15" class="edge">
<title>Node11&#45;&gt;Node9</title>
<path fill="none" stroke="#191970" d="M248.7425,-59.8243C272.639,-65.1816 300.5152,-71.4311 323.0356,-76.4799"/>
<polygon fill="#191970" stroke="#191970" points="249.2955,-56.3614 238.772,-57.589 247.7641,-63.1919 249.2955,-56.3614"/>
</g>
</g>
</svg>
