<?xml version="1.0" encoding="UTF-8" standalone="no"?>
<!DOCTYPE svg PUBLIC "-//W3C//DTD SVG 1.1//EN"
 "http://www.w3.org/Graphics/SVG/1.1/DTD/svg11.dtd">
<!-- Generated by graphviz version 2.40.1 (0)
 -->
<!-- Title: handy::Logger::getCurrentTimeStamp Pages: 1 -->
<svg width="469pt" height="78pt"
 viewBox="0.00 0.00 469.00 77.50" xmlns="http://www.w3.org/2000/svg" xmlns:xlink="http://www.w3.org/1999/xlink">
<g id="graph0" class="graph" transform="scale(1 1) rotate(0) translate(4 73.5)">
<title>handy::Logger::getCurrentTimeStamp</title>
<polygon fill="#ffffff" stroke="transparent" points="-4,4 -4,-73.5 465,-73.5 465,4 -4,4"/>
<!-- Node1 -->
<g id="node1" class="node">
<title>Node1</title>
<polygon fill="#bfbfbf" stroke="#000000" points="0,-22.5 0,-52.5 130,-52.5 130,-22.5 0,-22.5"/>
<text text-anchor="start" x="8" y="-40.5" font-family="Helvetica,sans-Serif" font-size="10.00" fill="#000000">handy::Logger::getCurrent</text>
<text text-anchor="middle" x="65" y="-29.5" font-family="Helvetica,sans-Serif" font-size="10.00" fill="#000000">TimeStamp</text>
</g>
<!-- Node2 -->
<g id="node2" class="node">
<title>Node2</title>
<g id="a_node2"><a xlink:href="classhandy_1_1Logger.html#ad096978e08b310f1456742540e746893" target="_top" xlink:title="设置日志文件名称 ">
<polygon fill="#ffffff" stroke="#000000" points="167,-50 167,-69 322,-69 322,-50 167,-50"/>
<text text-anchor="middle" x="244.5" y="-57" font-family="Helvetica,sans-Serif" font-size="10.00" fill="#000000">handy::Logger::setLogFileName</text>
</a>
</g>
</g>
<!-- Node1&#45;&gt;Node2 -->
<g id="edge1" class="edge">
<title>Node1&#45;&gt;Node2</title>
<path fill="none" stroke="#191970" d="M140.2605,-46.7241C149.0442,-47.8007 158.0181,-48.9005 166.8336,-49.981"/>
<polygon fill="#191970" stroke="#191970" points="140.409,-43.2162 130.0574,-45.4736 139.5573,-50.1642 140.409,-43.2162"/>
</g>
<!-- Node3 -->
<g id="node3" class="node">
<title>Node3</title>
<g id="a_node3"><a xlink:href="classhandy_1_1Logger.html#a434ac0f25b7add4d9276da50167e2117" target="_top" xlink:title="检查并进行日志轮转 ">
<polygon fill="#ffffff" stroke="#000000" points="166,-.5 166,-30.5 323,-30.5 323,-.5 166,-.5"/>
<text text-anchor="start" x="174" y="-18.5" font-family="Helvetica,sans-Serif" font-size="10.00" fill="#000000">handy::Logger::checkAndRotate</text>
<text text-anchor="middle" x="244.5" y="-7.5" font-family="Helvetica,sans-Serif" font-size="10.00" fill="#000000">LogFile</text>
</a>
</g>
</g>
<!-- Node1&#45;&gt;Node3 -->
<g id="edge2" class="edge">
<title>Node1&#45;&gt;Node3</title>
<path fill="none" stroke="#191970" d="M140.0006,-28.3077C148.5592,-27.2588 157.3017,-26.1873 165.9054,-25.1328"/>
<polygon fill="#191970" stroke="#191970" points="139.5573,-24.8358 130.0574,-29.5264 140.409,-31.7838 139.5573,-24.8358"/>
</g>
<!-- Node4 -->
<g id="node4" class="node">
<title>Node4</title>
<g id="a_node4"><a xlink:href="classhandy_1_1Logger.html#a6d61757bf1d37101021e3bdc63e78c6d" target="_top" xlink:title="日志记录函数 ">
<polygon fill="#ffffff" stroke="#000000" points="359,-6 359,-25 461,-25 461,-6 359,-6"/>
<text text-anchor="middle" x="410" y="-13" font-family="Helvetica,sans-Serif" font-size="10.00" fill="#000000">handy::Logger::logv</text>
</a>
</g>
</g>
<!-- Node3&#45;&gt;Node4 -->
<g id="edge3" class="edge">
<title>Node3&#45;&gt;Node4</title>
<path fill="none" stroke="#191970" d="M333.4911,-15.5C342.0945,-15.5 350.6075,-15.5 358.6551,-15.5"/>
<polygon fill="#191970" stroke="#191970" points="333.3724,-12.0001 323.3724,-15.5 333.3723,-19.0001 333.3724,-12.0001"/>
</g>
</g>
</svg>
