<?xml version="1.0" encoding="UTF-8" standalone="no"?>
<!DOCTYPE svg PUBLIC "-//W3C//DTD SVG 1.1//EN"
 "http://www.w3.org/Graphics/SVG/1.1/DTD/svg11.dtd">
<!-- Generated by graphviz version 2.40.1 (0)
 -->
<!-- Title: handy::Channel::~Channel Pages: 1 -->
<svg width="470pt" height="78pt"
 viewBox="0.00 0.00 470.00 77.50" xmlns="http://www.w3.org/2000/svg" xmlns:xlink="http://www.w3.org/1999/xlink">
<g id="graph0" class="graph" transform="scale(1 1) rotate(0) translate(4 73.5)">
<title>handy::Channel::~Channel</title>
<polygon fill="#ffffff" stroke="transparent" points="-4,4 -4,-73.5 466,-73.5 466,4 -4,4"/>
<!-- Node1 -->
<g id="node1" class="node">
<title>Node1</title>
<polygon fill="#bfbfbf" stroke="#000000" points="0,-22.5 0,-41.5 133,-41.5 133,-22.5 0,-22.5"/>
<text text-anchor="middle" x="66.5" y="-29.5" font-family="Helvetica,sans-Serif" font-size="10.00" fill="#000000">handy::Channel::~Channel</text>
</g>
<!-- Node2 -->
<g id="node2" class="node">
<title>Node2</title>
<g id="a_node2"><a xlink:href="classhandy_1_1Channel.html#a16bfdb9fd8be1db78f17777fb59ebe85" target="_top" xlink:title="关闭通道（关闭fd并从poller中删除） ">
<polygon fill="#ffffff" stroke="#000000" points="169,-22.5 169,-41.5 283,-41.5 283,-22.5 169,-22.5"/>
<text text-anchor="middle" x="226" y="-29.5" font-family="Helvetica,sans-Serif" font-size="10.00" fill="#000000">handy::Channel::close</text>
</a>
</g>
</g>
<!-- Node1&#45;&gt;Node2 -->
<g id="edge1" class="edge">
<title>Node1&#45;&gt;Node2</title>
<path fill="none" stroke="#191970" d="M133.2182,-32C141.5933,-32 150.1656,-32 158.5519,-32"/>
<polygon fill="#191970" stroke="#191970" points="158.6633,-35.5001 168.6633,-32 158.6633,-28.5001 158.6633,-35.5001"/>
</g>
<!-- Node3 -->
<g id="node3" class="node">
<title>Node3</title>
<g id="a_node3"><a xlink:href="classhandy_1_1PollerBase.html#a160f912c38d27a373c45e3c43cc56775" target="_top" xlink:title="从轮询器中移除事件通道 ">
<polygon fill="#ffffff" stroke="#000000" points="339.5,-39 339.5,-69 441.5,-69 441.5,-39 339.5,-39"/>
<text text-anchor="start" x="347.5" y="-57" font-family="Helvetica,sans-Serif" font-size="10.00" fill="#000000">handy::PollerBase::</text>
<text text-anchor="middle" x="390.5" y="-46" font-family="Helvetica,sans-Serif" font-size="10.00" fill="#000000">removeChannel</text>
</a>
</g>
</g>
<!-- Node2&#45;&gt;Node3 -->
<g id="edge2" class="edge">
<title>Node2&#45;&gt;Node3</title>
<path fill="none" stroke="#191970" d="M283.0725,-39.6328C297.9256,-41.6192 313.9911,-43.7678 329.0592,-45.783"/>
<polygon fill="#191970" stroke="#191970" points="328.9288,-49.2966 339.3046,-47.1532 329.8568,-42.3584 328.9288,-49.2966"/>
</g>
<!-- Node4 -->
<g id="node4" class="node">
<title>Node4</title>
<g id="a_node4"><a xlink:href="classhandy_1_1Channel.html#ac0037b2a0578f2445f08f9084ad5acfa" target="_top" xlink:title="处理读事件（调用注册的读事件回调函数） ">
<polygon fill="#ffffff" stroke="#000000" points="319,-.5 319,-19.5 462,-19.5 462,-.5 319,-.5"/>
<text text-anchor="middle" x="390.5" y="-7.5" font-family="Helvetica,sans-Serif" font-size="10.00" fill="#000000">handy::Channel::handleRead</text>
</a>
</g>
</g>
<!-- Node2&#45;&gt;Node4 -->
<g id="edge3" class="edge">
<title>Node2&#45;&gt;Node4</title>
<path fill="none" stroke="#191970" d="M283.0725,-24.3672C291.5676,-23.2311 300.4594,-22.0419 309.3343,-20.855"/>
<polygon fill="#191970" stroke="#191970" points="309.8774,-24.3136 319.3252,-19.5188 308.9495,-17.3754 309.8774,-24.3136"/>
</g>
</g>
</svg>
