<?xml version="1.0" encoding="UTF-8" standalone="no"?>
<!DOCTYPE svg PUBLIC "-//W3C//DTD SVG 1.1//EN"
 "http://www.w3.org/Graphics/SVG/1.1/DTD/svg11.dtd">
<!-- Generated by graphviz version 2.40.1 (0)
 -->
<!-- Title: handy::TcpServer::_handleAccept Pages: 1 -->
<svg width="415pt" height="39pt"
 viewBox="0.00 0.00 415.00 39.00" xmlns="http://www.w3.org/2000/svg" xmlns:xlink="http://www.w3.org/1999/xlink">
<g id="graph0" class="graph" transform="scale(1 1) rotate(0) translate(4 35)">
<title>handy::TcpServer::_handleAccept</title>
<polygon fill="#ffffff" stroke="transparent" points="-4,4 -4,-35 411,-35 411,4 -4,4"/>
<!-- Node1 -->
<g id="node1" class="node">
<title>Node1</title>
<polygon fill="#bfbfbf" stroke="#000000" points="0,-.5 0,-30.5 99,-30.5 99,-.5 0,-.5"/>
<text text-anchor="start" x="8" y="-18.5" font-family="Helvetica,sans-Serif" font-size="10.00" fill="#000000">handy::TcpServer::</text>
<text text-anchor="middle" x="49.5" y="-7.5" font-family="Helvetica,sans-Serif" font-size="10.00" fill="#000000">_handleAccept</text>
</g>
<!-- Node2 -->
<g id="node2" class="node">
<title>Node2</title>
<g id="a_node2"><a xlink:href="classhandy_1_1TcpServer.html#a373e76987f525973c65e2cab025522cc" target="_top" xlink:title="绑定到指定的主机和端口 ">
<polygon fill="#ffffff" stroke="#000000" points="135,-6 135,-25 252,-25 252,-6 135,-6"/>
<text text-anchor="middle" x="193.5" y="-13" font-family="Helvetica,sans-Serif" font-size="10.00" fill="#000000">handy::TcpServer::bind</text>
</a>
</g>
</g>
<!-- Node1&#45;&gt;Node2 -->
<g id="edge1" class="edge">
<title>Node1&#45;&gt;Node2</title>
<path fill="none" stroke="#191970" d="M109.2566,-15.5C117.7407,-15.5 126.4585,-15.5 134.92,-15.5"/>
<polygon fill="#191970" stroke="#191970" points="109.0567,-12.0001 99.0566,-15.5 109.0566,-19.0001 109.0567,-12.0001"/>
</g>
<!-- Node3 -->
<g id="node3" class="node">
<title>Node3</title>
<g id="a_node3"><a xlink:href="classhandy_1_1StatServer.html#a85d041b9ba9b52ff1ec223777d84c744" target="_top" xlink:title="将服务器绑定到指定的主机和端口 ">
<polygon fill="#ffffff" stroke="#000000" points="288,-6 288,-25 407,-25 407,-6 288,-6"/>
<text text-anchor="middle" x="347.5" y="-13" font-family="Helvetica,sans-Serif" font-size="10.00" fill="#000000">handy::StatServer::bind</text>
</a>
</g>
</g>
<!-- Node2&#45;&gt;Node3 -->
<g id="edge2" class="edge">
<title>Node2&#45;&gt;Node3</title>
<path fill="none" stroke="#191970" d="M262.1743,-15.5C270.7821,-15.5 279.5304,-15.5 287.982,-15.5"/>
<polygon fill="#191970" stroke="#191970" points="262.1601,-12.0001 252.1601,-15.5 262.1601,-19.0001 262.1601,-12.0001"/>
</g>
</g>
</svg>
