<?xml version="1.0" encoding="UTF-8" standalone="no"?>
<!DOCTYPE svg PUBLIC "-//W3C//DTD SVG 1.1//EN"
 "http://www.w3.org/Graphics/SVG/1.1/DTD/svg11.dtd">
<!-- Generated by graphviz version 2.40.1 (0)
 -->
<!-- Title: handy::Status::copyState Pages: 1 -->
<svg width="297pt" height="66pt"
 viewBox="0.00 0.00 297.00 66.00" xmlns="http://www.w3.org/2000/svg" xmlns:xlink="http://www.w3.org/1999/xlink">
<g id="graph0" class="graph" transform="scale(1 1) rotate(0) translate(4 62)">
<title>handy::Status::copyState</title>
<polygon fill="#ffffff" stroke="transparent" points="-4,4 -4,-62 293,-62 293,4 -4,4"/>
<!-- Node1 -->
<g id="node1" class="node">
<title>Node1</title>
<polygon fill="#bfbfbf" stroke="#000000" points="0,-19.5 0,-38.5 128,-38.5 128,-19.5 0,-19.5"/>
<text text-anchor="middle" x="64" y="-26.5" font-family="Helvetica,sans-Serif" font-size="10.00" fill="#000000">handy::Status::copyState</text>
</g>
<!-- Node2 -->
<g id="node2" class="node">
<title>Node2</title>
<g id="a_node2"><a xlink:href="classhandy_1_1Status.html#ad58cb1de007e27b9df16d4206e70987e" target="_top" xlink:title="拷贝构造函数 ">
<polygon fill="#ffffff" stroke="#000000" points="170.5,-38.5 170.5,-57.5 282.5,-57.5 282.5,-38.5 170.5,-38.5"/>
<text text-anchor="middle" x="226.5" y="-45.5" font-family="Helvetica,sans-Serif" font-size="10.00" fill="#000000">handy::Status::Status</text>
</a>
</g>
</g>
<!-- Node1&#45;&gt;Node2 -->
<g id="edge1" class="edge">
<title>Node1&#45;&gt;Node2</title>
<path fill="none" stroke="#191970" d="M138.4422,-37.704C149.1764,-38.9591 160.0701,-40.2328 170.367,-41.4368"/>
<polygon fill="#191970" stroke="#191970" points="138.5631,-34.1944 128.2243,-36.5093 137.7501,-41.147 138.5631,-34.1944"/>
</g>
<!-- Node3 -->
<g id="node3" class="node">
<title>Node3</title>
<g id="a_node3"><a xlink:href="classhandy_1_1Status.html#ab5b0a6e7c16bbdeab8ab64414870104e" target="_top" xlink:title="拷贝赋值运算符 ">
<polygon fill="#ffffff" stroke="#000000" points="164,-.5 164,-19.5 289,-19.5 289,-.5 164,-.5"/>
<text text-anchor="middle" x="226.5" y="-7.5" font-family="Helvetica,sans-Serif" font-size="10.00" fill="#000000">handy::Status::operator=</text>
</a>
</g>
</g>
<!-- Node1&#45;&gt;Node3 -->
<g id="edge2" class="edge">
<title>Node1&#45;&gt;Node3</title>
<path fill="none" stroke="#191970" d="M138.1991,-20.3244C146.7568,-19.3238 155.4197,-18.3109 163.804,-17.3306"/>
<polygon fill="#191970" stroke="#191970" points="137.7501,-16.853 128.2243,-21.4907 138.5631,-23.8056 137.7501,-16.853"/>
</g>
</g>
</svg>
