<?xml version="1.0" encoding="UTF-8" standalone="no"?>
<!DOCTYPE svg PUBLIC "-//W3C//DTD SVG 1.1//EN"
 "http://www.w3.org/Graphics/SVG/1.1/DTD/svg11.dtd">
<!-- Generated by graphviz version 2.40.1 (0)
 -->
<!-- Title: handy::Status::toString Pages: 1 -->
<svg width="659pt" height="137pt"
 viewBox="0.00 0.00 659.00 137.00" xmlns="http://www.w3.org/2000/svg" xmlns:xlink="http://www.w3.org/1999/xlink">
<g id="graph0" class="graph" transform="scale(1 1) rotate(0) translate(4 133)">
<title>handy::Status::toString</title>
<polygon fill="#ffffff" stroke="transparent" points="-4,4 -4,-133 655,-133 655,4 -4,4"/>
<!-- Node1 -->
<g id="node1" class="node">
<title>Node1</title>
<polygon fill="#bfbfbf" stroke="#000000" points="0,-30 0,-49 117,-49 117,-30 0,-30"/>
<text text-anchor="middle" x="58.5" y="-37" font-family="Helvetica,sans-Serif" font-size="10.00" fill="#000000">handy::Status::toString</text>
</g>
<!-- Node2 -->
<g id="node2" class="node">
<title>Node2</title>
<g id="a_node2"><a xlink:href="classhandy_1_1StatServer.html#a0abb3f277002ee8dbb00bbc78e2abb99" target="_top" xlink:title="注册页面文件（将文件内容作为页面响应） ">
<polygon fill="#ffffff" stroke="#000000" points="153,-49.5 153,-79.5 254,-79.5 254,-49.5 153,-49.5"/>
<text text-anchor="start" x="161" y="-67.5" font-family="Helvetica,sans-Serif" font-size="10.00" fill="#000000">handy::StatServer::</text>
<text text-anchor="middle" x="203.5" y="-56.5" font-family="Helvetica,sans-Serif" font-size="10.00" fill="#000000">onPageFile</text>
</a>
</g>
</g>
<!-- Node1&#45;&gt;Node2 -->
<g id="edge1" class="edge">
<title>Node1&#45;&gt;Node2</title>
<path fill="none" stroke="#191970" d="M123.7586,-50.7515C133.4693,-52.4257 143.3551,-54.1302 152.7097,-55.743"/>
<polygon fill="#191970" stroke="#191970" points="124.1812,-47.2728 113.7319,-49.0227 122.9918,-54.171 124.1812,-47.2728"/>
</g>
<!-- Node7 -->
<g id="node7" class="node">
<title>Node7</title>
<g id="a_node7"><a xlink:href="namespacehandy_1_1statusTest.html#a23edcebac575d8ff54662df7155b5a8a" target="_top" xlink:title="测试Status工具函数（toString等） ">
<polygon fill="#ffffff" stroke="#000000" points="153,-.5 153,-30.5 254,-30.5 254,-.5 153,-.5"/>
<text text-anchor="start" x="161" y="-18.5" font-family="Helvetica,sans-Serif" font-size="10.00" fill="#000000">handy::statusTest::</text>
<text text-anchor="middle" x="203.5" y="-7.5" font-family="Helvetica,sans-Serif" font-size="10.00" fill="#000000">testUtils</text>
</a>
</g>
</g>
<!-- Node1&#45;&gt;Node7 -->
<g id="edge7" class="edge">
<title>Node1&#45;&gt;Node7</title>
<path fill="none" stroke="#191970" d="M126.1699,-28.2995C135.0405,-26.8312 144.0078,-25.347 152.5377,-23.9351"/>
<polygon fill="#191970" stroke="#191970" points="125.5187,-24.8595 116.2245,-29.9456 126.6618,-31.7656 125.5187,-24.8595"/>
</g>
<!-- Node3 -->
<g id="node3" class="node">
<title>Node3</title>
<g id="a_node3"><a xlink:href="namespacehandy_1_1statSvrTest.html#a8923512cf2e34c3894bff312608462d0" target="_top" xlink:title="测试页面回调注册与处理 ">
<polygon fill="#ffffff" stroke="#000000" points="290,-98.5 290,-128.5 442,-128.5 442,-98.5 290,-98.5"/>
<text text-anchor="start" x="298" y="-116.5" font-family="Helvetica,sans-Serif" font-size="10.00" fill="#000000">handy::statSvrTest</text>
<text text-anchor="middle" x="366" y="-105.5" font-family="Helvetica,sans-Serif" font-size="10.00" fill="#000000">::testStatServerPageCallbacks</text>
</a>
</g>
</g>
<!-- Node2&#45;&gt;Node3 -->
<g id="edge2" class="edge">
<title>Node2&#45;&gt;Node3</title>
<path fill="none" stroke="#191970" d="M263.5683,-82.6129C280.8441,-87.8222 299.4933,-93.4457 316.0841,-98.4484"/>
<polygon fill="#191970" stroke="#191970" points="264.166,-79.1375 253.5813,-79.6014 262.145,-85.8395 264.166,-79.1375"/>
</g>
<!-- Node6 -->
<g id="node6" class="node">
<title>Node6</title>
<g id="a_node6"><a xlink:href="namespacehandy_1_1statSvrTest.html#a04884af2631c5060a5a59c875c827cc4" target="_top" xlink:title="测试内容类型设置 ">
<polygon fill="#ffffff" stroke="#000000" points="295.5,-49.5 295.5,-79.5 436.5,-79.5 436.5,-49.5 295.5,-49.5"/>
<text text-anchor="start" x="303.5" y="-67.5" font-family="Helvetica,sans-Serif" font-size="10.00" fill="#000000">handy::statSvrTest</text>
<text text-anchor="middle" x="366" y="-56.5" font-family="Helvetica,sans-Serif" font-size="10.00" fill="#000000">::testStatServerContentType</text>
</a>
</g>
</g>
<!-- Node2&#45;&gt;Node6 -->
<g id="edge5" class="edge">
<title>Node2&#45;&gt;Node6</title>
<path fill="none" stroke="#191970" d="M264.3324,-64.5C274.4057,-64.5 284.9269,-64.5 295.22,-64.5"/>
<polygon fill="#191970" stroke="#191970" points="264.0253,-61.0001 254.0253,-64.5 264.0252,-68.0001 264.0253,-61.0001"/>
</g>
<!-- Node4 -->
<g id="node4" class="node">
<title>Node4</title>
<g id="a_node4"><a xlink:href="namespacehandy_1_1statSvrTest.html#a51d6168c2b8db2fabed82b2a4ebb6bf4" target="_top" xlink:title="handy::statSvrTest\l::runAllTests">
<polygon fill="#ffffff" stroke="#000000" points="478,-73.5 478,-103.5 577,-103.5 577,-73.5 478,-73.5"/>
<text text-anchor="start" x="486" y="-91.5" font-family="Helvetica,sans-Serif" font-size="10.00" fill="#000000">handy::statSvrTest</text>
<text text-anchor="middle" x="527.5" y="-80.5" font-family="Helvetica,sans-Serif" font-size="10.00" fill="#000000">::runAllTests</text>
</a>
</g>
</g>
<!-- Node3&#45;&gt;Node4 -->
<g id="edge3" class="edge">
<title>Node3&#45;&gt;Node4</title>
<path fill="none" stroke="#191970" d="M451.9631,-100.193C460.7576,-98.8316 469.4693,-97.4831 477.6787,-96.2123"/>
<polygon fill="#191970" stroke="#191970" points="451.3678,-96.7434 442.021,-101.732 452.4387,-103.661 451.3678,-96.7434"/>
</g>
<!-- Node5 -->
<g id="node5" class="node">
<title>Node5</title>
<g id="a_node5"><a xlink:href="stat-svr__test_8cpp.html#ae66f6b31b5ad750f1fe042a706a4e3d4" target="_top" xlink:title="main">
<polygon fill="#ffffff" stroke="#000000" points="613,-79 613,-98 651,-98 651,-79 613,-79"/>
<text text-anchor="middle" x="632" y="-86" font-family="Helvetica,sans-Serif" font-size="10.00" fill="#000000">main</text>
</a>
</g>
</g>
<!-- Node4&#45;&gt;Node5 -->
<g id="edge4" class="edge">
<title>Node4&#45;&gt;Node5</title>
<path fill="none" stroke="#191970" d="M587.3404,-88.5C596.5271,-88.5 605.394,-88.5 612.7722,-88.5"/>
<polygon fill="#191970" stroke="#191970" points="587.3016,-85.0001 577.3016,-88.5 587.3015,-92.0001 587.3016,-85.0001"/>
</g>
<!-- Node6&#45;&gt;Node4 -->
<g id="edge6" class="edge">
<title>Node6&#45;&gt;Node4</title>
<path fill="none" stroke="#191970" d="M446.8571,-76.5159C457.3322,-78.0726 467.805,-79.6289 477.5702,-81.0801"/>
<polygon fill="#191970" stroke="#191970" points="447.2421,-73.0348 436.8363,-75.0267 446.2131,-79.9587 447.2421,-73.0348"/>
</g>
<!-- Node8 -->
<g id="node8" class="node">
<title>Node8</title>
<g id="a_node8"><a xlink:href="namespacehandy_1_1statusTest.html#ad6e6436c4424c1b3e8840a9d3c0cc77f" target="_top" xlink:title="handy::statusTest::\lrunAllTests">
<polygon fill="#ffffff" stroke="#000000" points="315.5,-.5 315.5,-30.5 416.5,-30.5 416.5,-.5 315.5,-.5"/>
<text text-anchor="start" x="323.5" y="-18.5" font-family="Helvetica,sans-Serif" font-size="10.00" fill="#000000">handy::statusTest::</text>
<text text-anchor="middle" x="366" y="-7.5" font-family="Helvetica,sans-Serif" font-size="10.00" fill="#000000">runAllTests</text>
</a>
</g>
</g>
<!-- Node7&#45;&gt;Node8 -->
<g id="edge8" class="edge">
<title>Node7&#45;&gt;Node8</title>
<path fill="none" stroke="#191970" d="M264.2824,-15.5C281.0593,-15.5 299.0816,-15.5 315.2263,-15.5"/>
<polygon fill="#191970" stroke="#191970" points="264.0253,-12.0001 254.0253,-15.5 264.0252,-19.0001 264.0253,-12.0001"/>
</g>
<!-- Node9 -->
<g id="node9" class="node">
<title>Node9</title>
<g id="a_node9"><a xlink:href="status__test_8cpp.html#ae66f6b31b5ad750f1fe042a706a4e3d4" target="_top" xlink:title="main">
<polygon fill="#ffffff" stroke="#000000" points="508.5,-6 508.5,-25 546.5,-25 546.5,-6 508.5,-6"/>
<text text-anchor="middle" x="527.5" y="-13" font-family="Helvetica,sans-Serif" font-size="10.00" fill="#000000">main</text>
</a>
</g>
</g>
<!-- Node8&#45;&gt;Node9 -->
<g id="edge9" class="edge">
<title>Node8&#45;&gt;Node9</title>
<path fill="none" stroke="#191970" d="M426.6962,-15.5C455.5857,-15.5 488.1312,-15.5 508.2298,-15.5"/>
<polygon fill="#191970" stroke="#191970" points="426.6565,-12.0001 416.6565,-15.5 426.6565,-19.0001 426.6565,-12.0001"/>
</g>
</g>
</svg>
