<?xml version="1.0" encoding="UTF-8" standalone="no"?>
<!DOCTYPE svg PUBLIC "-//W3C//DTD SVG 1.1//EN"
 "http://www.w3.org/Graphics/SVG/1.1/DTD/svg11.dtd">
<!-- Generated by graphviz version 2.40.1 (0)
 -->
<!-- Title: handy::Ipv4Addr::isIpValid Pages: 1 -->
<svg width="1444pt" height="746pt"
 viewBox="0.00 0.00 1444.00 746.44" xmlns="http://www.w3.org/2000/svg" xmlns:xlink="http://www.w3.org/1999/xlink">
<g id="graph0" class="graph" transform="scale(1 1) rotate(0) translate(4 742.4441)">
<title>handy::Ipv4Addr::isIpValid</title>
<polygon fill="#ffffff" stroke="transparent" points="-4,4 -4,-742.4441 1440,-742.4441 1440,4 -4,4"/>
<!-- Node1 -->
<g id="node1" class="node">
<title>Node1</title>
<polygon fill="#bfbfbf" stroke="#000000" points="0,-79.9441 0,-98.9441 131,-98.9441 131,-79.9441 0,-79.9441"/>
<text text-anchor="middle" x="65.5" y="-86.9441" font-family="Helvetica,sans-Serif" font-size="10.00" fill="#000000">handy::Ipv4Addr::isIpValid</text>
</g>
<!-- Node2 -->
<g id="node2" class="node">
<title>Node2</title>
<g id="a_node2"><a xlink:href="classhandy_1_1Ipv4Addr.html#aecdc2af21e4190bd6286b4e5b7fdcb86" target="_top" xlink:title="获取IP地址和端口的字符串表示 ">
<polygon fill="#ffffff" stroke="#000000" points="167,-395.9441 167,-414.9441 295,-414.9441 295,-395.9441 167,-395.9441"/>
<text text-anchor="middle" x="231" y="-402.9441" font-family="Helvetica,sans-Serif" font-size="10.00" fill="#000000">handy::Ipv4Addr::toString</text>
</a>
</g>
</g>
<!-- Node1&#45;&gt;Node2 -->
<g id="edge1" class="edge">
<title>Node1&#45;&gt;Node2</title>
<path fill="none" stroke="#191970" d="M75.3845,-108.3174C106.6564,-168.0268 202.738,-351.4816 225.9253,-395.7547"/>
<polygon fill="#191970" stroke="#191970" points="78.3747,-106.4826 70.6346,-99.2479 72.1737,-109.7304 78.3747,-106.4826"/>
</g>
<!-- Node36 -->
<g id="node36" class="node">
<title>Node36</title>
<g id="a_node36"><a xlink:href="namespacehandy_1_1netTest.html#a9ebc5dad13f87eb5aea50c66c205cc58" target="_top" xlink:title="测试Ipv4Addr类构造与格式化功能 ">
<polygon fill="#ffffff" stroke="#000000" points="349,-99.4441 349,-129.4441 486,-129.4441 486,-99.4441 349,-99.4441"/>
<text text-anchor="start" x="357" y="-117.4441" font-family="Helvetica,sans-Serif" font-size="10.00" fill="#000000">handy::netTest::test</text>
<text text-anchor="middle" x="417.5" y="-106.4441" font-family="Helvetica,sans-Serif" font-size="10.00" fill="#000000">_ipv4addr_construct_format</text>
</a>
</g>
</g>
<!-- Node1&#45;&gt;Node36 -->
<g id="edge55" class="edge">
<title>Node1&#45;&gt;Node36</title>
<path fill="none" stroke="#191970" d="M93.8736,-103.2043C113.8075,-112.0814 141.3828,-122.806 167,-127.4441 227.849,-138.4612 298.267,-133.2564 348.9165,-126.4361"/>
<polygon fill="#191970" stroke="#191970" points="95.2936,-100.0051 84.7438,-99.0296 92.3826,-106.3711 95.2936,-100.0051"/>
</g>
<!-- Node39 -->
<g id="node39" class="node">
<title>Node39</title>
<g id="a_node39"><a xlink:href="classhandy_1_1Ipv4Addr.html#aa1e3e274ffd85680959b12a1ce1fdd50" target="_top" xlink:title="获取纯IP地址的字符串表示 ">
<polygon fill="#ffffff" stroke="#000000" points="180.5,-60.9441 180.5,-79.9441 281.5,-79.9441 281.5,-60.9441 180.5,-60.9441"/>
<text text-anchor="middle" x="231" y="-67.9441" font-family="Helvetica,sans-Serif" font-size="10.00" fill="#000000">handy::Ipv4Addr::ip</text>
</a>
</g>
</g>
<!-- Node1&#45;&gt;Node39 -->
<g id="edge46" class="edge">
<title>Node1&#45;&gt;Node39</title>
<path fill="none" stroke="#191970" d="M141.4184,-80.7284C154.6274,-79.212 168.0702,-77.6687 180.388,-76.2546"/>
<polygon fill="#191970" stroke="#191970" points="140.921,-77.2624 131.3855,-81.8802 141.7195,-84.2168 140.921,-77.2624"/>
</g>
<!-- Node40 -->
<g id="node40" class="node">
<title>Node40</title>
<g id="a_node40"><a xlink:href="classhandy_1_1Ipv4Addr.html#a15f73de1453340b7a7855250f08b10c6" target="_top" xlink:title="将主机名解析为IP地址字符串 ">
<polygon fill="#ffffff" stroke="#000000" points="352,-22.9441 352,-41.9441 483,-41.9441 483,-22.9441 352,-22.9441"/>
<text text-anchor="middle" x="417.5" y="-29.9441" font-family="Helvetica,sans-Serif" font-size="10.00" fill="#000000">handy::Ipv4Addr::hostToIp</text>
</a>
</g>
</g>
<!-- Node1&#45;&gt;Node40 -->
<g id="edge54" class="edge">
<title>Node1&#45;&gt;Node40</title>
<path fill="none" stroke="#191970" d="M95.3934,-75.6969C115.2589,-67.2057 142.1638,-56.9189 167,-51.4441 228.7583,-37.8303 300.9205,-33.5429 351.8878,-32.3843"/>
<polygon fill="#191970" stroke="#191970" points="93.7325,-72.6031 85.9713,-79.8151 96.536,-79.0172 93.7325,-72.6031"/>
</g>
<!-- Node41 -->
<g id="node41" class="node">
<title>Node41</title>
<g id="a_node41"><a xlink:href="namespacehandy_1_1netTest.html#a01641c30da483685f0cd4439763043ec" target="_top" xlink:title="测试Ipv4Addr类IP解析与验证功能 ">
<polygon fill="#ffffff" stroke="#000000" points="545,-17.4441 545,-47.4441 679,-47.4441 679,-17.4441 545,-17.4441"/>
<text text-anchor="start" x="553" y="-35.4441" font-family="Helvetica,sans-Serif" font-size="10.00" fill="#000000">handy::netTest::test</text>
<text text-anchor="middle" x="612" y="-24.4441" font-family="Helvetica,sans-Serif" font-size="10.00" fill="#000000">_ipv4addr_resolve_validate</text>
</a>
</g>
</g>
<!-- Node1&#45;&gt;Node41 -->
<g id="edge56" class="edge">
<title>Node1&#45;&gt;Node41</title>
<path fill="none" stroke="#191970" d="M86.3736,-74.0841C106.0935,-60.435 137.0385,-41.1817 167,-31.4441 309.6468,14.9161 354.5769,-.4006 504,-13.4441 517.2761,-14.603 531.3667,-16.5488 544.8339,-18.7644"/>
<polygon fill="#191970" stroke="#191970" points="84.2873,-71.2727 78.1468,-79.9066 88.3312,-76.9864 84.2873,-71.2727"/>
</g>
<!-- Node42 -->
<g id="node42" class="node">
<title>Node42</title>
<g id="a_node42"><a xlink:href="classhandy_1_1Ipv4Addr.html#a59e4db2e65a09db95cbe295fcd956a39" target="_top" xlink:title="获取主机字节序的IP地址整数表示 ">
<polygon fill="#ffffff" stroke="#000000" points="174.5,-98.9441 174.5,-117.9441 287.5,-117.9441 287.5,-98.9441 174.5,-98.9441"/>
<text text-anchor="middle" x="231" y="-105.9441" font-family="Helvetica,sans-Serif" font-size="10.00" fill="#000000">handy::Ipv4Addr::ipInt</text>
</a>
</g>
</g>
<!-- Node1&#45;&gt;Node42 -->
<g id="edge51" class="edge">
<title>Node1&#45;&gt;Node42</title>
<path fill="none" stroke="#191970" d="M141.4914,-98.1682C152.5705,-99.4401 163.8122,-100.7307 174.415,-101.948"/>
<polygon fill="#191970" stroke="#191970" points="141.7195,-94.6715 131.3855,-97.008 140.921,-101.6258 141.7195,-94.6715"/>
</g>
<!-- Node3 -->
<g id="node3" class="node">
<title>Node3</title>
<g id="a_node3"><a xlink:href="HSHAU_2server_8cpp.html#a0ddf1224851353fc92bfbff6f499fa97" target="_top" xlink:title="main">
<polygon fill="#ffffff" stroke="#000000" points="398.5,-414.9441 398.5,-433.9441 436.5,-433.9441 436.5,-414.9441 398.5,-414.9441"/>
<text text-anchor="middle" x="417.5" y="-421.9441" font-family="Helvetica,sans-Serif" font-size="10.00" fill="#000000">main</text>
</a>
</g>
</g>
<!-- Node2&#45;&gt;Node3 -->
<g id="edge2" class="edge">
<title>Node2&#45;&gt;Node3</title>
<path fill="none" stroke="#191970" d="M305.5279,-413.0368C339.2822,-416.4756 376.4499,-420.2621 398.3416,-422.4923"/>
<polygon fill="#191970" stroke="#191970" points="305.486,-409.5145 295.1827,-411.9829 304.7765,-416.4784 305.486,-409.5145"/>
</g>
<!-- Node4 -->
<g id="node4" class="node">
<title>Node4</title>
<g id="a_node4"><a xlink:href="classhandy_1_1TcpConn.html#aafaaa41f36db3d6aa30c4a6f3a3d93d6" target="_top" xlink:title="析构函数，关闭连接并释放资源 ">
<polygon fill="#ffffff" stroke="#000000" points="348,-376.9441 348,-395.9441 487,-395.9441 487,-376.9441 348,-376.9441"/>
<text text-anchor="middle" x="417.5" y="-383.9441" font-family="Helvetica,sans-Serif" font-size="10.00" fill="#000000">handy::TcpConn::~TcpConn</text>
</a>
</g>
</g>
<!-- Node2&#45;&gt;Node4 -->
<g id="edge3" class="edge">
<title>Node2&#45;&gt;Node4</title>
<path fill="none" stroke="#191970" d="M305.2666,-397.8781C319.2866,-396.4498 333.9044,-394.9606 347.7787,-393.5471"/>
<polygon fill="#191970" stroke="#191970" points="304.7765,-394.4098 295.1827,-398.9054 305.486,-401.3738 304.7765,-394.4098"/>
</g>
<!-- Node5 -->
<g id="node5" class="node">
<title>Node5</title>
<g id="a_node5"><a xlink:href="classhandy_1_1TcpConn.html#aeeb062fe73e0e1655c1e744376c8ba07" target="_top" xlink:title="将连接与已有的文件描述符进行关联 ">
<polygon fill="#ffffff" stroke="#000000" points="357,-262.9441 357,-281.9441 478,-281.9441 478,-262.9441 357,-262.9441"/>
<text text-anchor="middle" x="417.5" y="-269.9441" font-family="Helvetica,sans-Serif" font-size="10.00" fill="#000000">handy::TcpConn::attach</text>
</a>
</g>
</g>
<!-- Node2&#45;&gt;Node5 -->
<g id="edge4" class="edge">
<title>Node2&#45;&gt;Node5</title>
<path fill="none" stroke="#191970" d="M242.7412,-387.3125C259.4349,-362.991 292.3332,-320.1266 331,-296.4441 341.2333,-290.1765 353.1363,-285.5079 364.7787,-282.0436"/>
<polygon fill="#191970" stroke="#191970" points="239.6274,-385.6723 236.9743,-395.9296 245.4449,-389.5656 239.6274,-385.6723"/>
</g>
<!-- Node6 -->
<g id="node6" class="node">
<title>Node6</title>
<g id="a_node6"><a xlink:href="classhandy_1_1TcpConn.html#a1227846cc9258601c72a354f71dd080f" target="_top" xlink:title="主动连接到指定的主机和端口 ">
<polygon fill="#ffffff" stroke="#000000" points="545,-284.9441 545,-303.9441 679,-303.9441 679,-284.9441 545,-284.9441"/>
<text text-anchor="middle" x="612" y="-291.9441" font-family="Helvetica,sans-Serif" font-size="10.00" fill="#000000">handy::TcpConn::_connect</text>
</a>
</g>
</g>
<!-- Node2&#45;&gt;Node6 -->
<g id="edge12" class="edge">
<title>Node2&#45;&gt;Node6</title>
<path fill="none" stroke="#191970" d="M248.5789,-388.9305C267.4163,-372.2651 298.9553,-347.221 331,-334.4441 400.5738,-306.7037 486.5922,-297.8034 544.9998,-295.1503"/>
<polygon fill="#191970" stroke="#191970" points="246.1535,-386.405 241.0901,-395.7116 250.852,-391.5939 246.1535,-386.405"/>
</g>
<!-- Node8 -->
<g id="node8" class="node">
<title>Node8</title>
<g id="a_node8"><a xlink:href="classhandy_1_1TcpConn.html#a9ac6fe9839fbf06e2246f52b45668d01" target="_top" xlink:title="清理连接资源 ">
<polygon fill="#ffffff" stroke="#000000" points="908,-284.9441 908,-303.9441 1036,-303.9441 1036,-284.9441 908,-284.9441"/>
<text text-anchor="middle" x="972" y="-291.9441" font-family="Helvetica,sans-Serif" font-size="10.00" fill="#000000">handy::TcpConn::cleanup</text>
</a>
</g>
</g>
<!-- Node2&#45;&gt;Node8 -->
<g id="edge13" class="edge">
<title>Node2&#45;&gt;Node8</title>
<path fill="none" stroke="#191970" d="M260.8474,-391.7243C280.3918,-383.3405 306.7201,-373.1628 331,-367.4441 566.2033,-312.0462 632.8487,-348.0301 872,-313.4441 889.8395,-310.8642 909.3384,-307.3238 926.3423,-303.998"/>
<polygon fill="#191970" stroke="#191970" points="259.3207,-388.5719 251.5649,-395.7899 262.129,-394.9839 259.3207,-388.5719"/>
</g>
<!-- Node10 -->
<g id="node10" class="node">
<title>Node10</title>
<g id="a_node10"><a xlink:href="classhandy_1_1TcpConn.html#aede1ec049cda3fffd74acf9f116b16aa" target="_top" xlink:title="处理握手过程 ">
<polygon fill="#ffffff" stroke="#000000" points="1072,-246.9441 1072,-265.9441 1249,-265.9441 1249,-246.9441 1072,-246.9441"/>
<text text-anchor="middle" x="1160.5" y="-253.9441" font-family="Helvetica,sans-Serif" font-size="10.00" fill="#000000">handy::TcpConn::_handleHandshake</text>
</a>
</g>
</g>
<!-- Node2&#45;&gt;Node10 -->
<g id="edge14" class="edge">
<title>Node2&#45;&gt;Node10</title>
<path fill="none" stroke="#191970" d="M236.9062,-386.2359C248.5537,-352.148 278.0618,-281.9838 331,-253.4441 394.7778,-219.0607 870.915,-240.5912 1071.658,-251.3732"/>
<polygon fill="#191970" stroke="#191970" points="233.5155,-385.3448 233.7451,-395.9372 240.1711,-387.5136 233.5155,-385.3448"/>
</g>
<!-- Node12 -->
<g id="node12" class="node">
<title>Node12</title>
<g id="a_node12"><a xlink:href="classhandy_1_1TcpConn.html#aa6686d5e5c585b9e566763552c07ee35" target="_top" xlink:title="发送缓冲区中的数据 ">
<polygon fill="#ffffff" stroke="#000000" points="360,-186.9441 360,-205.9441 475,-205.9441 475,-186.9441 360,-186.9441"/>
<text text-anchor="middle" x="417.5" y="-193.9441" font-family="Helvetica,sans-Serif" font-size="10.00" fill="#000000">handy::TcpConn::send</text>
</a>
</g>
</g>
<!-- Node2&#45;&gt;Node12 -->
<g id="edge15" class="edge">
<title>Node2&#45;&gt;Node12</title>
<path fill="none" stroke="#191970" d="M236.0318,-385.835C246.7843,-347.9522 275.6513,-264.5604 331,-220.4441 339.4091,-213.7416 349.5691,-208.9086 359.9253,-205.4243"/>
<polygon fill="#191970" stroke="#191970" points="232.6118,-385.074 233.3691,-395.6417 239.3672,-386.9083 232.6118,-385.074"/>
</g>
<!-- Node15 -->
<g id="node15" class="node">
<title>Node15</title>
<g id="a_node15"><a xlink:href="classhandy_1_1TcpServer.html#a373e76987f525973c65e2cab025522cc" target="_top" xlink:title="绑定到指定的主机和端口 ">
<polygon fill="#ffffff" stroke="#000000" points="359,-148.9441 359,-167.9441 476,-167.9441 476,-148.9441 359,-148.9441"/>
<text text-anchor="middle" x="417.5" y="-155.9441" font-family="Helvetica,sans-Serif" font-size="10.00" fill="#000000">handy::TcpServer::bind</text>
</a>
</g>
</g>
<!-- Node2&#45;&gt;Node15 -->
<g id="edge18" class="edge">
<title>Node2&#45;&gt;Node15</title>
<path fill="none" stroke="#191970" d="M233.609,-385.7191C240.5933,-341.1747 263.9736,-232.4086 331,-177.4441 338.9657,-170.912 348.6867,-166.4975 358.6988,-163.5398"/>
<polygon fill="#191970" stroke="#191970" points="230.1166,-385.4141 232.1398,-395.814 237.0436,-386.4223 230.1166,-385.4141"/>
</g>
<!-- Node22 -->
<g id="node22" class="node">
<title>Node22</title>
<g id="a_node22"><a xlink:href="classhandy_1_1TcpConn.html#aae9ce06d8e921cae92a09686caad970b" target="_top" xlink:title="获取远程地址的字符串表示 ">
<polygon fill="#ffffff" stroke="#000000" points="347.5,-718.9441 347.5,-737.9441 487.5,-737.9441 487.5,-718.9441 347.5,-718.9441"/>
<text text-anchor="middle" x="417.5" y="-725.9441" font-family="Helvetica,sans-Serif" font-size="10.00" fill="#000000">handy::TcpConn::getPeerStr</text>
</a>
</g>
</g>
<!-- Node2&#45;&gt;Node22 -->
<g id="edge25" class="edge">
<title>Node2&#45;&gt;Node22</title>
<path fill="none" stroke="#191970" d="M234.8414,-425.1441C247.1123,-486.0867 287.1393,-669.8269 331,-709.4441 335.7922,-713.7727 341.3402,-717.1923 347.2671,-719.8848"/>
<polygon fill="#191970" stroke="#191970" points="238.2588,-424.3834 232.8785,-415.2563 231.3928,-425.7464 238.2588,-424.3834"/>
</g>
<!-- Node23 -->
<g id="node23" class="node">
<title>Node23</title>
<g id="a_node23"><a xlink:href="classhandy_1_1TcpConn.html#a46af8b2810a257f58f4db305dc6128a2" target="_top" xlink:title="获取本地地址的字符串表示 ">
<polygon fill="#ffffff" stroke="#000000" points="346,-680.9441 346,-699.9441 489,-699.9441 489,-680.9441 346,-680.9441"/>
<text text-anchor="middle" x="417.5" y="-687.9441" font-family="Helvetica,sans-Serif" font-size="10.00" fill="#000000">handy::TcpConn::getLocalStr</text>
</a>
</g>
</g>
<!-- Node2&#45;&gt;Node23 -->
<g id="edge26" class="edge">
<title>Node2&#45;&gt;Node23</title>
<path fill="none" stroke="#191970" d="M232.2203,-425.0045C236.4073,-474.4536 254.5342,-605.2247 331,-671.4441 335.4167,-675.269 340.4281,-678.377 345.7603,-680.8966"/>
<polygon fill="#191970" stroke="#191970" points="235.7082,-424.7105 231.4746,-414.9982 228.7275,-425.2307 235.7082,-424.7105"/>
</g>
<!-- Node24 -->
<g id="node24" class="node">
<title>Node24</title>
<g id="a_node24"><a xlink:href="classhandy_1_1UdpServer.html#a49e1cf8559b57b910172e38e59199b67" target="_top" xlink:title="将服务器绑定到指定地址和端口 ">
<polygon fill="#ffffff" stroke="#000000" points="358,-642.9441 358,-661.9441 477,-661.9441 477,-642.9441 358,-642.9441"/>
<text text-anchor="middle" x="417.5" y="-649.9441" font-family="Helvetica,sans-Serif" font-size="10.00" fill="#000000">handy::UdpServer::bind</text>
</a>
</g>
</g>
<!-- Node2&#45;&gt;Node24 -->
<g id="edge27" class="edge">
<title>Node2&#45;&gt;Node24</title>
<path fill="none" stroke="#191970" d="M233.609,-425.1691C240.5933,-469.7136 263.9736,-578.4797 331,-633.4441 338.7279,-639.7813 348.1079,-644.1253 357.803,-647.0797"/>
<polygon fill="#191970" stroke="#191970" points="237.0436,-424.4659 232.1398,-415.0743 230.1166,-425.4741 237.0436,-424.4659"/>
</g>
<!-- Node25 -->
<g id="node25" class="node">
<title>Node25</title>
<g id="a_node25"><a xlink:href="classhandy_1_1UdpServer.html#a411549e29cb1c4c0a5310834e7ce99bb" target="_top" xlink:title="发送指定长度的字节数据到指定地址 ">
<polygon fill="#ffffff" stroke="#000000" points="351,-604.9441 351,-623.9441 484,-623.9441 484,-604.9441 351,-604.9441"/>
<text text-anchor="middle" x="417.5" y="-611.9441" font-family="Helvetica,sans-Serif" font-size="10.00" fill="#000000">handy::UdpServer::sendTo</text>
</a>
</g>
</g>
<!-- Node2&#45;&gt;Node25 -->
<g id="edge28" class="edge">
<title>Node2&#45;&gt;Node25</title>
<path fill="none" stroke="#191970" d="M236.0318,-425.0532C246.7843,-462.9361 275.6513,-546.3278 331,-590.4441 338.9216,-596.7581 348.397,-601.413 358.1265,-604.8443"/>
<polygon fill="#191970" stroke="#191970" points="239.3672,-423.98 233.3691,-415.2466 232.6118,-425.8143 239.3672,-423.98"/>
</g>
<!-- Node26 -->
<g id="node26" class="node">
<title>Node26</title>
<g id="a_node26"><a xlink:href="classhandy_1_1UdpConn.html#ad42f2c83b20c11a3468a8ac42b2b9fbd" target="_top" xlink:title="创建新的UDP连接 ">
<polygon fill="#ffffff" stroke="#000000" points="331,-528.9441 331,-547.9441 504,-547.9441 504,-528.9441 331,-528.9441"/>
<text text-anchor="middle" x="417.5" y="-535.9441" font-family="Helvetica,sans-Serif" font-size="10.00" fill="#000000">handy::UdpConn::createConnection</text>
</a>
</g>
</g>
<!-- Node2&#45;&gt;Node26 -->
<g id="edge29" class="edge">
<title>Node2&#45;&gt;Node26</title>
<path fill="none" stroke="#191970" d="M241.893,-424.0078C257.981,-449.6893 290.5971,-495.5826 331,-519.4441 337.6195,-523.3535 344.9529,-526.4606 352.4689,-528.9296"/>
<polygon fill="#191970" stroke="#191970" points="244.7456,-421.9628 236.5545,-415.2428 238.7671,-425.604 244.7456,-421.9628"/>
</g>
<!-- Node28 -->
<g id="node28" class="node">
<title>Node28</title>
<g id="a_node28"><a xlink:href="udp__test_8cpp.html#a1e6c44e3a2c1938e87a0fd8f863c54e2" target="_top" xlink:title="test_udp_server_basic">
<polygon fill="#ffffff" stroke="#000000" points="554.5,-585.9441 554.5,-604.9441 669.5,-604.9441 669.5,-585.9441 554.5,-585.9441"/>
<text text-anchor="middle" x="612" y="-592.9441" font-family="Helvetica,sans-Serif" font-size="10.00" fill="#000000">test_udp_server_basic</text>
</a>
</g>
</g>
<!-- Node2&#45;&gt;Node28 -->
<g id="edge45" class="edge">
<title>Node2&#45;&gt;Node28</title>
<path fill="none" stroke="#191970" d="M237.4834,-424.436C249.8869,-457.5992 280.3392,-525.5655 331,-557.4441 367.0932,-580.156 483.032,-589.531 554.2134,-593.2188"/>
<polygon fill="#191970" stroke="#191970" points="240.7619,-423.2099 234.0877,-414.9815 234.174,-425.576 240.7619,-423.2099"/>
</g>
<!-- Node34 -->
<g id="node34" class="node">
<title>Node34</title>
<g id="a_node34"><a xlink:href="classhandy_1_1UdpConn.html#a029c43ca7cd568b9fea2e336970ebf42" target="_top" xlink:title="发送指定长度的字节数据 ">
<polygon fill="#ffffff" stroke="#000000" points="359,-490.9441 359,-509.9441 476,-509.9441 476,-490.9441 359,-490.9441"/>
<text text-anchor="middle" x="417.5" y="-497.9441" font-family="Helvetica,sans-Serif" font-size="10.00" fill="#000000">handy::UdpConn::send</text>
</a>
</g>
</g>
<!-- Node2&#45;&gt;Node34 -->
<g id="edge40" class="edge">
<title>Node2&#45;&gt;Node34</title>
<path fill="none" stroke="#191970" d="M247.9659,-422.096C266.72,-439.5445 298.5857,-466.4586 331,-481.4441 339.6528,-485.4444 349.188,-488.6215 358.6707,-491.1395"/>
<polygon fill="#191970" stroke="#191970" points="250.2021,-419.3927 240.5422,-415.0409 245.3799,-424.4668 250.2021,-419.3927"/>
</g>
<!-- Node35 -->
<g id="node35" class="node">
<title>Node35</title>
<g id="a_node35"><a xlink:href="classhandy_1_1UdpConn.html#ad2b1bc2b4e41a0321dc4312f2a9e6f6e" target="_top" xlink:title="获取远程地址的字符串表示 ">
<polygon fill="#ffffff" stroke="#000000" points="346,-452.9441 346,-471.9441 489,-471.9441 489,-452.9441 346,-452.9441"/>
<text text-anchor="middle" x="417.5" y="-459.9441" font-family="Helvetica,sans-Serif" font-size="10.00" fill="#000000">handy::UdpConn::getPeerStr</text>
</a>
</g>
</g>
<!-- Node2&#45;&gt;Node35 -->
<g id="edge41" class="edge">
<title>Node2&#45;&gt;Node35</title>
<path fill="none" stroke="#191970" d="M262.6161,-418.8259C282.0892,-426.7237 307.7041,-436.5004 331,-443.4441 342.9351,-447.0016 355.9773,-450.21 368.2312,-452.9341"/>
<polygon fill="#191970" stroke="#191970" points="263.893,-415.5667 253.313,-415.0066 261.2345,-422.0423 263.893,-415.5667"/>
</g>
<!-- Node2&#45;&gt;Node36 -->
<g id="edge42" class="edge">
<title>Node2&#45;&gt;Node36</title>
<path fill="none" stroke="#191970" d="M232.5452,-385.5329C237.4528,-336.2851 257.0549,-207.8186 331,-139.4441 336.1648,-134.6684 342.1866,-130.7992 348.6046,-127.6653"/>
<polygon fill="#191970" stroke="#191970" points="229.0337,-385.5057 231.6278,-395.7781 236.0058,-386.1301 229.0337,-385.5057"/>
</g>
<!-- Node5&#45;&gt;Node6 -->
<g id="edge5" class="edge">
<title>Node5&#45;&gt;Node6</title>
<path fill="none" stroke="#191970" d="M488.3472,-280.4577C506.827,-282.548 526.6831,-284.7939 544.9588,-286.8611"/>
<polygon fill="#191970" stroke="#191970" points="488.571,-276.9608 478.241,-279.3146 487.7842,-283.9164 488.571,-276.9608"/>
</g>
<!-- Node7 -->
<g id="node7" class="node">
<title>Node7</title>
<g id="a_node7"><a xlink:href="classhandy_1_1TcpConn.html#a14338af0c8635457894f33585bdd0878" target="_top" xlink:title="重连 ">
<polygon fill="#ffffff" stroke="#000000" points="725,-284.9441 725,-303.9441 867,-303.9441 867,-284.9441 725,-284.9441"/>
<text text-anchor="middle" x="796" y="-291.9441" font-family="Helvetica,sans-Serif" font-size="10.00" fill="#000000">handy::TcpConn::_reconnect</text>
</a>
</g>
</g>
<!-- Node6&#45;&gt;Node7 -->
<g id="edge6" class="edge">
<title>Node6&#45;&gt;Node7</title>
<path fill="none" stroke="#191970" d="M689.451,-294.4441C701.2237,-294.4441 713.3224,-294.4441 724.9497,-294.4441"/>
<polygon fill="#191970" stroke="#191970" points="689.2093,-290.9442 679.2093,-294.4441 689.2092,-297.9442 689.2093,-290.9442"/>
</g>
<!-- Node7&#45;&gt;Node8 -->
<g id="edge7" class="edge">
<title>Node7&#45;&gt;Node8</title>
<path fill="none" stroke="#191970" d="M877.2497,-294.4441C887.4822,-294.4441 897.8371,-294.4441 907.7567,-294.4441"/>
<polygon fill="#191970" stroke="#191970" points="877.0787,-290.9442 867.0786,-294.4441 877.0786,-297.9442 877.0787,-290.9442"/>
</g>
<!-- Node9 -->
<g id="node9" class="node">
<title>Node9</title>
<g id="a_node9"><a xlink:href="classhandy_1_1TcpConn.html#abf60924c0a811cec7b75835cf8d3b7c5" target="_top" xlink:title="编解码器 ">
<polygon fill="#ffffff" stroke="#000000" points="1285,-284.9441 1285,-303.9441 1436,-303.9441 1436,-284.9441 1285,-284.9441"/>
<text text-anchor="middle" x="1360.5" y="-291.9441" font-family="Helvetica,sans-Serif" font-size="10.00" fill="#000000">handy::TcpConn::_handleRead</text>
</a>
</g>
</g>
<!-- Node8&#45;&gt;Node9 -->
<g id="edge8" class="edge">
<title>Node8&#45;&gt;Node9</title>
<path fill="none" stroke="#191970" d="M1046.436,-294.4441C1114.9391,-294.4441 1216.0614,-294.4441 1284.9236,-294.4441"/>
<polygon fill="#191970" stroke="#191970" points="1046.1529,-290.9442 1036.1529,-294.4441 1046.1528,-297.9442 1046.1529,-290.9442"/>
</g>
<!-- Node8&#45;&gt;Node10 -->
<g id="edge9" class="edge">
<title>Node8&#45;&gt;Node10</title>
<path fill="none" stroke="#191970" d="M1029.5893,-282.8346C1056.3983,-277.4302 1087.8954,-271.0806 1113.2755,-265.9642"/>
<polygon fill="#191970" stroke="#191970" points="1028.6776,-279.4479 1019.5665,-284.8551 1030.061,-286.3099 1028.6776,-279.4479"/>
</g>
<!-- Node10&#45;&gt;Node9 -->
<g id="edge10" class="edge">
<title>Node10&#45;&gt;Node9</title>
<path fill="none" stroke="#191970" d="M1220.5954,-267.8623C1249.2118,-273.2994 1283.0434,-279.7274 1310.2691,-284.9003"/>
<polygon fill="#191970" stroke="#191970" points="1221.1879,-264.4123 1210.7103,-265.9841 1219.8812,-271.2893 1221.1879,-264.4123"/>
</g>
<!-- Node11 -->
<g id="node11" class="node">
<title>Node11</title>
<g id="a_node11"><a xlink:href="classhandy_1_1TcpConn.html#a63457506a3210662f34050088e0a08e3" target="_top" xlink:title="处理写事件 ">
<polygon fill="#ffffff" stroke="#000000" points="1285,-246.9441 1285,-265.9441 1436,-265.9441 1436,-246.9441 1285,-246.9441"/>
<text text-anchor="middle" x="1360.5" y="-253.9441" font-family="Helvetica,sans-Serif" font-size="10.00" fill="#000000">handy::TcpConn::_handleWrite</text>
</a>
</g>
</g>
<!-- Node10&#45;&gt;Node11 -->
<g id="edge11" class="edge">
<title>Node10&#45;&gt;Node11</title>
<path fill="none" stroke="#191970" d="M1259.1831,-256.4441C1267.7936,-256.4441 1276.4172,-256.4441 1284.7984,-256.4441"/>
<polygon fill="#191970" stroke="#191970" points="1259.0964,-252.9442 1249.0963,-256.4441 1259.0963,-259.9442 1259.0964,-252.9442"/>
</g>
<!-- Node13 -->
<g id="node13" class="node">
<title>Node13</title>
<g id="a_node13"><a xlink:href="classhandy_1_1TcpConn.html#a876eeca51918ea71097edc1c2aab3fea" target="_top" xlink:title="发送输出缓冲区中的数据 ">
<polygon fill="#ffffff" stroke="#000000" points="540,-181.4441 540,-211.4441 684,-211.4441 684,-181.4441 540,-181.4441"/>
<text text-anchor="start" x="548" y="-199.4441" font-family="Helvetica,sans-Serif" font-size="10.00" fill="#000000">handy::TcpConn::sendOutput</text>
<text text-anchor="middle" x="612" y="-188.4441" font-family="Helvetica,sans-Serif" font-size="10.00" fill="#000000">Buffer</text>
</a>
</g>
</g>
<!-- Node12&#45;&gt;Node13 -->
<g id="edge16" class="edge">
<title>Node12&#45;&gt;Node13</title>
<path fill="none" stroke="#191970" d="M485.2506,-196.4441C502.8602,-196.4441 521.8952,-196.4441 539.7282,-196.4441"/>
<polygon fill="#191970" stroke="#191970" points="485.067,-192.9442 475.067,-196.4441 485.0669,-199.9442 485.067,-192.9442"/>
</g>
<!-- Node14 -->
<g id="node14" class="node">
<title>Node14</title>
<g id="a_node14"><a xlink:href="classhandy_1_1TcpConn.html#a9ff910e1037b29a941c66f3b8eefacc4" target="_top" xlink:title="发送消息（通过编解码器编码后发送） ">
<polygon fill="#ffffff" stroke="#000000" points="729,-186.9441 729,-205.9441 863,-205.9441 863,-186.9441 729,-186.9441"/>
<text text-anchor="middle" x="796" y="-193.9441" font-family="Helvetica,sans-Serif" font-size="10.00" fill="#000000">handy::TcpConn::sendMsg</text>
</a>
</g>
</g>
<!-- Node13&#45;&gt;Node14 -->
<g id="edge17" class="edge">
<title>Node13&#45;&gt;Node14</title>
<path fill="none" stroke="#191970" d="M694.275,-196.4441C705.8288,-196.4441 717.5895,-196.4441 728.8172,-196.4441"/>
<polygon fill="#191970" stroke="#191970" points="694.1936,-192.9442 684.1936,-196.4441 694.1935,-199.9442 694.1936,-192.9442"/>
</g>
<!-- Node16 -->
<g id="node16" class="node">
<title>Node16</title>
<g id="a_node16"><a xlink:href="HTTP_2server_8cpp.html#a0ddf1224851353fc92bfbff6f499fa97" target="_top" xlink:title="main">
<polygon fill="#ffffff" stroke="#000000" points="593,-104.9441 593,-123.9441 631,-123.9441 631,-104.9441 593,-104.9441"/>
<text text-anchor="middle" x="612" y="-111.9441" font-family="Helvetica,sans-Serif" font-size="10.00" fill="#000000">main</text>
</a>
</g>
</g>
<!-- Node15&#45;&gt;Node16 -->
<g id="edge19" class="edge">
<title>Node15&#45;&gt;Node16</title>
<path fill="none" stroke="#191970" d="M471.3057,-146.7239C482.1359,-144.3371 493.4354,-141.8271 504,-139.4441 535.1651,-132.4146 571.3238,-123.9897 592.8961,-118.9348"/>
<polygon fill="#191970" stroke="#191970" points="470.5412,-143.3083 461.5261,-148.874 472.0444,-150.145 470.5412,-143.3083"/>
</g>
<!-- Node17 -->
<g id="node17" class="node">
<title>Node17</title>
<g id="a_node17"><a xlink:href="classhandy_1_1StatServer.html#a85d041b9ba9b52ff1ec223777d84c744" target="_top" xlink:title="将服务器绑定到指定的主机和端口 ">
<polygon fill="#ffffff" stroke="#000000" points="552.5,-142.9441 552.5,-161.9441 671.5,-161.9441 671.5,-142.9441 552.5,-142.9441"/>
<text text-anchor="middle" x="612" y="-149.9441" font-family="Helvetica,sans-Serif" font-size="10.00" fill="#000000">handy::StatServer::bind</text>
</a>
</g>
</g>
<!-- Node15&#45;&gt;Node17 -->
<g id="edge20" class="edge">
<title>Node15&#45;&gt;Node17</title>
<path fill="none" stroke="#191970" d="M486.2235,-156.3241C507.8563,-155.6568 531.5551,-154.9257 552.4916,-154.2799"/>
<polygon fill="#191970" stroke="#191970" points="486.0075,-152.829 476.1202,-156.6358 486.2234,-159.8257 486.0075,-152.829"/>
</g>
<!-- Node18 -->
<g id="node18" class="node">
<title>Node18</title>
<g id="a_node18"><a xlink:href="namespacehandy_1_1statSvrTest.html#aa579971c9cf0ca4ac96dbda469457028" target="_top" xlink:title="测试 StatServer 基本构造与绑定功能 ">
<polygon fill="#ffffff" stroke="#000000" points="741,-88.4441 741,-118.4441 851,-118.4441 851,-88.4441 741,-88.4441"/>
<text text-anchor="start" x="749" y="-106.4441" font-family="Helvetica,sans-Serif" font-size="10.00" fill="#000000">handy::statSvrTest</text>
<text text-anchor="middle" x="796" y="-95.4441" font-family="Helvetica,sans-Serif" font-size="10.00" fill="#000000">::testStatServerBasic</text>
</a>
</g>
</g>
<!-- Node17&#45;&gt;Node18 -->
<g id="edge21" class="edge">
<title>Node17&#45;&gt;Node18</title>
<path fill="none" stroke="#191970" d="M658.1585,-140.2905C666.7497,-138.0208 675.6486,-135.6645 684,-133.4441 702.4814,-128.5305 722.6697,-123.1323 740.753,-118.286"/>
<polygon fill="#191970" stroke="#191970" points="657.0413,-136.9655 648.2659,-142.902 658.828,-143.7336 657.0413,-136.9655"/>
</g>
<!-- Node19 -->
<g id="node19" class="node">
<title>Node19</title>
<g id="a_node19"><a xlink:href="namespacehandy_1_1statSvrTest.html#a4bc63cfe9fd7b20a93899a61052da590" target="_top" xlink:title="测试状态回调注册与处理 ">
<polygon fill="#ffffff" stroke="#000000" points="720,-137.4441 720,-167.4441 872,-167.4441 872,-137.4441 720,-137.4441"/>
<text text-anchor="start" x="728" y="-155.4441" font-family="Helvetica,sans-Serif" font-size="10.00" fill="#000000">handy::statSvrTest</text>
<text text-anchor="middle" x="796" y="-144.4441" font-family="Helvetica,sans-Serif" font-size="10.00" fill="#000000">::testStatServerStateCallbacks</text>
</a>
</g>
</g>
<!-- Node17&#45;&gt;Node19 -->
<g id="edge22" class="edge">
<title>Node17&#45;&gt;Node19</title>
<path fill="none" stroke="#191970" d="M681.9686,-152.4441C694.3292,-152.4441 707.2535,-152.4441 719.7759,-152.4441"/>
<polygon fill="#191970" stroke="#191970" points="681.7396,-148.9442 671.7395,-152.4441 681.7395,-155.9442 681.7396,-148.9442"/>
</g>
<!-- Node20 -->
<g id="node20" class="node">
<title>Node20</title>
<g id="a_node20"><a xlink:href="namespacehandy_1_1statSvrTest.html#a51d6168c2b8db2fabed82b2a4ebb6bf4" target="_top" xlink:title="handy::statSvrTest\l::runAllTests">
<polygon fill="#ffffff" stroke="#000000" points="922.5,-137.4441 922.5,-167.4441 1021.5,-167.4441 1021.5,-137.4441 922.5,-137.4441"/>
<text text-anchor="start" x="930.5" y="-155.4441" font-family="Helvetica,sans-Serif" font-size="10.00" fill="#000000">handy::statSvrTest</text>
<text text-anchor="middle" x="972" y="-144.4441" font-family="Helvetica,sans-Serif" font-size="10.00" fill="#000000">::runAllTests</text>
</a>
</g>
</g>
<!-- Node19&#45;&gt;Node20 -->
<g id="edge23" class="edge">
<title>Node19&#45;&gt;Node20</title>
<path fill="none" stroke="#191970" d="M882.1834,-152.4441C895.9727,-152.4441 909.8216,-152.4441 922.3748,-152.4441"/>
<polygon fill="#191970" stroke="#191970" points="882.1726,-148.9442 872.1725,-152.4441 882.1725,-155.9442 882.1726,-148.9442"/>
</g>
<!-- Node21 -->
<g id="node21" class="node">
<title>Node21</title>
<g id="a_node21"><a xlink:href="stat-svr__test_8cpp.html#ae66f6b31b5ad750f1fe042a706a4e3d4" target="_top" xlink:title="main">
<polygon fill="#ffffff" stroke="#000000" points="1141.5,-142.9441 1141.5,-161.9441 1179.5,-161.9441 1179.5,-142.9441 1141.5,-142.9441"/>
<text text-anchor="middle" x="1160.5" y="-149.9441" font-family="Helvetica,sans-Serif" font-size="10.00" fill="#000000">main</text>
</a>
</g>
</g>
<!-- Node20&#45;&gt;Node21 -->
<g id="edge24" class="edge">
<title>Node20&#45;&gt;Node21</title>
<path fill="none" stroke="#191970" d="M1031.9246,-152.4441C1069.6784,-152.4441 1115.943,-152.4441 1141.4101,-152.4441"/>
<polygon fill="#191970" stroke="#191970" points="1031.5262,-148.9442 1021.5262,-152.4441 1031.5261,-155.9442 1031.5262,-148.9442"/>
</g>
<!-- Node27 -->
<g id="node27" class="node">
<title>Node27</title>
<g id="a_node27"><a xlink:href="HSHAU_2client_8cpp.html#a0ddf1224851353fc92bfbff6f499fa97" target="_top" xlink:title="main">
<polygon fill="#ffffff" stroke="#000000" points="593,-471.9441 593,-490.9441 631,-490.9441 631,-471.9441 593,-471.9441"/>
<text text-anchor="middle" x="612" y="-478.9441" font-family="Helvetica,sans-Serif" font-size="10.00" fill="#000000">main</text>
</a>
</g>
</g>
<!-- Node26&#45;&gt;Node27 -->
<g id="edge30" class="edge">
<title>Node26&#45;&gt;Node27</title>
<path fill="none" stroke="#191970" d="M481.4023,-526.4595C489.106,-524.4148 496.7921,-522.0827 504,-519.4441 520.9891,-513.2249 523.1445,-507.017 540,-500.4441 557.4646,-493.6338 578.2438,-488.4428 592.9799,-485.2216"/>
<polygon fill="#191970" stroke="#191970" points="480.5194,-523.0724 471.6695,-528.8972 482.2202,-529.8627 480.5194,-523.0724"/>
</g>
<!-- Node26&#45;&gt;Node28 -->
<g id="edge31" class="edge">
<title>Node26&#45;&gt;Node28</title>
<path fill="none" stroke="#191970" d="M465.1541,-550.7442C477.854,-554.2727 491.5131,-558.2954 504,-562.4441 520.2916,-567.8569 523.6745,-571.1344 540,-576.4441 550.4499,-579.8429 561.8981,-583.0793 572.5295,-585.8865"/>
<polygon fill="#191970" stroke="#191970" points="465.7844,-547.2882 455.2154,-548.0274 463.9385,-554.0404 465.7844,-547.2882"/>
</g>
<!-- Node31 -->
<g id="node31" class="node">
<title>Node31</title>
<g id="a_node31"><a xlink:href="udp__test_8cpp.html#ae12e3fc59f65808ab1e017b9aee29739" target="_top" xlink:title="test_udp_conn">
<polygon fill="#ffffff" stroke="#000000" points="572,-433.9441 572,-452.9441 652,-452.9441 652,-433.9441 572,-433.9441"/>
<text text-anchor="middle" x="612" y="-440.9441" font-family="Helvetica,sans-Serif" font-size="10.00" fill="#000000">test_udp_conn</text>
</a>
</g>
</g>
<!-- Node26&#45;&gt;Node31 -->
<g id="edge34" class="edge">
<title>Node26&#45;&gt;Node31</title>
<path fill="none" stroke="#191970" d="M494.967,-524.858C498.1158,-523.2455 501.1445,-521.4477 504,-519.4441 528.5273,-502.2339 515.8376,-480.163 540,-462.4441 549.2784,-455.64 560.8077,-451.2705 571.9014,-448.4651"/>
<polygon fill="#191970" stroke="#191970" points="493.5318,-521.6657 485.819,-528.9296 496.3782,-528.0609 493.5318,-521.6657"/>
</g>
<!-- Node32 -->
<g id="node32" class="node">
<title>Node32</title>
<g id="a_node32"><a xlink:href="udp__test_8cpp.html#aa69b2ac648de0a269e8ed6a11a3dc0b3" target="_top" xlink:title="test_hshau_server">
<polygon fill="#ffffff" stroke="#000000" points="563.5,-547.9441 563.5,-566.9441 660.5,-566.9441 660.5,-547.9441 563.5,-547.9441"/>
<text text-anchor="middle" x="612" y="-554.9441" font-family="Helvetica,sans-Serif" font-size="10.00" fill="#000000">test_hshau_server</text>
</a>
</g>
</g>
<!-- Node26&#45;&gt;Node32 -->
<g id="edge36" class="edge">
<title>Node26&#45;&gt;Node32</title>
<path fill="none" stroke="#191970" d="M514.2325,-547.8936C531.2576,-549.5567 548.3039,-551.2219 563.2841,-552.6853"/>
<polygon fill="#191970" stroke="#191970" points="514.5195,-544.405 504.2266,-546.9161 513.8389,-551.3719 514.5195,-544.405"/>
</g>
<!-- Node33 -->
<g id="node33" class="node">
<title>Node33</title>
<g id="a_node33"><a xlink:href="udp__test_8cpp.html#ac52a62b445e7b2af0f7110f3999e76d3" target="_top" xlink:title="test_udp_thread_safe">
<polygon fill="#ffffff" stroke="#000000" points="557,-509.9441 557,-528.9441 667,-528.9441 667,-509.9441 557,-509.9441"/>
<text text-anchor="middle" x="612" y="-516.9441" font-family="Helvetica,sans-Serif" font-size="10.00" fill="#000000">test_udp_thread_safe</text>
</a>
</g>
</g>
<!-- Node26&#45;&gt;Node33 -->
<g id="edge38" class="edge">
<title>Node26&#45;&gt;Node33</title>
<path fill="none" stroke="#191970" d="M514.3471,-528.9835C528.9919,-527.5529 543.649,-526.1211 556.9898,-524.8179"/>
<polygon fill="#191970" stroke="#191970" points="513.8389,-525.5164 504.2266,-529.9721 514.5195,-532.4832 513.8389,-525.5164"/>
</g>
<!-- Node29 -->
<g id="node29" class="node">
<title>Node29</title>
<g id="a_node29"><a xlink:href="udp__test_8cpp.html#adf5fa5d1a8867dba73315c105f40b449" target="_top" xlink:title="run_all_tests">
<polygon fill="#ffffff" stroke="#000000" points="760,-528.9441 760,-547.9441 832,-547.9441 832,-528.9441 760,-528.9441"/>
<text text-anchor="middle" x="796" y="-535.9441" font-family="Helvetica,sans-Serif" font-size="10.00" fill="#000000">run_all_tests</text>
</a>
</g>
</g>
<!-- Node28&#45;&gt;Node29 -->
<g id="edge32" class="edge">
<title>Node28&#45;&gt;Node29</title>
<path fill="none" stroke="#191970" d="M659.9364,-583.2891C667.9964,-581.1039 676.2556,-578.7767 684,-576.4441 713.4911,-567.5616 746.8744,-556.042 769.4639,-548.0252"/>
<polygon fill="#191970" stroke="#191970" points="659.0104,-579.9137 650.2518,-585.875 660.8162,-586.6767 659.0104,-579.9137"/>
</g>
<!-- Node30 -->
<g id="node30" class="node">
<title>Node30</title>
<g id="a_node30"><a xlink:href="udp__test_8cpp.html#ae66f6b31b5ad750f1fe042a706a4e3d4" target="_top" xlink:title="main">
<polygon fill="#ffffff" stroke="#000000" points="953,-528.9441 953,-547.9441 991,-547.9441 991,-528.9441 953,-528.9441"/>
<text text-anchor="middle" x="972" y="-535.9441" font-family="Helvetica,sans-Serif" font-size="10.00" fill="#000000">main</text>
</a>
</g>
</g>
<!-- Node29&#45;&gt;Node30 -->
<g id="edge33" class="edge">
<title>Node29&#45;&gt;Node30</title>
<path fill="none" stroke="#191970" d="M842.3275,-538.4441C878.3709,-538.4441 926.5415,-538.4441 952.8535,-538.4441"/>
<polygon fill="#191970" stroke="#191970" points="842.041,-534.9442 832.0409,-538.4441 842.0409,-541.9442 842.041,-534.9442"/>
</g>
<!-- Node31&#45;&gt;Node29 -->
<g id="edge35" class="edge">
<title>Node31&#45;&gt;Node29</title>
<path fill="none" stroke="#191970" d="M661.9176,-454.2567C669.465,-456.5628 677.0458,-459.2791 684,-462.4441 723.9949,-480.6466 765.3212,-512.8088 784.6932,-528.8239"/>
<polygon fill="#191970" stroke="#191970" points="662.6465,-450.8253 652.0706,-451.4582 660.7328,-457.5587 662.6465,-450.8253"/>
</g>
<!-- Node32&#45;&gt;Node29 -->
<g id="edge37" class="edge">
<title>Node32&#45;&gt;Node29</title>
<path fill="none" stroke="#191970" d="M670.9227,-551.3597C700.14,-548.3427 734.4917,-544.7955 759.7951,-542.1827"/>
<polygon fill="#191970" stroke="#191970" points="670.4131,-547.8936 660.8255,-552.4024 671.1322,-554.8566 670.4131,-547.8936"/>
</g>
<!-- Node33&#45;&gt;Node29 -->
<g id="edge39" class="edge">
<title>Node33&#45;&gt;Node29</title>
<path fill="none" stroke="#191970" d="M677.2385,-526.1807C704.9623,-529.0435 736.2376,-532.273 759.7316,-534.699"/>
<polygon fill="#191970" stroke="#191970" points="677.5127,-522.6905 667.2061,-525.1448 676.7936,-529.6535 677.5127,-522.6905"/>
</g>
<!-- Node37 -->
<g id="node37" class="node">
<title>Node37</title>
<g id="a_node37"><a xlink:href="namespacehandy_1_1netTest.html#a67440c6a5e1613729fd7d78f23f151cc" target="_top" xlink:title="handy::netTest::run\l_all_tests">
<polygon fill="#ffffff" stroke="#000000" points="745.5,-28.4441 745.5,-58.4441 846.5,-58.4441 846.5,-28.4441 745.5,-28.4441"/>
<text text-anchor="start" x="753.5" y="-46.4441" font-family="Helvetica,sans-Serif" font-size="10.00" fill="#000000">handy::netTest::run</text>
<text text-anchor="middle" x="796" y="-35.4441" font-family="Helvetica,sans-Serif" font-size="10.00" fill="#000000">_all_tests</text>
</a>
</g>
</g>
<!-- Node36&#45;&gt;Node37 -->
<g id="edge43" class="edge">
<title>Node36&#45;&gt;Node37</title>
<path fill="none" stroke="#191970" d="M495.8996,-99.7377C570.7322,-85.7004 681.2768,-64.9642 745.2247,-52.9687"/>
<polygon fill="#191970" stroke="#191970" points="495.2268,-96.3028 486.0435,-101.5866 496.5174,-103.1828 495.2268,-96.3028"/>
</g>
<!-- Node38 -->
<g id="node38" class="node">
<title>Node38</title>
<g id="a_node38"><a xlink:href="net__test_8cpp.html#ae66f6b31b5ad750f1fe042a706a4e3d4" target="_top" xlink:title="main">
<polygon fill="#ffffff" stroke="#000000" points="953,-33.9441 953,-52.9441 991,-52.9441 991,-33.9441 953,-33.9441"/>
<text text-anchor="middle" x="972" y="-40.9441" font-family="Helvetica,sans-Serif" font-size="10.00" fill="#000000">main</text>
</a>
</g>
</g>
<!-- Node37&#45;&gt;Node38 -->
<g id="edge44" class="edge">
<title>Node37&#45;&gt;Node38</title>
<path fill="none" stroke="#191970" d="M857.0761,-43.4441C890.517,-43.4441 929.6982,-43.4441 952.5929,-43.4441"/>
<polygon fill="#191970" stroke="#191970" points="856.9065,-39.9442 846.9065,-43.4441 856.9065,-46.9442 856.9065,-39.9442"/>
</g>
<!-- Node39&#45;&gt;Node36 -->
<g id="edge50" class="edge">
<title>Node39&#45;&gt;Node36</title>
<path fill="none" stroke="#191970" d="M281.3721,-82.3282C303.6208,-87.5772 330.0324,-93.8083 353.6434,-99.3788"/>
<polygon fill="#191970" stroke="#191970" points="282.0042,-78.8813 271.4677,-79.9915 280.3968,-85.6942 282.0042,-78.8813"/>
</g>
<!-- Node39&#45;&gt;Node40 -->
<g id="edge47" class="edge">
<title>Node39&#45;&gt;Node40</title>
<path fill="none" stroke="#191970" d="M287.9782,-58.8346C314.5028,-53.4302 345.6657,-47.0806 370.7766,-41.9642"/>
<polygon fill="#191970" stroke="#191970" points="287.1617,-55.429 278.0618,-60.8551 288.5593,-62.2881 287.1617,-55.429"/>
</g>
<!-- Node40&#45;&gt;Node41 -->
<g id="edge48" class="edge">
<title>Node40&#45;&gt;Node41</title>
<path fill="none" stroke="#191970" d="M493.4691,-32.4441C510.3769,-32.4441 528.1872,-32.4441 544.7173,-32.4441"/>
<polygon fill="#191970" stroke="#191970" points="493.0777,-28.9442 483.0777,-32.4441 493.0776,-35.9442 493.0777,-28.9442"/>
</g>
<!-- Node41&#45;&gt;Node37 -->
<g id="edge49" class="edge">
<title>Node41&#45;&gt;Node37</title>
<path fill="none" stroke="#191970" d="M689.3243,-37.0668C708.2737,-38.1996 728.0757,-39.3834 745.4022,-40.4193"/>
<polygon fill="#191970" stroke="#191970" points="689.4003,-33.5652 679.2093,-36.4621 688.9825,-40.5527 689.4003,-33.5652"/>
</g>
<!-- Node42&#45;&gt;Node36 -->
<g id="edge52" class="edge">
<title>Node42&#45;&gt;Node36</title>
<path fill="none" stroke="#191970" d="M297.8608,-110.5952C314.4396,-111.1285 332.2312,-111.7009 348.8922,-112.2369"/>
<polygon fill="#191970" stroke="#191970" points="297.8232,-107.0922 287.7158,-110.2688 297.598,-114.0886 297.8232,-107.0922"/>
</g>
<!-- Node42&#45;&gt;Node41 -->
<g id="edge53" class="edge">
<title>Node42&#45;&gt;Node41</title>
<path fill="none" stroke="#191970" d="M289.089,-96.8568C357.8724,-83.1363 472.2281,-60.3251 544.7755,-45.8537"/>
<polygon fill="#191970" stroke="#191970" points="287.9902,-93.507 278.8681,-98.8956 289.3596,-100.3717 287.9902,-93.507"/>
</g>
</g>
</svg>
