<?xml version="1.0" encoding="UTF-8" standalone="no"?>
<!DOCTYPE svg PUBLIC "-//W3C//DTD SVG 1.1//EN"
 "http://www.w3.org/Graphics/SVG/1.1/DTD/svg11.dtd">
<!-- Generated by graphviz version 2.40.1 (0)
 -->
<!-- Title: main Pages: 1 -->
<svg width="599pt" height="256pt"
 viewBox="0.00 0.00 599.00 256.00" xmlns="http://www.w3.org/2000/svg" xmlns:xlink="http://www.w3.org/1999/xlink">
<g id="graph0" class="graph" transform="scale(1 1) rotate(0) translate(4 252)">
<title>main</title>
<polygon fill="#ffffff" stroke="transparent" points="-4,4 -4,-252 595,-252 595,4 -4,4"/>
<!-- Node1 -->
<g id="node1" class="node">
<title>Node1</title>
<polygon fill="#bfbfbf" stroke="#000000" points="0,-133.5 0,-152.5 38,-152.5 38,-133.5 0,-133.5"/>
<text text-anchor="middle" x="19" y="-140.5" font-family="Helvetica,sans-Serif" font-size="10.00" fill="#000000">main</text>
</g>
<!-- Node2 -->
<g id="node2" class="node">
<title>Node2</title>
<g id="a_node2"><a xlink:href="classhandy_1_1Logger.html#aa28b152799dd56d5fea997e699996725" target="_top" xlink:title="handy::Logger::getInstance">
<polygon fill="#ffffff" stroke="#000000" points="84,-228.5 84,-247.5 219,-247.5 219,-228.5 84,-228.5"/>
<text text-anchor="middle" x="151.5" y="-235.5" font-family="Helvetica,sans-Serif" font-size="10.00" fill="#000000">handy::Logger::getInstance</text>
</a>
</g>
</g>
<!-- Node1&#45;&gt;Node2 -->
<g id="edge1" class="edge">
<title>Node1&#45;&gt;Node2</title>
<path fill="none" stroke="#191970" d="M23.2033,-152.6194C30.8431,-168.9303 48.5975,-201.9037 74,-219 76.963,-220.9941 80.1152,-222.7793 83.3885,-224.3774"/>
<polygon fill="#191970" stroke="#191970" points="82.3044,-227.7195 92.8771,-228.404 85.039,-221.2757 82.3044,-227.7195"/>
</g>
<!-- Node3 -->
<g id="node3" class="node">
<title>Node3</title>
<g id="a_node3"><a xlink:href="classhandy_1_1Logger.html#a166a12af568a87281a0f5953c3b7dc36" target="_top" xlink:title="通过字符串形式（全小写）设置日志级别 ">
<polygon fill="#ffffff" stroke="#000000" points="83,-190.5 83,-209.5 220,-209.5 220,-190.5 83,-190.5"/>
<text text-anchor="middle" x="151.5" y="-197.5" font-family="Helvetica,sans-Serif" font-size="10.00" fill="#000000">handy::Logger::setLogLevel</text>
</a>
</g>
</g>
<!-- Node1&#45;&gt;Node3 -->
<g id="edge2" class="edge">
<title>Node1&#45;&gt;Node3</title>
<path fill="none" stroke="#191970" d="M30.4726,-152.8001C41.1065,-161.4084 57.6985,-173.6711 74,-181 79.4232,-183.4382 85.2065,-185.5929 91.0766,-187.4907"/>
<polygon fill="#191970" stroke="#191970" points="90.4062,-190.943 100.9894,-190.4465 92.4066,-184.2349 90.4062,-190.943"/>
</g>
<!-- Node4 -->
<g id="node4" class="node">
<title>Node4</title>
<g id="a_node4"><a xlink:href="classhandy_1_1Logger.html#ad096978e08b310f1456742540e746893" target="_top" xlink:title="设置日志文件名称 ">
<polygon fill="#ffffff" stroke="#000000" points="74,-152.5 74,-171.5 229,-171.5 229,-152.5 74,-152.5"/>
<text text-anchor="middle" x="151.5" y="-159.5" font-family="Helvetica,sans-Serif" font-size="10.00" fill="#000000">handy::Logger::setLogFileName</text>
</a>
</g>
</g>
<!-- Node1&#45;&gt;Node4 -->
<g id="edge3" class="edge">
<title>Node1&#45;&gt;Node4</title>
<path fill="none" stroke="#191970" d="M38.2666,-145.7628C48.3739,-147.2121 61.4872,-149.0925 75.1883,-151.0572"/>
<polygon fill="#191970" stroke="#191970" points="74.8385,-154.5428 85.2341,-152.4977 75.8322,-147.6136 74.8385,-154.5428"/>
</g>
<!-- Node6 -->
<g id="node6" class="node">
<title>Node6</title>
<g id="a_node6"><a xlink:href="classhandy_1_1Logger.html#a52bd5919c0b225d6053498c8ecaed1a5" target="_top" xlink:title="将当前日志文件清空 ">
<polygon fill="#ffffff" stroke="#000000" points="99,-114.5 99,-133.5 204,-133.5 204,-114.5 99,-114.5"/>
<text text-anchor="middle" x="151.5" y="-121.5" font-family="Helvetica,sans-Serif" font-size="10.00" fill="#000000">handy::Logger::clear</text>
</a>
</g>
</g>
<!-- Node1&#45;&gt;Node6 -->
<g id="edge5" class="edge">
<title>Node1&#45;&gt;Node6</title>
<path fill="none" stroke="#191970" d="M38.2666,-140.2372C51.6503,-138.3181 70.3046,-135.6431 88.6153,-133.0174"/>
<polygon fill="#191970" stroke="#191970" points="89.3149,-136.453 98.7168,-131.5689 88.3212,-129.5239 89.3149,-136.453"/>
</g>
<!-- Node7 -->
<g id="node7" class="node">
<title>Node7</title>
<g id="a_node7"><a xlink:href="chat_8cpp.html#a43afabee594de427107db4086a489789" target="_top" xlink:title="sigIntHandler">
<polygon fill="#ffffff" stroke="#000000" points="114.5,-76.5 114.5,-95.5 188.5,-95.5 188.5,-76.5 114.5,-76.5"/>
<text text-anchor="middle" x="151.5" y="-83.5" font-family="Helvetica,sans-Serif" font-size="10.00" fill="#000000">sigIntHandler</text>
</a>
</g>
</g>
<!-- Node1&#45;&gt;Node7 -->
<g id="edge6" class="edge">
<title>Node1&#45;&gt;Node7</title>
<path fill="none" stroke="#191970" d="M30.4726,-133.1999C41.1065,-124.5916 57.6985,-112.3289 74,-105 83.575,-100.6952 94.2724,-97.2741 104.5887,-94.5907"/>
<polygon fill="#191970" stroke="#191970" points="105.4163,-97.9915 114.3136,-92.2393 103.7711,-91.1876 105.4163,-97.9915"/>
</g>
<!-- Node10 -->
<g id="node10" class="node">
<title>Node10</title>
<g id="a_node10"><a xlink:href="classhandy_1_1HSHA.html#ae471b457e5d21f89d10c67b2609ceed2" target="_top" xlink:title="HSHA智能指针类型定义 ">
<polygon fill="#ffffff" stroke="#000000" points="86,-38.5 86,-57.5 217,-57.5 217,-38.5 86,-38.5"/>
<text text-anchor="middle" x="151.5" y="-45.5" font-family="Helvetica,sans-Serif" font-size="10.00" fill="#000000">handy::HSHA::startServer</text>
</a>
</g>
</g>
<!-- Node1&#45;&gt;Node10 -->
<g id="edge9" class="edge">
<title>Node1&#45;&gt;Node10</title>
<path fill="none" stroke="#191970" d="M23.2033,-133.3806C30.8431,-117.0697 48.5975,-84.0963 74,-67 76.963,-65.0059 80.1152,-63.2207 83.3885,-61.6226"/>
<polygon fill="#191970" stroke="#191970" points="85.039,-64.7243 92.8771,-57.596 82.3044,-58.2805 85.039,-64.7243"/>
</g>
<!-- Node5 -->
<g id="node5" class="node">
<title>Node5</title>
<g id="a_node5"><a xlink:href="classhandy_1_1Logger.html#a1f5d1fab0756d1df799e204499faa012" target="_top" xlink:title="获取当前时间戳（秒） ">
<polygon fill="#ffffff" stroke="#000000" points="273.5,-147 273.5,-177 403.5,-177 403.5,-147 273.5,-147"/>
<text text-anchor="start" x="281.5" y="-165" font-family="Helvetica,sans-Serif" font-size="10.00" fill="#000000">handy::Logger::getCurrent</text>
<text text-anchor="middle" x="338.5" y="-154" font-family="Helvetica,sans-Serif" font-size="10.00" fill="#000000">TimeStamp</text>
</a>
</g>
</g>
<!-- Node4&#45;&gt;Node5 -->
<g id="edge4" class="edge">
<title>Node4&#45;&gt;Node5</title>
<path fill="none" stroke="#191970" d="M229.1803,-162C240.3973,-162 251.9271,-162 263.0985,-162"/>
<polygon fill="#191970" stroke="#191970" points="263.238,-165.5001 273.238,-162 263.238,-158.5001 263.238,-165.5001"/>
</g>
<!-- Node8 -->
<g id="node8" class="node">
<title>Node8</title>
<g id="a_node8"><a xlink:href="classhandy_1_1EventBase.html#a47358c5f8dc93868d8b80190984c169f" target="_top" xlink:title="退出事件循环（线程安全） ">
<polygon fill="#ffffff" stroke="#000000" points="279,-76.5 279,-95.5 398,-95.5 398,-76.5 279,-76.5"/>
<text text-anchor="middle" x="338.5" y="-83.5" font-family="Helvetica,sans-Serif" font-size="10.00" fill="#000000">handy::EventBase::exit</text>
</a>
</g>
</g>
<!-- Node7&#45;&gt;Node8 -->
<g id="edge7" class="edge">
<title>Node7&#45;&gt;Node8</title>
<path fill="none" stroke="#191970" d="M188.8928,-86C211.6699,-86 241.4961,-86 268.5193,-86"/>
<polygon fill="#191970" stroke="#191970" points="268.7184,-89.5001 278.7184,-86 268.7183,-82.5001 268.7184,-89.5001"/>
</g>
<!-- Node9 -->
<g id="node9" class="node">
<title>Node9</title>
<g id="a_node9"><a xlink:href="classhandy_1_1EventBase.html#a54e0450f295724a37aa7ff0404058fb7" target="_top" xlink:title="唤醒事件循环（线程安全） ">
<polygon fill="#ffffff" stroke="#000000" points="451,-76.5 451,-95.5 588,-95.5 588,-76.5 451,-76.5"/>
<text text-anchor="middle" x="519.5" y="-83.5" font-family="Helvetica,sans-Serif" font-size="10.00" fill="#000000">handy::EventBase::wakeup</text>
</a>
</g>
</g>
<!-- Node8&#45;&gt;Node9 -->
<g id="edge8" class="edge">
<title>Node8&#45;&gt;Node9</title>
<path fill="none" stroke="#191970" d="M398.0169,-86C411.6144,-86 426.2732,-86 440.5429,-86"/>
<polygon fill="#191970" stroke="#191970" points="440.8439,-89.5001 450.8438,-86 440.8438,-82.5001 440.8439,-89.5001"/>
</g>
<!-- Node11 -->
<g id="node11" class="node">
<title>Node11</title>
<g id="a_node11"><a xlink:href="classhandy_1_1HSHA.html#ad520594fb1667611f45c268b8b2054ae" target="_top" xlink:title="构造函数 ">
<polygon fill="#ffffff" stroke="#000000" points="282.5,-38.5 282.5,-57.5 394.5,-57.5 394.5,-38.5 282.5,-38.5"/>
<text text-anchor="middle" x="338.5" y="-45.5" font-family="Helvetica,sans-Serif" font-size="10.00" fill="#000000">handy::HSHA::HSHA</text>
</a>
</g>
</g>
<!-- Node10&#45;&gt;Node11 -->
<g id="edge10" class="edge">
<title>Node10&#45;&gt;Node11</title>
<path fill="none" stroke="#191970" d="M217.1663,-48C234.9368,-48 254.1833,-48 271.9992,-48"/>
<polygon fill="#191970" stroke="#191970" points="272.3018,-51.5001 282.3017,-48 272.3017,-44.5001 272.3018,-51.5001"/>
</g>
<!-- Node12 -->
<g id="node12" class="node">
<title>Node12</title>
<g id="a_node12"><a xlink:href="classhandy_1_1TcpServer.html#a088308ea460256efa88abf76e1867dd3" target="_top" xlink:title="启动一个TCP服务器 ">
<polygon fill="#ffffff" stroke="#000000" points="265,-.5 265,-19.5 412,-19.5 412,-.5 265,-.5"/>
<text text-anchor="middle" x="338.5" y="-7.5" font-family="Helvetica,sans-Serif" font-size="10.00" fill="#000000">handy::TcpServer::startServer</text>
</a>
</g>
</g>
<!-- Node10&#45;&gt;Node12 -->
<g id="edge11" class="edge">
<title>Node10&#45;&gt;Node12</title>
<path fill="none" stroke="#191970" d="M198.688,-38.411C223.9205,-33.2835 255.173,-26.9328 281.7268,-21.5368"/>
<polygon fill="#191970" stroke="#191970" points="282.5486,-24.9414 291.6513,-19.5201 281.1546,-18.0816 282.5486,-24.9414"/>
</g>
<!-- Node13 -->
<g id="node13" class="node">
<title>Node13</title>
<g id="a_node13"><a xlink:href="classhandy_1_1TcpServer.html#a28b2e607dd22ae09a66da113805c9d87" target="_top" xlink:title="TcpServer智能指针类型定义 ">
<polygon fill="#ffffff" stroke="#000000" points="448,-.5 448,-19.5 591,-19.5 591,-.5 448,-.5"/>
<text text-anchor="middle" x="519.5" y="-7.5" font-family="Helvetica,sans-Serif" font-size="10.00" fill="#000000">handy::TcpServer::TcpServer</text>
</a>
</g>
</g>
<!-- Node12&#45;&gt;Node13 -->
<g id="edge12" class="edge">
<title>Node12&#45;&gt;Node13</title>
<path fill="none" stroke="#191970" d="M412.1196,-10C420.6315,-10 429.3499,-10 437.9591,-10"/>
<polygon fill="#191970" stroke="#191970" points="437.9965,-13.5001 447.9965,-10 437.9965,-6.5001 437.9965,-13.5001"/>
</g>
</g>
</svg>
