<?xml version="1.0" encoding="UTF-8" standalone="no"?>
<!DOCTYPE svg PUBLIC "-//W3C//DTD SVG 1.1//EN"
 "http://www.w3.org/Graphics/SVG/1.1/DTD/svg11.dtd">
<!-- Generated by graphviz version 2.40.1 (0)
 -->
<!-- Title: handy::httpTest::testHttpResponseDecode Pages: 1 -->
<svg width="820pt" height="420pt"
 viewBox="0.00 0.00 820.00 419.50" xmlns="http://www.w3.org/2000/svg" xmlns:xlink="http://www.w3.org/1999/xlink">
<g id="graph0" class="graph" transform="scale(1 1) rotate(0) translate(4 415.5)">
<title>handy::httpTest::testHttpResponseDecode</title>
<polygon fill="#ffffff" stroke="transparent" points="-4,4 -4,-415.5 816,-415.5 816,4 -4,4"/>
<!-- Node1 -->
<g id="node1" class="node">
<title>Node1</title>
<polygon fill="#bfbfbf" stroke="#000000" points="0,-129.5 0,-159.5 125,-159.5 125,-129.5 0,-129.5"/>
<text text-anchor="start" x="8" y="-147.5" font-family="Helvetica,sans-Serif" font-size="10.00" fill="#000000">handy::httpTest::testHttp</text>
<text text-anchor="middle" x="62.5" y="-136.5" font-family="Helvetica,sans-Serif" font-size="10.00" fill="#000000">ResponseDecode</text>
</g>
<!-- Node2 -->
<g id="node2" class="node">
<title>Node2</title>
<g id="a_node2"><a xlink:href="classhandy_1_1HttpResponse.html#aff04a28503872c7f918d17fcc36835fe" target="_top" xlink:title="从缓冲区解码响应 ">
<polygon fill="#ffffff" stroke="#000000" points="169,-186.5 169,-216.5 281,-216.5 281,-186.5 169,-186.5"/>
<text text-anchor="start" x="177" y="-204.5" font-family="Helvetica,sans-Serif" font-size="10.00" fill="#000000">handy::HttpResponse</text>
<text text-anchor="middle" x="225" y="-193.5" font-family="Helvetica,sans-Serif" font-size="10.00" fill="#000000">::tryDecode</text>
</a>
</g>
</g>
<!-- Node1&#45;&gt;Node2 -->
<g id="edge1" class="edge">
<title>Node1&#45;&gt;Node2</title>
<path fill="none" stroke="#191970" d="M105.6204,-159.6253C126.0865,-166.8042 150.727,-175.4473 172.2936,-183.0122"/>
<polygon fill="#191970" stroke="#191970" points="171.3655,-186.3957 181.9603,-186.403 173.6825,-179.7903 171.3655,-186.3957"/>
</g>
<!-- Node13 -->
<g id="node13" class="node">
<title>Node13</title>
<g id="a_node13"><a xlink:href="classhandy_1_1HttpMsg.html#a787d8f3958332225f99d196a901589a5" target="_top" xlink:title="获取指定头部字段对应的值 ">
<polygon fill="#ffffff" stroke="#000000" points="504,-.5 504,-30.5 641,-30.5 641,-.5 504,-.5"/>
<text text-anchor="start" x="512" y="-18.5" font-family="Helvetica,sans-Serif" font-size="10.00" fill="#000000">handy::HttpMsg::getHeader</text>
<text text-anchor="middle" x="572.5" y="-7.5" font-family="Helvetica,sans-Serif" font-size="10.00" fill="#000000">Value</text>
</a>
</g>
</g>
<!-- Node1&#45;&gt;Node13 -->
<g id="edge25" class="edge">
<title>Node1&#45;&gt;Node13</title>
<path fill="none" stroke="#191970" d="M76.8941,-129.2884C94.7704,-111.4537 127.0754,-82.5493 161,-68.5 270.1953,-23.2788 408.4605,-14.2531 493.6741,-13.6017"/>
<polygon fill="#191970" stroke="#191970" points="493.8113,-17.1013 503.7975,-13.5619 493.7837,-10.1013 493.8113,-17.1013"/>
</g>
<!-- Node16 -->
<g id="node16" class="node">
<title>Node16</title>
<g id="a_node16"><a xlink:href="classhandy_1_1Slice.html#a853af4383711ab615372f9d238255c54" target="_top" xlink:title="转换为std::string ">
<polygon fill="#ffffff" stroke="#000000" points="341.5,-392 341.5,-411 451.5,-411 451.5,-392 341.5,-392"/>
<text text-anchor="middle" x="396.5" y="-399" font-family="Helvetica,sans-Serif" font-size="10.00" fill="#000000">handy::Slice::toString</text>
</a>
</g>
</g>
<!-- Node1&#45;&gt;Node16 -->
<g id="edge28" class="edge">
<title>Node1&#45;&gt;Node16</title>
<path fill="none" stroke="#191970" d="M75.4132,-159.5974C111.081,-200.4138 215.5794,-314.1375 325,-377.5 332.4113,-381.7917 340.7028,-385.457 348.9409,-388.5359"/>
<polygon fill="#191970" stroke="#191970" points="347.9365,-391.8923 358.5314,-391.8832 350.2433,-385.2833 347.9365,-391.8923"/>
</g>
<!-- Node17 -->
<g id="node17" class="node">
<title>Node17</title>
<g id="a_node17"><a xlink:href="classhandy_1_1HttpMsg.html#a4b4df56bce592a87f451101af3a3b46f" target="_top" xlink:title="获取消息体内容 ">
<polygon fill="#ffffff" stroke="#000000" points="161,-78 161,-97 289,-97 289,-78 161,-78"/>
<text text-anchor="middle" x="225" y="-85" font-family="Helvetica,sans-Serif" font-size="10.00" fill="#000000">handy::HttpMsg::getBody</text>
</a>
</g>
</g>
<!-- Node1&#45;&gt;Node17 -->
<g id="edge26" class="edge">
<title>Node1&#45;&gt;Node17</title>
<path fill="none" stroke="#191970" d="M105.6204,-129.3747C131.2389,-120.3885 163.398,-109.1081 187.8818,-100.5199"/>
<polygon fill="#191970" stroke="#191970" points="189.2496,-103.7493 197.5275,-97.1365 186.9326,-97.1438 189.2496,-103.7493"/>
</g>
<!-- Node3 -->
<g id="node3" class="node">
<title>Node3</title>
<g id="a_node3"><a xlink:href="classhandy_1_1HttpMsg.html#a035dca54b0b58b34ba00876b3db36f59" target="_top" xlink:title="已解析的字节数 ">
<polygon fill="#ffffff" stroke="#000000" points="325,-164 325,-183 468,-183 468,-164 325,-164"/>
<text text-anchor="middle" x="396.5" y="-171" font-family="Helvetica,sans-Serif" font-size="10.00" fill="#000000">handy::HttpMsg::_tryDecode</text>
</a>
</g>
</g>
<!-- Node2&#45;&gt;Node3 -->
<g id="edge2" class="edge">
<title>Node2&#45;&gt;Node3</title>
<path fill="none" stroke="#191970" d="M281.1555,-192.3318C296.1408,-189.8852 312.5005,-187.2142 328.0659,-184.6729"/>
<polygon fill="#191970" stroke="#191970" points="328.8521,-188.091 338.1575,-183.0253 327.7241,-181.1824 328.8521,-188.091"/>
</g>
<!-- Node4 -->
<g id="node4" class="node">
<title>Node4</title>
<g id="a_node4"><a xlink:href="classhandy_1_1Slice.html#a229c81ddfceb6b035b4e0325d8f5fac6" target="_top" xlink:title="获取数据起始指针（非空） ">
<polygon fill="#ffffff" stroke="#000000" points="525,-88 525,-107 620,-107 620,-88 525,-88"/>
<text text-anchor="middle" x="572.5" y="-95" font-family="Helvetica,sans-Serif" font-size="10.00" fill="#000000">handy::Slice::data</text>
</a>
</g>
</g>
<!-- Node2&#45;&gt;Node4 -->
<g id="edge20" class="edge">
<title>Node2&#45;&gt;Node4</title>
<path fill="none" stroke="#191970" d="M252.7789,-186.4814C272.4833,-176.3201 299.7991,-163.2125 325,-154.5 388.3545,-132.597 463.7462,-116.6066 514.5357,-107.2307"/>
<polygon fill="#191970" stroke="#191970" points="515.4584,-110.6204 524.6706,-105.3873 514.2057,-103.7334 515.4584,-110.6204"/>
</g>
<!-- Node5 -->
<g id="node5" class="node">
<title>Node5</title>
<g id="a_node5"><a xlink:href="classhandy_1_1Slice.html#aa9c41a7c077cb18809a408d429587b3c" target="_top" xlink:title="获取视图长度 ">
<polygon fill="#ffffff" stroke="#000000" points="697,-297 697,-316 792,-316 792,-297 697,-297"/>
<text text-anchor="middle" x="744.5" y="-304" font-family="Helvetica,sans-Serif" font-size="10.00" fill="#000000">handy::Slice::size</text>
</a>
</g>
</g>
<!-- Node2&#45;&gt;Node5 -->
<g id="edge21" class="edge">
<title>Node2&#45;&gt;Node5</title>
<path fill="none" stroke="#191970" d="M253.7814,-216.5999C265.8613,-224.0367 279.3212,-233.9077 289,-245.5 313.9888,-275.4292 292.4969,-303.9653 325,-325.5 447.4356,-406.6189 636.9554,-348.3013 712.1577,-319.7678"/>
<polygon fill="#191970" stroke="#191970" points="713.5175,-322.9945 721.5792,-316.1199 710.99,-316.4667 713.5175,-322.9945"/>
</g>
<!-- Node9 -->
<g id="node9" class="node">
<title>Node9</title>
<g id="a_node9"><a xlink:href="classhandy_1_1Slice.html#a357b22a45d5ee301fe4cec8ab34233fe" target="_top" xlink:title="判断视图是否为空 ">
<polygon fill="#ffffff" stroke="#000000" points="520.5,-50 520.5,-69 624.5,-69 624.5,-50 520.5,-50"/>
<text text-anchor="middle" x="572.5" y="-57" font-family="Helvetica,sans-Serif" font-size="10.00" fill="#000000">handy::Slice::empty</text>
</a>
</g>
</g>
<!-- Node2&#45;&gt;Node9 -->
<g id="edge17" class="edge">
<title>Node2&#45;&gt;Node9</title>
<path fill="none" stroke="#191970" d="M237.5309,-186.4287C254.9878,-166.4834 288.6055,-131.7234 325,-113.5 383.0666,-84.4249 404.5737,-97.4352 468,-83.5 485.6299,-79.6266 504.8974,-75.2441 522.0323,-71.2939"/>
<polygon fill="#191970" stroke="#191970" points="522.8915,-74.6877 531.8462,-69.0252 521.3148,-67.8676 522.8915,-74.6877"/>
</g>
<!-- Node12 -->
<g id="node12" class="node">
<title>Node12</title>
<g id="a_node12"><a xlink:href="classhandy_1_1Slice.html#a9942173fc598137ca9d959ed8cb39fe7" target="_top" xlink:title="移除前后空白字符（修改当前视图） ">
<polygon fill="#ffffff" stroke="#000000" points="512,-278 512,-297 633,-297 633,-278 512,-278"/>
<text text-anchor="middle" x="572.5" y="-285" font-family="Helvetica,sans-Serif" font-size="10.00" fill="#000000">handy::Slice::trimSpace</text>
</a>
</g>
</g>
<!-- Node2&#45;&gt;Node12 -->
<g id="edge22" class="edge">
<title>Node2&#45;&gt;Node12</title>
<path fill="none" stroke="#191970" d="M281.2181,-215.413C348.6822,-232.1091 460.6507,-259.8193 524.3228,-275.577"/>
<polygon fill="#191970" stroke="#191970" points="523.5649,-278.995 534.1129,-277.9999 525.2466,-272.2 523.5649,-278.995"/>
</g>
<!-- Node15 -->
<g id="node15" class="node">
<title>Node15</title>
<g id="a_node15"><a xlink:href="classhandy_1_1Slice.html#a0570587beb57c84ab21c74015c299443" target="_top" xlink:title="吞噬一个单词（跳过前导空白，直到下一个空白) ">
<polygon fill="#ffffff" stroke="#000000" points="340,-297 340,-316 453,-316 453,-297 340,-297"/>
<text text-anchor="middle" x="396.5" y="-304" font-family="Helvetica,sans-Serif" font-size="10.00" fill="#000000">handy::Slice::eatWord</text>
</a>
</g>
</g>
<!-- Node2&#45;&gt;Node15 -->
<g id="edge18" class="edge">
<title>Node2&#45;&gt;Node15</title>
<path fill="none" stroke="#191970" d="M249.5718,-216.5439C282.1109,-236.4659 339.1738,-271.4023 371.7848,-291.3683"/>
<polygon fill="#191970" stroke="#191970" points="370.3242,-294.5779 380.6803,-296.8145 373.9793,-288.6079 370.3242,-294.5779"/>
</g>
<!-- Node2&#45;&gt;Node16 -->
<g id="edge23" class="edge">
<title>Node2&#45;&gt;Node16</title>
<path fill="none" stroke="#191970" d="M232.7408,-216.5169C253.6946,-256.9558 310.8939,-365.8821 325,-377.5 330.0409,-381.6518 335.8315,-385.0968 341.8884,-387.9528"/>
<polygon fill="#191970" stroke="#191970" points="340.9786,-391.365 351.556,-391.973 343.6664,-384.9015 340.9786,-391.365"/>
</g>
<!-- Node3&#45;&gt;Node4 -->
<g id="edge3" class="edge">
<title>Node3&#45;&gt;Node4</title>
<path fill="none" stroke="#191970" d="M434.5286,-163.9859C445.7355,-160.3358 457.7368,-155.5534 468,-149.5 486.6954,-138.4731 485.0175,-127.025 504,-116.5 507.9935,-114.2858 512.2636,-112.3147 516.6468,-110.5627"/>
<polygon fill="#191970" stroke="#191970" points="518.1353,-113.7469 526.3599,-107.0681 515.7655,-107.1602 518.1353,-113.7469"/>
</g>
<!-- Node3&#45;&gt;Node5 -->
<g id="edge4" class="edge">
<title>Node3&#45;&gt;Node5</title>
<path fill="none" stroke="#191970" d="M412.0122,-183.1116C432.462,-195.454 469.8526,-216.8985 504,-230.5 562.7023,-253.8822 580.8478,-249.1506 641,-268.5 664.4893,-276.0559 690.5657,-285.6374 710.668,-293.2887"/>
<polygon fill="#191970" stroke="#191970" points="709.4287,-296.562 720.019,-296.8725 711.9338,-290.0255 709.4287,-296.562"/>
</g>
<!-- Node6 -->
<g id="node6" class="node">
<title>Node6</title>
<g id="a_node6"><a xlink:href="classhandy_1_1Slice.html#a8d8fabf867b1d5c94f33dd1d1481da7f" target="_top" xlink:title="吞噬一行（直到 或 ，兼容 Windows/Linux 换行） ">
<polygon fill="#ffffff" stroke="#000000" points="518.5,-126 518.5,-145 626.5,-145 626.5,-126 518.5,-126"/>
<text text-anchor="middle" x="572.5" y="-133" font-family="Helvetica,sans-Serif" font-size="10.00" fill="#000000">handy::Slice::eatLine</text>
</a>
</g>
</g>
<!-- Node3&#45;&gt;Node6 -->
<g id="edge5" class="edge">
<title>Node3&#45;&gt;Node6</title>
<path fill="none" stroke="#191970" d="M440.9122,-163.911C464.4512,-158.8287 493.5567,-152.5446 518.4048,-147.1797"/>
<polygon fill="#191970" stroke="#191970" points="519.3711,-150.5518 528.4071,-145.0201 517.8937,-143.7094 519.3711,-150.5518"/>
</g>
<!-- Node3&#45;&gt;Node9 -->
<g id="edge8" class="edge">
<title>Node3&#45;&gt;Node9</title>
<path fill="none" stroke="#191970" d="M407.7294,-163.9293C421.8813,-151.8297 446.9067,-130.3067 468,-111.5 484.2008,-97.0554 485.0175,-89.025 504,-78.5 507.9935,-76.2858 512.2636,-74.3147 516.6468,-72.5627"/>
<polygon fill="#191970" stroke="#191970" points="518.1353,-75.7469 526.3599,-69.0681 515.7655,-69.1602 518.1353,-75.7469"/>
</g>
<!-- Node10 -->
<g id="node10" class="node">
<title>Node10</title>
<g id="a_node10"><a xlink:href="classhandy_1_1Slice.html#acab150e3649842deedd9bdd86592ba51" target="_top" xlink:title="吞噬直到终止符号出现(终止符号也会被吞噬) ">
<polygon fill="#ffffff" stroke="#000000" points="517.5,-164 517.5,-183 627.5,-183 627.5,-164 517.5,-164"/>
<text text-anchor="middle" x="572.5" y="-171" font-family="Helvetica,sans-Serif" font-size="10.00" fill="#000000">handy::Slice::eatUntil</text>
</a>
</g>
</g>
<!-- Node3&#45;&gt;Node10 -->
<g id="edge9" class="edge">
<title>Node3&#45;&gt;Node10</title>
<path fill="none" stroke="#191970" d="M468.0859,-173.5C481.0773,-173.5 494.5634,-173.5 507.357,-173.5"/>
<polygon fill="#191970" stroke="#191970" points="507.4461,-177.0001 517.4461,-173.5 507.4461,-170.0001 507.4461,-177.0001"/>
</g>
<!-- Node11 -->
<g id="node11" class="node">
<title>Node11</title>
<g id="a_node11"><a xlink:href="classhandy_1_1Slice.html#a026c61a30fbf8675933fb9a6bfb56530" target="_top" xlink:title="获取子视图（支持负偏移） ">
<polygon fill="#ffffff" stroke="#000000" points="526.5,-202 526.5,-221 618.5,-221 618.5,-202 526.5,-202"/>
<text text-anchor="middle" x="572.5" y="-209" font-family="Helvetica,sans-Serif" font-size="10.00" fill="#000000">handy::Slice::sub</text>
</a>
</g>
</g>
<!-- Node3&#45;&gt;Node11 -->
<g id="edge11" class="edge">
<title>Node3&#45;&gt;Node11</title>
<path fill="none" stroke="#191970" d="M440.9122,-183.089C464.4512,-188.1713 493.5567,-194.4554 518.4048,-199.8203"/>
<polygon fill="#191970" stroke="#191970" points="517.8937,-203.2906 528.4071,-201.9799 519.3711,-196.4482 517.8937,-203.2906"/>
</g>
<!-- Node3&#45;&gt;Node12 -->
<g id="edge14" class="edge">
<title>Node3&#45;&gt;Node12</title>
<path fill="none" stroke="#191970" d="M416.651,-183.0086C431.7681,-190.7328 452.4471,-202.6009 468,-216.5 487.6196,-234.0333 482.6936,-248.0603 504,-263.5 509.8926,-267.7701 516.6126,-271.335 523.4867,-274.2956"/>
<polygon fill="#191970" stroke="#191970" points="522.3047,-277.5913 532.8929,-277.9676 524.8503,-271.0706 522.3047,-277.5913"/>
</g>
<!-- Node3&#45;&gt;Node13 -->
<g id="edge15" class="edge">
<title>Node3&#45;&gt;Node13</title>
<path fill="none" stroke="#191970" d="M401.7036,-163.9811C415.3355,-139.8863 454.4815,-75.8882 504,-40.5 506.678,-38.5862 509.5185,-36.8033 512.461,-35.1444"/>
<polygon fill="#191970" stroke="#191970" points="514.2051,-38.1841 521.5339,-30.5329 511.0334,-31.9439 514.2051,-38.1841"/>
</g>
<!-- Node7 -->
<g id="node7" class="node">
<title>Node7</title>
<g id="a_node7"><a xlink:href="classhandy_1_1Slice.html#aade2a2a717f5fdb7ba9fcb36679fa837" target="_top" xlink:title="获取结束迭代器（兼容STL算法） ">
<polygon fill="#ffffff" stroke="#000000" points="698.5,-126 698.5,-145 790.5,-145 790.5,-126 698.5,-126"/>
<text text-anchor="middle" x="744.5" y="-133" font-family="Helvetica,sans-Serif" font-size="10.00" fill="#000000">handy::Slice::end</text>
</a>
</g>
</g>
<!-- Node6&#45;&gt;Node7 -->
<g id="edge6" class="edge">
<title>Node6&#45;&gt;Node7</title>
<path fill="none" stroke="#191970" d="M626.9219,-135.5C646.4496,-135.5 668.4999,-135.5 688.185,-135.5"/>
<polygon fill="#191970" stroke="#191970" points="688.2375,-139.0001 698.2375,-135.5 688.2375,-132.0001 688.2375,-139.0001"/>
</g>
<!-- Node8 -->
<g id="node8" class="node">
<title>Node8</title>
<g id="a_node8"><a xlink:href="classhandy_1_1Slice.html#aa8b651518d868af04c7f053f1783b9c7" target="_top" xlink:title="默认构造：空视图 ">
<polygon fill="#ffffff" stroke="#000000" points="695.5,-183 695.5,-202 793.5,-202 793.5,-183 695.5,-183"/>
<text text-anchor="middle" x="744.5" y="-190" font-family="Helvetica,sans-Serif" font-size="10.00" fill="#000000">handy::Slice::Slice</text>
</a>
</g>
</g>
<!-- Node6&#45;&gt;Node8 -->
<g id="edge7" class="edge">
<title>Node6&#45;&gt;Node8</title>
<path fill="none" stroke="#191970" d="M608.9246,-145.0114C619.3363,-147.8899 630.6613,-151.1743 641,-154.5 664.4893,-162.0559 690.5657,-171.6374 710.668,-179.2887"/>
<polygon fill="#191970" stroke="#191970" points="709.4287,-182.562 720.019,-182.8725 711.9338,-176.0255 709.4287,-182.562"/>
</g>
<!-- Node10&#45;&gt;Node8 -->
<g id="edge10" class="edge">
<title>Node10&#45;&gt;Node8</title>
<path fill="none" stroke="#191970" d="M627.8686,-179.6163C646.1809,-181.6392 666.6245,-183.8975 685.2181,-185.9514"/>
<polygon fill="#191970" stroke="#191970" points="685.0084,-189.4495 695.3322,-187.0687 685.777,-182.4918 685.0084,-189.4495"/>
</g>
<!-- Node11&#45;&gt;Node5 -->
<g id="edge12" class="edge">
<title>Node11&#45;&gt;Node5</title>
<path fill="none" stroke="#191970" d="M605.2878,-221.028C616.8493,-224.8945 629.7602,-229.8029 641,-235.5 671.9831,-251.2045 704.5122,-274.881 724.6483,-290.5118"/>
<polygon fill="#191970" stroke="#191970" points="722.7054,-293.4366 732.7283,-296.8706 727.0344,-287.9358 722.7054,-293.4366"/>
</g>
<!-- Node11&#45;&gt;Node8 -->
<g id="edge13" class="edge">
<title>Node11&#45;&gt;Node8</title>
<path fill="none" stroke="#191970" d="M618.5928,-206.4083C639.038,-204.1499 663.3496,-201.4643 685.1322,-199.0581"/>
<polygon fill="#191970" stroke="#191970" points="685.7105,-202.5156 695.2657,-197.9387 684.9418,-195.5579 685.7105,-202.5156"/>
</g>
<!-- Node14 -->
<g id="node14" class="node">
<title>Node14</title>
<g id="a_node14"><a xlink:href="classhandy_1_1HttpMsg.html#a0f16575d0b9bf5afc37c1c60483ae1a9" target="_top" xlink:title="内部函数，从映射表中获取指定键的值（不区分大小写） ">
<polygon fill="#ffffff" stroke="#000000" points="677,-.5 677,-30.5 812,-30.5 812,-.5 677,-.5"/>
<text text-anchor="start" x="685" y="-18.5" font-family="Helvetica,sans-Serif" font-size="10.00" fill="#000000">handy::HttpMsg::_getValue</text>
<text text-anchor="middle" x="744.5" y="-7.5" font-family="Helvetica,sans-Serif" font-size="10.00" fill="#000000">FromMap</text>
</a>
</g>
</g>
<!-- Node13&#45;&gt;Node14 -->
<g id="edge16" class="edge">
<title>Node13&#45;&gt;Node14</title>
<path fill="none" stroke="#191970" d="M641.4679,-15.5C649.7735,-15.5 658.2998,-15.5 666.7201,-15.5"/>
<polygon fill="#191970" stroke="#191970" points="666.9164,-19.0001 676.9164,-15.5 666.9164,-12.0001 666.9164,-19.0001"/>
</g>
<!-- Node15&#45;&gt;Node8 -->
<g id="edge19" class="edge">
<title>Node15&#45;&gt;Node8</title>
<path fill="none" stroke="#191970" d="M436.6345,-316.0473C486.8179,-325.8978 574.2406,-336.0585 641,-306.5 685.1922,-286.9334 718.5869,-238.1441 734.3935,-211.1678"/>
<polygon fill="#191970" stroke="#191970" points="737.527,-212.737 739.4086,-202.3106 731.4357,-209.288 737.527,-212.737"/>
</g>
<!-- Node16&#45;&gt;Node5 -->
<g id="edge24" class="edge">
<title>Node16&#45;&gt;Node5</title>
<path fill="none" stroke="#191970" d="M451.6387,-403.8133C502.3575,-404.1637 578.8875,-400.1414 641,-377.5 674.3486,-365.3437 707.1631,-339.9107 726.6207,-323.0191"/>
<polygon fill="#191970" stroke="#191970" points="729.1948,-325.4137 734.3399,-316.152 724.5421,-320.1837 729.1948,-325.4137"/>
</g>
<!-- Node17&#45;&gt;Node9 -->
<g id="edge27" class="edge">
<title>Node17&#45;&gt;Node9</title>
<path fill="none" stroke="#191970" d="M289.1418,-82.3317C352.21,-77.25 447.8437,-69.5442 510.2505,-64.5158"/>
<polygon fill="#191970" stroke="#191970" points="510.6662,-67.9937 520.3528,-63.7018 510.1039,-61.0163 510.6662,-67.9937"/>
</g>
</g>
</svg>
