<?xml version="1.0" encoding="UTF-8" standalone="no"?>
<!DOCTYPE svg PUBLIC "-//W3C//DTD SVG 1.1//EN"
 "http://www.w3.org/Graphics/SVG/1.1/DTD/svg11.dtd">
<!-- Generated by graphviz version 2.40.1 (0)
 -->
<!-- Title: handy::Utils::format Pages: 1 -->
<svg width="1427pt" height="719pt"
 viewBox="0.00 0.00 1427.00 719.00" xmlns="http://www.w3.org/2000/svg" xmlns:xlink="http://www.w3.org/1999/xlink">
<g id="graph0" class="graph" transform="scale(1 1) rotate(0) translate(4 715)">
<title>handy::Utils::format</title>
<polygon fill="#ffffff" stroke="transparent" points="-4,4 -4,-715 1423,-715 1423,4 -4,4"/>
<!-- Node1 -->
<g id="node1" class="node">
<title>Node1</title>
<polygon fill="#bfbfbf" stroke="#000000" points="0,-281 0,-300 103,-300 103,-281 0,-281"/>
<text text-anchor="middle" x="51.5" y="-288" font-family="Helvetica,sans-Serif" font-size="10.00" fill="#000000">handy::Utils::format</text>
</g>
<!-- Node2 -->
<g id="node2" class="node">
<title>Node2</title>
<g id="a_node2"><a xlink:href="classhandy_1_1Daemon.html#a4cb915cd68c0d78512ae5790160eb7d7" target="_top" xlink:title="创建子进程并在父进程退出后执行新程序 ">
<polygon fill="#ffffff" stroke="#000000" points="146.5,-532 146.5,-551 280.5,-551 280.5,-532 146.5,-532"/>
<text text-anchor="middle" x="213.5" y="-539" font-family="Helvetica,sans-Serif" font-size="10.00" fill="#000000">handy::Daemon::changeTo</text>
</a>
</g>
</g>
<!-- Node1&#45;&gt;Node2 -->
<g id="edge1" class="edge">
<title>Node1&#45;&gt;Node2</title>
<path fill="none" stroke="#191970" d="M52.9824,-310.3407C57.4307,-355.1881 74.666,-464.9352 139,-522.5 143.2773,-526.3273 148.2197,-529.4049 153.4829,-531.8767"/>
<polygon fill="#191970" stroke="#191970" points="56.4516,-309.8364 52.0888,-300.1816 49.4785,-310.4498 56.4516,-309.8364"/>
</g>
<!-- Node3 -->
<g id="node3" class="node">
<title>Node3</title>
<g id="a_node3"><a xlink:href="structhandy_1_1EventsImp.html#a09de5abce0a3e1bb6a33b817b4d0d6ea" target="_top" xlink:title="构造函数：初始化时间派发器内部实现 ">
<polygon fill="#ffffff" stroke="#000000" points="139,-494 139,-513 288,-513 288,-494 139,-494"/>
<text text-anchor="middle" x="213.5" y="-501" font-family="Helvetica,sans-Serif" font-size="10.00" fill="#000000">handy::EventsImp::EventsImp</text>
</a>
</g>
</g>
<!-- Node1&#45;&gt;Node3 -->
<g id="edge2" class="edge">
<title>Node1&#45;&gt;Node3</title>
<path fill="none" stroke="#191970" d="M54.6162,-310.2885C61.8915,-349.6873 83.7659,-438.128 139,-484.5 143.6003,-488.3622 148.8853,-491.4537 154.4721,-493.9261"/>
<polygon fill="#191970" stroke="#191970" points="58.0504,-309.607 52.9029,-300.3467 51.1521,-310.7958 58.0504,-309.607"/>
</g>
<!-- Node4 -->
<g id="node4" class="node">
<title>Node4</title>
<g id="a_node4"><a xlink:href="classhandy_1_1Channel.html#a6799f6e926dd77b91e5280f0128d01b1" target="_top" xlink:title="初始化I/O事件通道 ">
<polygon fill="#ffffff" stroke="#000000" points="150,-456 150,-475 277,-475 277,-456 150,-456"/>
<text text-anchor="middle" x="213.5" y="-463" font-family="Helvetica,sans-Serif" font-size="10.00" fill="#000000">handy::Channel::Channel</text>
</a>
</g>
</g>
<!-- Node1&#45;&gt;Node4 -->
<g id="edge3" class="edge">
<title>Node1&#45;&gt;Node4</title>
<path fill="none" stroke="#191970" d="M56.9763,-310.2696C67.2703,-343.6465 92.7465,-410.996 139,-446.5 144.0824,-450.4012 149.878,-453.5075 155.9408,-455.9797"/>
<polygon fill="#191970" stroke="#191970" points="60.2378,-308.9546 54.0592,-300.348 53.5221,-310.9292 60.2378,-308.9546"/>
</g>
<!-- Node5 -->
<g id="node5" class="node">
<title>Node5</title>
<g id="a_node5"><a xlink:href="classhandy_1_1HttpRequest.html#a31ffcd924278389dbebef51a0a7ba3d7" target="_top" xlink:title="编码请求到缓冲区 ">
<polygon fill="#ffffff" stroke="#000000" points="161.5,-406.5 161.5,-436.5 265.5,-436.5 265.5,-406.5 161.5,-406.5"/>
<text text-anchor="start" x="169.5" y="-424.5" font-family="Helvetica,sans-Serif" font-size="10.00" fill="#000000">handy::HttpRequest</text>
<text text-anchor="middle" x="213.5" y="-413.5" font-family="Helvetica,sans-Serif" font-size="10.00" fill="#000000">::encode</text>
</a>
</g>
</g>
<!-- Node1&#45;&gt;Node5 -->
<g id="edge4" class="edge">
<title>Node1&#45;&gt;Node5</title>
<path fill="none" stroke="#191970" d="M61.8399,-308.7915C76.187,-332.573 104.324,-373.8539 139,-397.5 145.7361,-402.0934 153.407,-405.852 161.2046,-408.9148"/>
<polygon fill="#191970" stroke="#191970" points="64.7918,-306.9061 56.7141,-300.0503 58.7534,-310.447 64.7918,-306.9061"/>
</g>
<!-- Node7 -->
<g id="node7" class="node">
<title>Node7</title>
<g id="a_node7"><a xlink:href="classhandy_1_1HttpResponse.html#a5b1c5770e086e07eea5e7ca0d66ad711" target="_top" xlink:title="编码响应到缓冲区 ">
<polygon fill="#ffffff" stroke="#000000" points="157.5,-357.5 157.5,-387.5 269.5,-387.5 269.5,-357.5 157.5,-357.5"/>
<text text-anchor="start" x="165.5" y="-375.5" font-family="Helvetica,sans-Serif" font-size="10.00" fill="#000000">handy::HttpResponse</text>
<text text-anchor="middle" x="213.5" y="-364.5" font-family="Helvetica,sans-Serif" font-size="10.00" fill="#000000">::encode</text>
</a>
</g>
</g>
<!-- Node1&#45;&gt;Node7 -->
<g id="edge6" class="edge">
<title>Node1&#45;&gt;Node7</title>
<path fill="none" stroke="#191970" d="M72.1228,-306.0923C89.3156,-318.5498 114.8176,-335.8015 139,-347.5 146.4916,-351.1241 154.6429,-354.4406 162.7142,-357.3902"/>
<polygon fill="#191970" stroke="#191970" points="74.0689,-303.1788 63.9405,-300.0697 69.9193,-308.8164 74.0689,-303.1788"/>
</g>
<!-- Node9 -->
<g id="node9" class="node">
<title>Node9</title>
<g id="a_node9"><a xlink:href="classhandy_1_1Ipv4Addr.html#aecdc2af21e4190bd6286b4e5b7fdcb86" target="_top" xlink:title="获取IP地址和端口的字符串表示 ">
<polygon fill="#ffffff" stroke="#000000" points="149.5,-319 149.5,-338 277.5,-338 277.5,-319 149.5,-319"/>
<text text-anchor="middle" x="213.5" y="-326" font-family="Helvetica,sans-Serif" font-size="10.00" fill="#000000">handy::Ipv4Addr::toString</text>
</a>
</g>
</g>
<!-- Node1&#45;&gt;Node9 -->
<g id="edge8" class="edge">
<title>Node1&#45;&gt;Node9</title>
<path fill="none" stroke="#191970" d="M102.2148,-302.3961C124.9856,-307.7374 151.4867,-313.9537 172.9145,-318.9799"/>
<polygon fill="#191970" stroke="#191970" points="102.9145,-298.9653 92.3794,-300.089 101.3159,-305.7803 102.9145,-298.9653"/>
</g>
<!-- Node29 -->
<g id="node29" class="node">
<title>Node29</title>
<g id="a_node29"><a xlink:href="classhandy_1_1Ipv4Addr.html#aa1e3e274ffd85680959b12a1ce1fdd50" target="_top" xlink:title="获取纯IP地址的字符串表示 ">
<polygon fill="#ffffff" stroke="#000000" points="163,-281 163,-300 264,-300 264,-281 163,-281"/>
<text text-anchor="middle" x="213.5" y="-288" font-family="Helvetica,sans-Serif" font-size="10.00" fill="#000000">handy::Ipv4Addr::ip</text>
</a>
</g>
</g>
<!-- Node1&#45;&gt;Node29 -->
<g id="edge32" class="edge">
<title>Node1&#45;&gt;Node29</title>
<path fill="none" stroke="#191970" d="M113.235,-290.5C129.6201,-290.5 147.1216,-290.5 162.841,-290.5"/>
<polygon fill="#191970" stroke="#191970" points="113.2033,-287.0001 103.2032,-290.5 113.2032,-294.0001 113.2033,-287.0001"/>
</g>
<!-- Node31 -->
<g id="node31" class="node">
<title>Node31</title>
<g id="a_node31"><a xlink:href="namespacehandy.html#aad1947bd6f535959d21c2082e540c5a4" target="_top" xlink:title="生成带查询参数的HTML超链接 ">
<polygon fill="#ffffff" stroke="#000000" points="168,-243 168,-262 259,-262 259,-243 168,-243"/>
<text text-anchor="middle" x="213.5" y="-250" font-family="Helvetica,sans-Serif" font-size="10.00" fill="#000000">handy::queryLink</text>
</a>
</g>
</g>
<!-- Node1&#45;&gt;Node31 -->
<g id="edge34" class="edge">
<title>Node1&#45;&gt;Node31</title>
<path fill="none" stroke="#191970" d="M102.2148,-278.6039C124.9856,-273.2626 151.4867,-267.0463 172.9145,-262.0201"/>
<polygon fill="#191970" stroke="#191970" points="101.3159,-275.2197 92.3794,-280.911 102.9145,-282.0347 101.3159,-275.2197"/>
</g>
<!-- Node32 -->
<g id="node32" class="node">
<title>Node32</title>
<g id="a_node32"><a xlink:href="classhandy_1_1StatServer.html#a753158eb7a85145c1b5c73c1e33e8fd8" target="_top" xlink:title="构造函数 ">
<polygon fill="#ffffff" stroke="#000000" points="360,-49.5 360,-79.5 461,-79.5 461,-49.5 360,-49.5"/>
<text text-anchor="start" x="368" y="-67.5" font-family="Helvetica,sans-Serif" font-size="10.00" fill="#000000">handy::StatServer::</text>
<text text-anchor="middle" x="410.5" y="-56.5" font-family="Helvetica,sans-Serif" font-size="10.00" fill="#000000">StatServer</text>
</a>
</g>
</g>
<!-- Node1&#45;&gt;Node32 -->
<g id="edge38" class="edge">
<title>Node1&#45;&gt;Node32</title>
<path fill="none" stroke="#191970" d="M71.6078,-274.6461C88.6724,-261.8895 114.2597,-244.3573 139,-233.5 201.5808,-206.0363 237.8347,-241.9119 288,-195.5 324.5211,-161.7114 288.018,-123.8621 324,-89.5 333.7223,-80.2154 346.6743,-74.3475 359.5889,-70.6486"/>
<polygon fill="#191970" stroke="#191970" points="69.3398,-271.974 63.5106,-280.8211 73.5847,-277.5401 69.3398,-271.974"/>
</g>
<!-- Node33 -->
<g id="node33" class="node">
<title>Node33</title>
<g id="a_node33"><a xlink:href="namespacehandy.html#a335e63f22985ad6959ec101b6c569eb1" target="_top" xlink:title="生成页面跳转的HTML超链接 ">
<polygon fill="#ffffff" stroke="#000000" points="169.5,-167 169.5,-186 257.5,-186 257.5,-167 169.5,-167"/>
<text text-anchor="middle" x="213.5" y="-174" font-family="Helvetica,sans-Serif" font-size="10.00" fill="#000000">handy::pageLink</text>
</a>
</g>
</g>
<!-- Node1&#45;&gt;Node33 -->
<g id="edge36" class="edge">
<title>Node1&#45;&gt;Node33</title>
<path fill="none" stroke="#191970" d="M64.3497,-272.7959C79.892,-252.5823 107.8727,-219.8235 139,-200.5 148.9286,-194.3364 160.5941,-189.6055 171.7089,-186.0402"/>
<polygon fill="#191970" stroke="#191970" points="61.5,-270.7622 58.2971,-280.8613 67.0988,-274.9638 61.5,-270.7622"/>
</g>
<!-- Node34 -->
<g id="node34" class="node">
<title>Node34</title>
<g id="a_node34"><a xlink:href="classhandy_1_1StatServer.html#a81048af2167c93720345b4a287a7074f" target="_top" xlink:title="注册数值型状态信息回调（快捷接口） ">
<polygon fill="#ffffff" stroke="#000000" points="163,-117.5 163,-147.5 264,-147.5 264,-117.5 163,-117.5"/>
<text text-anchor="start" x="171" y="-135.5" font-family="Helvetica,sans-Serif" font-size="10.00" fill="#000000">handy::StatServer::</text>
<text text-anchor="middle" x="213.5" y="-124.5" font-family="Helvetica,sans-Serif" font-size="10.00" fill="#000000">onState</text>
</a>
</g>
</g>
<!-- Node1&#45;&gt;Node34 -->
<g id="edge39" class="edge">
<title>Node1&#45;&gt;Node34</title>
<path fill="none" stroke="#191970" d="M59.0983,-271.5538C71.5611,-242.8134 99.0211,-188.2932 139,-157.5 146.0255,-152.0887 154.2862,-147.8137 162.702,-144.4467"/>
<polygon fill="#191970" stroke="#191970" points="55.8253,-270.3085 55.1898,-280.8842 62.2817,-273.013 55.8253,-270.3085"/>
</g>
<!-- Node35 -->
<g id="node35" class="node">
<title>Node35</title>
<g id="a_node35"><a xlink:href="classhandy_1_1StatServer.html#a920c22305a387baac14a596497be76b8" target="_top" xlink:title="注册数值型命令处理回调（快捷接口） ">
<polygon fill="#ffffff" stroke="#000000" points="163,-68.5 163,-98.5 264,-98.5 264,-68.5 163,-68.5"/>
<text text-anchor="start" x="171" y="-86.5" font-family="Helvetica,sans-Serif" font-size="10.00" fill="#000000">handy::StatServer::</text>
<text text-anchor="middle" x="213.5" y="-75.5" font-family="Helvetica,sans-Serif" font-size="10.00" fill="#000000">onCmd</text>
</a>
</g>
</g>
<!-- Node1&#45;&gt;Node35 -->
<g id="edge40" class="edge">
<title>Node1&#45;&gt;Node35</title>
<path fill="none" stroke="#191970" d="M55.6926,-270.4879C64.5179,-233.2532 88.5029,-153.0767 139,-108.5 145.8527,-102.4508 154.2214,-97.8555 162.8432,-94.3675"/>
<polygon fill="#191970" stroke="#191970" points="52.2029,-270.0542 53.4278,-280.578 59.033,-271.5873 52.2029,-270.0542"/>
</g>
<!-- Node36 -->
<g id="node36" class="node">
<title>Node36</title>
<g id="a_node36"><a xlink:href="classhandy_1_1Status.html#a52189e0c8f37deb78789de48a4cf583a" target="_top" xlink:title="将状态信息转换为字符串 ">
<polygon fill="#ffffff" stroke="#000000" points="155,-22 155,-41 272,-41 272,-22 155,-22"/>
<text text-anchor="middle" x="213.5" y="-29" font-family="Helvetica,sans-Serif" font-size="10.00" fill="#000000">handy::Status::toString</text>
</a>
</g>
</g>
<!-- Node1&#45;&gt;Node36 -->
<g id="edge41" class="edge">
<title>Node1&#45;&gt;Node36</title>
<path fill="none" stroke="#191970" d="M53.4638,-270.4843C58.8596,-226.1571 77.8441,-118.8681 139,-58.5 146.9305,-50.6717 157.3008,-45.0942 167.7732,-41.1269"/>
<polygon fill="#191970" stroke="#191970" points="49.9705,-270.2311 52.3448,-280.5564 56.9277,-271.0041 49.9705,-270.2311"/>
</g>
<!-- Node6 -->
<g id="node6" class="node">
<title>Node6</title>
<g id="a_node6"><a xlink:href="classhandy_1_1HttpConnPtr.html#a918459361f721be5a159092c23d3503e" target="_top" xlink:title="发送指定的请求对象 ">
<polygon fill="#ffffff" stroke="#000000" points="358.5,-680.5 358.5,-710.5 462.5,-710.5 462.5,-680.5 358.5,-680.5"/>
<text text-anchor="start" x="366.5" y="-698.5" font-family="Helvetica,sans-Serif" font-size="10.00" fill="#000000">handy::HttpConnPtr</text>
<text text-anchor="middle" x="410.5" y="-687.5" font-family="Helvetica,sans-Serif" font-size="10.00" fill="#000000">::sendRequest</text>
</a>
</g>
</g>
<!-- Node5&#45;&gt;Node6 -->
<g id="edge5" class="edge">
<title>Node5&#45;&gt;Node6</title>
<path fill="none" stroke="#191970" d="M274.9215,-435.5633C279.8291,-438.5391 284.3072,-442.141 288,-446.5 353.4612,-523.7711 256.51,-595.9944 324,-671.5 332.8281,-681.3766 345.33,-687.3404 358.0927,-690.9009"/>
<polygon fill="#191970" stroke="#191970" points="276.1985,-432.2855 265.7007,-430.8547 273.015,-438.5197 276.1985,-432.2855"/>
</g>
<!-- Node8 -->
<g id="node8" class="node">
<title>Node8</title>
<g id="a_node8"><a xlink:href="classhandy_1_1HttpConnPtr.html#ab6e45a0b670d2bd094c00d320a374ebf" target="_top" xlink:title="发送指定响应的对象 ">
<polygon fill="#ffffff" stroke="#000000" points="358.5,-631.5 358.5,-661.5 462.5,-661.5 462.5,-631.5 358.5,-631.5"/>
<text text-anchor="start" x="366.5" y="-649.5" font-family="Helvetica,sans-Serif" font-size="10.00" fill="#000000">handy::HttpConnPtr</text>
<text text-anchor="middle" x="410.5" y="-638.5" font-family="Helvetica,sans-Serif" font-size="10.00" fill="#000000">::sendResponse</text>
</a>
</g>
</g>
<!-- Node7&#45;&gt;Node8 -->
<g id="edge7" class="edge">
<title>Node7&#45;&gt;Node8</title>
<path fill="none" stroke="#191970" d="M278.4821,-388.8947C281.9979,-391.3721 285.221,-394.222 288,-397.5 353.2043,-474.4136 257.1794,-545.9863 324,-621.5 332.8052,-631.4508 345.2994,-637.5497 358.0621,-641.2577"/>
<polygon fill="#191970" stroke="#191970" points="280.2064,-385.8481 269.8186,-383.7638 276.6393,-391.8711 280.2064,-385.8481"/>
</g>
<!-- Node10 -->
<g id="node10" class="node">
<title>Node10</title>
<g id="a_node10"><a xlink:href="classhandy_1_1TcpConn.html#aafaaa41f36db3d6aa30c4a6f3a3d93d6" target="_top" xlink:title="析构函数，关闭连接并释放资源 ">
<polygon fill="#ffffff" stroke="#000000" points="341,-593 341,-612 480,-612 480,-593 341,-593"/>
<text text-anchor="middle" x="410.5" y="-600" font-family="Helvetica,sans-Serif" font-size="10.00" fill="#000000">handy::TcpConn::~TcpConn</text>
</a>
</g>
</g>
<!-- Node9&#45;&gt;Node10 -->
<g id="edge9" class="edge">
<title>Node9&#45;&gt;Node10</title>
<path fill="none" stroke="#191970" d="M282.9421,-343.694C284.745,-345.159 286.4395,-346.7571 288,-348.5 358.4844,-427.2185 251.7219,-506.4253 324,-583.5 328.7328,-588.5469 334.4746,-592.4066 340.7242,-595.3406"/>
<polygon fill="#191970" stroke="#191970" points="284.7,-340.6609 274.4226,-338.0869 280.8517,-346.5082 284.7,-340.6609"/>
</g>
<!-- Node11 -->
<g id="node11" class="node">
<title>Node11</title>
<g id="a_node11"><a xlink:href="classhandy_1_1TcpConn.html#aeeb062fe73e0e1655c1e744376c8ba07" target="_top" xlink:title="将连接与已有的文件描述符进行关联 ">
<polygon fill="#ffffff" stroke="#000000" points="350,-555 350,-574 471,-574 471,-555 350,-555"/>
<text text-anchor="middle" x="410.5" y="-562" font-family="Helvetica,sans-Serif" font-size="10.00" fill="#000000">handy::TcpConn::attach</text>
</a>
</g>
</g>
<!-- Node9&#45;&gt;Node11 -->
<g id="edge10" class="edge">
<title>Node9&#45;&gt;Node11</title>
<path fill="none" stroke="#191970" d="M282.7396,-343.6617C284.6112,-345.1347 286.3737,-346.7435 288,-348.5 346.9852,-412.2065 265.2821,-476.547 324,-540.5 330.9565,-548.0767 340.0755,-553.3419 349.7795,-556.9838"/>
<polygon fill="#191970" stroke="#191970" points="284.231,-340.4617 273.9178,-338.0351 280.4668,-346.3634 284.231,-340.4617"/>
</g>
<!-- Node12 -->
<g id="node12" class="node">
<title>Node12</title>
<g id="a_node12"><a xlink:href="classhandy_1_1TcpConn.html#a1227846cc9258601c72a354f71dd080f" target="_top" xlink:title="主动连接到指定的主机和端口 ">
<polygon fill="#ffffff" stroke="#000000" points="538,-517 538,-536 672,-536 672,-517 538,-517"/>
<text text-anchor="middle" x="605" y="-524" font-family="Helvetica,sans-Serif" font-size="10.00" fill="#000000">handy::TcpConn::_connect</text>
</a>
</g>
</g>
<!-- Node9&#45;&gt;Node12 -->
<g id="edge18" class="edge">
<title>Node9&#45;&gt;Node12</title>
<path fill="none" stroke="#191970" d="M282.0585,-343.3204C284.1741,-344.8841 286.1663,-346.6055 288,-348.5 336.8848,-399.0066 270.8409,-456.5136 324,-502.5 354.9197,-529.2477 465.0791,-531.3113 537.9371,-529.5132"/>
<polygon fill="#191970" stroke="#191970" points="283.7256,-340.238 273.3616,-338.0382 280.0917,-346.2209 283.7256,-340.238"/>
</g>
<!-- Node14 -->
<g id="node14" class="node">
<title>Node14</title>
<g id="a_node14"><a xlink:href="classhandy_1_1TcpConn.html#a9ac6fe9839fbf06e2246f52b45668d01" target="_top" xlink:title="清理连接资源 ">
<polygon fill="#ffffff" stroke="#000000" points="891,-479 891,-498 1019,-498 1019,-479 891,-479"/>
<text text-anchor="middle" x="955" y="-486" font-family="Helvetica,sans-Serif" font-size="10.00" fill="#000000">handy::TcpConn::cleanup</text>
</a>
</g>
</g>
<!-- Node9&#45;&gt;Node14 -->
<g id="edge19" class="edge">
<title>Node9&#45;&gt;Node14</title>
<path fill="none" stroke="#191970" d="M281.7446,-343.3896C283.9605,-344.933 286.0578,-346.6314 288,-348.5 326.9009,-385.9258 281.1557,-431.6619 324,-464.5 368.1578,-498.3447 739.0565,-493.605 890.7391,-490.1918"/>
<polygon fill="#191970" stroke="#191970" points="283.0987,-340.1306 272.6863,-338.1727 279.6051,-346.1965 283.0987,-340.1306"/>
</g>
<!-- Node16 -->
<g id="node16" class="node">
<title>Node16</title>
<g id="a_node16"><a xlink:href="classhandy_1_1TcpConn.html#aede1ec049cda3fffd74acf9f116b16aa" target="_top" xlink:title="处理握手过程 ">
<polygon fill="#ffffff" stroke="#000000" points="1055,-441 1055,-460 1232,-460 1232,-441 1055,-441"/>
<text text-anchor="middle" x="1143.5" y="-448" font-family="Helvetica,sans-Serif" font-size="10.00" fill="#000000">handy::TcpConn::_handleHandshake</text>
</a>
</g>
</g>
<!-- Node9&#45;&gt;Node16 -->
<g id="edge20" class="edge">
<title>Node9&#45;&gt;Node16</title>
<path fill="none" stroke="#191970" d="M279.8156,-342.6225C282.715,-344.3621 285.4652,-346.3128 288,-348.5 318.4431,-374.768 291.1472,-408.3163 324,-431.5 375.1363,-467.5862 542.413,-450.5 605,-450.5 605,-450.5 605,-450.5 784,-450.5 876.3715,-450.5 982.0936,-450.5 1054.8565,-450.5"/>
<polygon fill="#191970" stroke="#191970" points="281.2372,-339.419 270.7362,-338.0117 278.0676,-345.6603 281.2372,-339.419"/>
</g>
<!-- Node18 -->
<g id="node18" class="node">
<title>Node18</title>
<g id="a_node18"><a xlink:href="classhandy_1_1TcpConn.html#aa6686d5e5c585b9e566763552c07ee35" target="_top" xlink:title="发送缓冲区中的数据 ">
<polygon fill="#ffffff" stroke="#000000" points="353,-403 353,-422 468,-422 468,-403 353,-403"/>
<text text-anchor="middle" x="410.5" y="-410" font-family="Helvetica,sans-Serif" font-size="10.00" fill="#000000">handy::TcpConn::send</text>
</a>
</g>
</g>
<!-- Node9&#45;&gt;Node18 -->
<g id="edge21" class="edge">
<title>Node9&#45;&gt;Node18</title>
<path fill="none" stroke="#191970" d="M275.7684,-341.8946C280.0502,-343.8109 284.177,-345.9999 288,-348.5 309.4356,-362.5183 302.2473,-379.9789 324,-393.5 332.7491,-398.9383 342.8435,-402.8314 352.9798,-405.6156"/>
<polygon fill="#191970" stroke="#191970" points="276.7915,-338.5357 266.2048,-338.12 274.2216,-345.0469 276.7915,-338.5357"/>
</g>
<!-- Node21 -->
<g id="node21" class="node">
<title>Node21</title>
<g id="a_node21"><a xlink:href="classhandy_1_1TcpServer.html#a373e76987f525973c65e2cab025522cc" target="_top" xlink:title="绑定到指定的主机和端口 ">
<polygon fill="#ffffff" stroke="#000000" points="352,-365 352,-384 469,-384 469,-365 352,-365"/>
<text text-anchor="middle" x="410.5" y="-372" font-family="Helvetica,sans-Serif" font-size="10.00" fill="#000000">handy::TcpServer::bind</text>
</a>
</g>
</g>
<!-- Node9&#45;&gt;Node21 -->
<g id="edge24" class="edge">
<title>Node9&#45;&gt;Node21</title>
<path fill="none" stroke="#191970" d="M261.3755,-340.4572C280.7892,-345.2382 303.4405,-350.7309 324,-355.5 337.6297,-358.6616 352.4995,-361.9763 366.0056,-364.9358"/>
<polygon fill="#191970" stroke="#191970" points="262.0944,-337.0296 251.5468,-338.0295 260.4157,-343.8254 262.0944,-337.0296"/>
</g>
<!-- Node23 -->
<g id="node23" class="node">
<title>Node23</title>
<g id="a_node23"><a xlink:href="classhandy_1_1TcpConn.html#aae9ce06d8e921cae92a09686caad970b" target="_top" xlink:title="获取远程地址的字符串表示 ">
<polygon fill="#ffffff" stroke="#000000" points="340.5,-327 340.5,-346 480.5,-346 480.5,-327 340.5,-327"/>
<text text-anchor="middle" x="410.5" y="-334" font-family="Helvetica,sans-Serif" font-size="10.00" fill="#000000">handy::TcpConn::getPeerStr</text>
</a>
</g>
</g>
<!-- Node9&#45;&gt;Node23 -->
<g id="edge26" class="edge">
<title>Node9&#45;&gt;Node23</title>
<path fill="none" stroke="#191970" d="M287.7259,-331.5142C304.9349,-332.2131 323.1982,-332.9547 340.2313,-333.6464"/>
<polygon fill="#191970" stroke="#191970" points="287.8664,-328.0172 277.7326,-331.1084 287.5823,-335.0114 287.8664,-328.0172"/>
</g>
<!-- Node24 -->
<g id="node24" class="node">
<title>Node24</title>
<g id="a_node24"><a xlink:href="classhandy_1_1UdpServer.html#a49e1cf8559b57b910172e38e59199b67" target="_top" xlink:title="将服务器绑定到指定地址和端口 ">
<polygon fill="#ffffff" stroke="#000000" points="351,-289 351,-308 470,-308 470,-289 351,-289"/>
<text text-anchor="middle" x="410.5" y="-296" font-family="Helvetica,sans-Serif" font-size="10.00" fill="#000000">handy::UdpServer::bind</text>
</a>
</g>
</g>
<!-- Node9&#45;&gt;Node24 -->
<g id="edge27" class="edge">
<title>Node9&#45;&gt;Node24</title>
<path fill="none" stroke="#191970" d="M286.0649,-317.4495C307.3447,-314.2089 330.3634,-310.7035 350.7481,-307.5993"/>
<polygon fill="#191970" stroke="#191970" points="285.4618,-314.0009 276.1027,-318.9666 286.5157,-320.9211 285.4618,-314.0009"/>
</g>
<!-- Node25 -->
<g id="node25" class="node">
<title>Node25</title>
<g id="a_node25"><a xlink:href="classhandy_1_1UdpServer.html#a411549e29cb1c4c0a5310834e7ce99bb" target="_top" xlink:title="发送指定长度的字节数据到指定地址 ">
<polygon fill="#ffffff" stroke="#000000" points="344,-251 344,-270 477,-270 477,-251 344,-251"/>
<text text-anchor="middle" x="410.5" y="-258" font-family="Helvetica,sans-Serif" font-size="10.00" fill="#000000">handy::UdpServer::sendTo</text>
</a>
</g>
</g>
<!-- Node9&#45;&gt;Node25 -->
<g id="edge28" class="edge">
<title>Node9&#45;&gt;Node25</title>
<path fill="none" stroke="#191970" d="M273.5838,-315.7064C278.5662,-313.89 283.4364,-311.8309 288,-309.5 306.548,-300.0263 305.296,-288.6618 324,-279.5 331.8705,-275.6448 340.5244,-272.5644 349.2228,-270.105"/>
<polygon fill="#191970" stroke="#191970" points="272.3083,-312.4418 263.9155,-318.908 274.5088,-319.087 272.3083,-312.4418"/>
</g>
<!-- Node26 -->
<g id="node26" class="node">
<title>Node26</title>
<g id="a_node26"><a xlink:href="classhandy_1_1UdpConn.html#ad42f2c83b20c11a3468a8ac42b2b9fbd" target="_top" xlink:title="创建新的UDP连接 ">
<polygon fill="#ffffff" stroke="#000000" points="324,-213 324,-232 497,-232 497,-213 324,-213"/>
<text text-anchor="middle" x="410.5" y="-220" font-family="Helvetica,sans-Serif" font-size="10.00" fill="#000000">handy::UdpConn::createConnection</text>
</a>
</g>
</g>
<!-- Node9&#45;&gt;Node26 -->
<g id="edge29" class="edge">
<title>Node9&#45;&gt;Node26</title>
<path fill="none" stroke="#191970" d="M280.649,-314.4555C283.2243,-312.9652 285.6892,-311.3188 288,-309.5 314.8715,-288.3504 296.7781,-262.1967 324,-241.5 329.0182,-237.6847 334.6478,-234.6041 340.5641,-232.1208"/>
<polygon fill="#191970" stroke="#191970" points="278.9569,-311.3874 271.5312,-318.9445 282.0488,-317.6675 278.9569,-311.3874"/>
</g>
<!-- Node27 -->
<g id="node27" class="node">
<title>Node27</title>
<g id="a_node27"><a xlink:href="classhandy_1_1UdpConn.html#a029c43ca7cd568b9fea2e336970ebf42" target="_top" xlink:title="发送指定长度的字节数据 ">
<polygon fill="#ffffff" stroke="#000000" points="352,-175 352,-194 469,-194 469,-175 352,-175"/>
<text text-anchor="middle" x="410.5" y="-182" font-family="Helvetica,sans-Serif" font-size="10.00" fill="#000000">handy::UdpConn::send</text>
</a>
</g>
</g>
<!-- Node9&#45;&gt;Node27 -->
<g id="edge30" class="edge">
<title>Node9&#45;&gt;Node27</title>
<path fill="none" stroke="#191970" d="M282.6822,-313.7841C284.5484,-312.4716 286.3282,-311.0467 288,-309.5 324.5211,-275.7114 286.9182,-236.6723 324,-203.5 331.7923,-196.5292 341.5481,-191.9211 351.6745,-188.9123"/>
<polygon fill="#191970" stroke="#191970" points="280.884,-310.7811 274.0153,-318.8478 284.4153,-316.8251 280.884,-310.7811"/>
</g>
<!-- Node28 -->
<g id="node28" class="node">
<title>Node28</title>
<g id="a_node28"><a xlink:href="classhandy_1_1UdpConn.html#ad2b1bc2b4e41a0321dc4312f2a9e6f6e" target="_top" xlink:title="获取远程地址的字符串表示 ">
<polygon fill="#ffffff" stroke="#000000" points="339,-137 339,-156 482,-156 482,-137 339,-137"/>
<text text-anchor="middle" x="410.5" y="-144" font-family="Helvetica,sans-Serif" font-size="10.00" fill="#000000">handy::UdpConn::getPeerStr</text>
</a>
</g>
</g>
<!-- Node9&#45;&gt;Node28 -->
<g id="edge31" class="edge">
<title>Node9&#45;&gt;Node28</title>
<path fill="none" stroke="#191970" d="M283.5074,-313.4611C285.0849,-312.2372 286.5876,-310.9191 288,-309.5 334.5371,-262.7422 276.6865,-211.472 324,-165.5 328.3006,-161.3213 333.2984,-157.9749 338.6812,-155.304"/>
<polygon fill="#191970" stroke="#191970" points="281.6272,-310.5089 275.0677,-318.829 285.384,-316.4155 281.6272,-310.5089"/>
</g>
<!-- Node11&#45;&gt;Node12 -->
<g id="edge11" class="edge">
<title>Node11&#45;&gt;Node12</title>
<path fill="none" stroke="#191970" d="M469.3076,-553.0106C497.0594,-547.5886 529.7891,-541.1942 556.1504,-536.0439"/>
<polygon fill="#191970" stroke="#191970" points="468.4728,-549.6074 459.3295,-554.96 469.8151,-556.4775 468.4728,-549.6074"/>
</g>
<!-- Node13 -->
<g id="node13" class="node">
<title>Node13</title>
<g id="a_node13"><a xlink:href="classhandy_1_1TcpConn.html#a14338af0c8635457894f33585bdd0878" target="_top" xlink:title="重连 ">
<polygon fill="#ffffff" stroke="#000000" points="713,-517 713,-536 855,-536 855,-517 713,-517"/>
<text text-anchor="middle" x="784" y="-524" font-family="Helvetica,sans-Serif" font-size="10.00" fill="#000000">handy::TcpConn::_reconnect</text>
</a>
</g>
</g>
<!-- Node12&#45;&gt;Node13 -->
<g id="edge12" class="edge">
<title>Node12&#45;&gt;Node13</title>
<path fill="none" stroke="#191970" d="M682.2439,-526.5C692.4173,-526.5 702.806,-526.5 712.8708,-526.5"/>
<polygon fill="#191970" stroke="#191970" points="682.1623,-523.0001 672.1623,-526.5 682.1622,-530.0001 682.1623,-523.0001"/>
</g>
<!-- Node13&#45;&gt;Node14 -->
<g id="edge13" class="edge">
<title>Node13&#45;&gt;Node14</title>
<path fill="none" stroke="#191970" d="M837.2092,-514.6757C861.3172,-509.3184 889.4401,-503.0689 912.1598,-498.0201"/>
<polygon fill="#191970" stroke="#191970" points="836.1531,-511.325 827.1505,-516.911 837.6717,-518.1583 836.1531,-511.325"/>
</g>
<!-- Node15 -->
<g id="node15" class="node">
<title>Node15</title>
<g id="a_node15"><a xlink:href="classhandy_1_1TcpConn.html#abf60924c0a811cec7b75835cf8d3b7c5" target="_top" xlink:title="编解码器 ">
<polygon fill="#ffffff" stroke="#000000" points="1268,-479 1268,-498 1419,-498 1419,-479 1268,-479"/>
<text text-anchor="middle" x="1343.5" y="-486" font-family="Helvetica,sans-Serif" font-size="10.00" fill="#000000">handy::TcpConn::_handleRead</text>
</a>
</g>
</g>
<!-- Node14&#45;&gt;Node15 -->
<g id="edge14" class="edge">
<title>Node14&#45;&gt;Node15</title>
<path fill="none" stroke="#191970" d="M1029.436,-488.5C1097.9391,-488.5 1199.0614,-488.5 1267.9236,-488.5"/>
<polygon fill="#191970" stroke="#191970" points="1029.1529,-485.0001 1019.1529,-488.5 1029.1528,-492.0001 1029.1529,-485.0001"/>
</g>
<!-- Node14&#45;&gt;Node16 -->
<g id="edge15" class="edge">
<title>Node14&#45;&gt;Node16</title>
<path fill="none" stroke="#191970" d="M1012.5893,-476.8905C1039.3983,-471.486 1070.8954,-465.1365 1096.2755,-460.0201"/>
<polygon fill="#191970" stroke="#191970" points="1011.6776,-473.5038 1002.5665,-478.911 1013.061,-480.3657 1011.6776,-473.5038"/>
</g>
<!-- Node16&#45;&gt;Node15 -->
<g id="edge16" class="edge">
<title>Node16&#45;&gt;Node15</title>
<path fill="none" stroke="#191970" d="M1203.5954,-461.9181C1232.2118,-467.3552 1266.0434,-473.7832 1293.2691,-478.9561"/>
<polygon fill="#191970" stroke="#191970" points="1204.1879,-458.4682 1193.7103,-460.04 1202.8812,-465.3451 1204.1879,-458.4682"/>
</g>
<!-- Node17 -->
<g id="node17" class="node">
<title>Node17</title>
<g id="a_node17"><a xlink:href="classhandy_1_1TcpConn.html#a63457506a3210662f34050088e0a08e3" target="_top" xlink:title="处理写事件 ">
<polygon fill="#ffffff" stroke="#000000" points="1268,-441 1268,-460 1419,-460 1419,-441 1268,-441"/>
<text text-anchor="middle" x="1343.5" y="-448" font-family="Helvetica,sans-Serif" font-size="10.00" fill="#000000">handy::TcpConn::_handleWrite</text>
</a>
</g>
</g>
<!-- Node16&#45;&gt;Node17 -->
<g id="edge17" class="edge">
<title>Node16&#45;&gt;Node17</title>
<path fill="none" stroke="#191970" d="M1242.1831,-450.5C1250.7936,-450.5 1259.4172,-450.5 1267.7984,-450.5"/>
<polygon fill="#191970" stroke="#191970" points="1242.0964,-447.0001 1232.0963,-450.5 1242.0963,-454.0001 1242.0964,-447.0001"/>
</g>
<!-- Node19 -->
<g id="node19" class="node">
<title>Node19</title>
<g id="a_node19"><a xlink:href="classhandy_1_1TcpConn.html#a876eeca51918ea71097edc1c2aab3fea" target="_top" xlink:title="发送输出缓冲区中的数据 ">
<polygon fill="#ffffff" stroke="#000000" points="533,-391.5 533,-421.5 677,-421.5 677,-391.5 533,-391.5"/>
<text text-anchor="start" x="541" y="-409.5" font-family="Helvetica,sans-Serif" font-size="10.00" fill="#000000">handy::TcpConn::sendOutput</text>
<text text-anchor="middle" x="605" y="-398.5" font-family="Helvetica,sans-Serif" font-size="10.00" fill="#000000">Buffer</text>
</a>
</g>
</g>
<!-- Node18&#45;&gt;Node19 -->
<g id="edge22" class="edge">
<title>Node18&#45;&gt;Node19</title>
<path fill="none" stroke="#191970" d="M478.2506,-410.41C495.8602,-409.8668 514.8952,-409.2796 532.7282,-408.7295"/>
<polygon fill="#191970" stroke="#191970" points="477.9543,-406.9174 468.067,-410.7242 478.1702,-413.9141 477.9543,-406.9174"/>
</g>
<!-- Node20 -->
<g id="node20" class="node">
<title>Node20</title>
<g id="a_node20"><a xlink:href="classhandy_1_1TcpConn.html#a9ff910e1037b29a941c66f3b8eefacc4" target="_top" xlink:title="发送消息（通过编解码器编码后发送） ">
<polygon fill="#ffffff" stroke="#000000" points="717,-397 717,-416 851,-416 851,-397 717,-397"/>
<text text-anchor="middle" x="784" y="-404" font-family="Helvetica,sans-Serif" font-size="10.00" fill="#000000">handy::TcpConn::sendMsg</text>
</a>
</g>
</g>
<!-- Node19&#45;&gt;Node20 -->
<g id="edge23" class="edge">
<title>Node19&#45;&gt;Node20</title>
<path fill="none" stroke="#191970" d="M687.2594,-406.5C697.1338,-406.5 707.1266,-406.5 716.7526,-406.5"/>
<polygon fill="#191970" stroke="#191970" points="687.0324,-403.0001 677.0324,-406.5 687.0324,-410.0001 687.0324,-403.0001"/>
</g>
<!-- Node22 -->
<g id="node22" class="node">
<title>Node22</title>
<g id="a_node22"><a xlink:href="classhandy_1_1StatServer.html#a85d041b9ba9b52ff1ec223777d84c744" target="_top" xlink:title="将服务器绑定到指定的主机和端口 ">
<polygon fill="#ffffff" stroke="#000000" points="545.5,-353 545.5,-372 664.5,-372 664.5,-353 545.5,-353"/>
<text text-anchor="middle" x="605" y="-360" font-family="Helvetica,sans-Serif" font-size="10.00" fill="#000000">handy::StatServer::bind</text>
</a>
</g>
</g>
<!-- Node21&#45;&gt;Node22 -->
<g id="edge25" class="edge">
<title>Node21&#45;&gt;Node22</title>
<path fill="none" stroke="#191970" d="M479.2235,-370.26C500.8563,-368.9253 524.5551,-367.4632 545.4916,-366.1715"/>
<polygon fill="#191970" stroke="#191970" points="478.8856,-366.7741 469.1202,-370.8833 479.3168,-373.7608 478.8856,-366.7741"/>
</g>
<!-- Node30 -->
<g id="node30" class="node">
<title>Node30</title>
<g id="a_node30"><a xlink:href="classhandy_1_1Ipv4Addr.html#a15f73de1453340b7a7855250f08b10c6" target="_top" xlink:title="将主机名解析为IP地址字符串 ">
<polygon fill="#ffffff" stroke="#000000" points="345,-99 345,-118 476,-118 476,-99 345,-99"/>
<text text-anchor="middle" x="410.5" y="-106" font-family="Helvetica,sans-Serif" font-size="10.00" fill="#000000">handy::Ipv4Addr::hostToIp</text>
</a>
</g>
</g>
<!-- Node29&#45;&gt;Node30 -->
<g id="edge33" class="edge">
<title>Node29&#45;&gt;Node30</title>
<path fill="none" stroke="#191970" d="M273.5567,-281.5912C278.8918,-278.9862 283.8378,-275.682 288,-271.5 334.5371,-224.7422 276.6865,-173.472 324,-127.5 329.8444,-121.8213 336.9765,-117.6795 344.6124,-114.6817"/>
<polygon fill="#191970" stroke="#191970" points="272.2364,-278.3497 264.2806,-285.3464 274.8632,-284.8381 272.2364,-278.3497"/>
</g>
<!-- Node31&#45;&gt;Node32 -->
<g id="edge35" class="edge">
<title>Node31&#45;&gt;Node32</title>
<path fill="none" stroke="#191970" d="M268.6834,-241.8666C275.8901,-238.5481 282.6237,-234.1989 288,-228.5 331.7922,-182.0808 279.5097,-135.2505 324,-89.5 333.4813,-79.7501 346.5085,-73.7398 359.5765,-70.0533"/>
<polygon fill="#191970" stroke="#191970" points="267.3853,-238.6161 259.3683,-245.5427 269.955,-245.1274 267.3853,-238.6161"/>
</g>
<!-- Node33&#45;&gt;Node32 -->
<g id="edge37" class="edge">
<title>Node33&#45;&gt;Node32</title>
<path fill="none" stroke="#191970" d="M267.7025,-168.4455C274.9962,-165.7655 282.0148,-162.2108 288,-157.5 314.8715,-136.3504 297.4665,-111.0721 324,-89.5 334.1885,-81.2166 347.0039,-75.6776 359.6254,-71.9737"/>
<polygon fill="#191970" stroke="#191970" points="266.1581,-165.2611 257.657,-171.5842 268.2457,-171.9425 266.1581,-165.2611"/>
</g>
<!-- Node37 -->
<g id="node37" class="node">
<title>Node37</title>
<g id="a_node37"><a xlink:href="classhandy_1_1StatServer.html#a0abb3f277002ee8dbb00bbc78e2abb99" target="_top" xlink:title="注册页面文件（将文件内容作为页面响应） ">
<polygon fill="#ffffff" stroke="#000000" points="360,-.5 360,-30.5 461,-30.5 461,-.5 360,-.5"/>
<text text-anchor="start" x="368" y="-18.5" font-family="Helvetica,sans-Serif" font-size="10.00" fill="#000000">handy::StatServer::</text>
<text text-anchor="middle" x="410.5" y="-7.5" font-family="Helvetica,sans-Serif" font-size="10.00" fill="#000000">onPageFile</text>
</a>
</g>
</g>
<!-- Node36&#45;&gt;Node37 -->
<g id="edge42" class="edge">
<title>Node36&#45;&gt;Node37</title>
<path fill="none" stroke="#191970" d="M282.0757,-25.9304C307.6335,-23.8546 336.1611,-21.5377 359.8256,-19.6157"/>
<polygon fill="#191970" stroke="#191970" points="281.7569,-22.4447 272.0731,-26.7428 282.3237,-29.4217 281.7569,-22.4447"/>
</g>
</g>
</svg>
